<?xml version="1.0" encoding="UTF-8" standalone="no"?>
<svg
   xmlns:dc="http://purl.org/dc/elements/1.1/"
   xmlns:cc="http://creativecommons.org/ns#"
   xmlns:rdf="http://www.w3.org/1999/02/22-rdf-syntax-ns#"
   xmlns:svg="http://www.w3.org/2000/svg"
   xmlns="http://www.w3.org/2000/svg"
   xmlns:sodipodi="http://sodipodi.sourceforge.net/DTD/sodipodi-0.dtd"
   xmlns:inkscape="http://www.inkscape.org/namespaces/inkscape"
   inkscape:version="1.0.1 (3bc2e813f5, 2020-09-07)"
   sodipodi:docname="facebook-white.svg"
   viewBox="0 0 24.000001 24"
   height="24"
   width="24"
   xml:space="preserve"
   id="svg2"
   version="1.1"><metadata
     id="metadata8"><rdf:RDF><cc:Work
         rdf:about=""><dc:format>image/svg+xml</dc:format><dc:type
           rdf:resource="http://purl.org/dc/dcmitype/StillImage" /><dc:title /></cc:Work></rdf:RDF></metadata><defs
     id="defs6"><radialGradient
       id="radialGradient18"
       spreadMethod="pad"
       gradientTransform="matrix(326.915,0,0,-326.915,125,125)"
       gradientUnits="userSpaceOnUse"
       r="1"
       cy="0"
       cx="0"
       fy="0"
       fx="0"><stop
         id="stop14"
         offset="0"
         style="stop-opacity:1;stop-color:#ffffff" /><stop
         id="stop16"
         offset="1"
         style="stop-opacity:1;stop-color:#100f0d" /></radialGradient><clipPath
       id="clipPath28"
       clipPathUnits="userSpaceOnUse"><path
         id="path26"
         d="m 71.1328,162.766 c 0,-10.977 -8.4336,-20.012 -19.1406,-20.871 -0.5899,-0.11 -1.1914,-0.11 -1.7813,-0.11 -1.5664,0 -3.0859,0.156 -4.5429,0.488 -9.4063,2.114 -16.4414,10.493 -16.4414,20.493 0,11.57 9.4179,20.925 20.9843,20.925 11.5704,0 20.9219,-9.355 20.9219,-20.925 z" /></clipPath><linearGradient
       id="linearGradient36"
       spreadMethod="pad"
       gradientTransform="matrix(8.74701,-59.2106,-59.2106,-8.74701,45.0195,197.744)"
       gradientUnits="userSpaceOnUse"
       y2="0"
       x2="1"
       y1="0"
       x1="0"><stop
         id="stop30"
         offset="0"
         style="stop-opacity:1;stop-color:#2a3986" /><stop
         id="stop32"
         offset="0.94086"
         style="stop-opacity:1;stop-color:#171c3b" /><stop
         id="stop34"
         offset="1"
         style="stop-opacity:1;stop-color:#171c3b" /></linearGradient><clipPath
       id="clipPath48"
       clipPathUnits="userSpaceOnUse"><path
         id="path46"
         d="m 120.801,162.785 c 0,-11.594 -9.391,-20.969 -20.9612,-20.969 -11.5742,0 -20.9492,9.375 -20.9492,20.969 0,11.57 9.375,20.945 20.9492,20.945 11.5702,0 20.9612,-9.375 20.9612,-20.945 z" /></clipPath><linearGradient
       id="linearGradient58"
       spreadMethod="pad"
       gradientTransform="matrix(0.76299,-65.6164,-65.6164,-0.76299,99.4141,200.395)"
       gradientUnits="userSpaceOnUse"
       y2="0"
       x2="1"
       y1="0"
       x1="0"><stop
         id="stop50"
         offset="0"
         style="stop-opacity:1;stop-color:#46bb3a" /><stop
         id="stop52"
         offset="0.132227"
         style="stop-opacity:1;stop-color:#46bb3a" /><stop
         id="stop54"
         offset="0.793966"
         style="stop-opacity:1;stop-color:#2c9c40" /><stop
         id="stop56"
         offset="1"
         style="stop-opacity:1;stop-color:#2c9c40" /></linearGradient><clipPath
       id="clipPath72"
       clipPathUnits="userSpaceOnUse"><path
         id="path70"
         d="m 170.117,162.5 c 0,-11.562 -9.387,-20.957 -20.945,-20.957 -11.582,0 -20.957,9.395 -20.957,20.957 0,11.582 9.375,20.957 20.957,20.957 11.558,0 20.945,-9.375 20.945,-20.957 z" /></clipPath><linearGradient
       id="linearGradient82"
       spreadMethod="pad"
       gradientTransform="matrix(-3e-6,-68.9238,-68.9238,3e-6,149.17,206.48)"
       gradientUnits="userSpaceOnUse"
       y2="0"
       x2="1"
       y1="0"
       x1="0"><stop
         id="stop74"
         offset="0"
         style="stop-opacity:1;stop-color:#50abe3" /><stop
         id="stop76"
         offset="0.317204"
         style="stop-opacity:1;stop-color:#50abe3" /><stop
         id="stop78"
         offset="0.672043"
         style="stop-opacity:1;stop-color:#3d84c9" /><stop
         id="stop80"
         offset="1"
         style="stop-opacity:1;stop-color:#3d84c9" /></linearGradient><clipPath
       id="clipPath94"
       clipPathUnits="userSpaceOnUse"><path
         id="path92"
         d="m 220.781,162.629 c 0,-11.586 -9.375,-20.969 -20.957,-20.969 -11.562,0 -20.945,9.383 -20.945,20.969 0,11.57 9.383,20.957 20.945,20.957 11.582,0 20.957,-9.387 20.957,-20.957 z" /></clipPath><clipPath
       id="clipPath100"
       clipPathUnits="userSpaceOnUse"><path
         id="path98"
         d="m 175.637,186.828 c 1.597,0 3.218,0 4.832,0 1.609,0 3.222,0 4.844,0 1.613,0 3.234,0 4.843,0 1.614,0 3.211,0 4.832,0 1.614,0 3.227,0 4.836,0 1.621,0 3.235,0 4.832,0 1.621,0 3.235,0 4.848,0 1.609,0 3.23,0 4.844,0 1.597,0 3.218,0 4.832,0 1.609,0 3.222,0 4.836,0 0,-1.613 0,-3.242 0,-4.848 0,-1.609 0,-3.23 0,-4.839 0,-1.614 0,-3.227 0,-4.848 0,-1.609 0,-3.23 0,-4.832 0,-1.621 0,-3.223 0,-4.832 0,-1.621 0,-3.242 0,-4.863 0,-1.594 0,-3.215 0,-4.825 0,-1.613 0,-3.234 0,-4.843 0,-1.621 0,-3.227 0,-4.836 0,-1.621 0,-3.242 0,-4.832 -1.614,0 -3.227,0 -4.836,0 -1.614,0 -3.235,0 -4.832,0 -1.614,0 -3.235,0 -4.844,0 -1.613,0 -3.227,0 -4.848,0 -1.597,0 -3.211,0 -4.832,0 -1.609,0 -3.222,0 -4.836,0 -1.621,0 -3.218,0 -4.832,0 -1.609,0 -3.23,0 -4.843,0 -1.622,0 -3.235,0 -4.844,0 -1.614,0 -3.235,0 -4.832,0 0,1.59 0,3.211 0,4.832 0,1.609 0,3.215 0,4.836 0,1.609 0,3.23 0,4.843 0,1.61 0,3.231 0,4.825 0,1.621 0,3.242 0,4.863 0,1.609 0,3.211 0,4.832 0,1.602 0,3.223 0,4.832 0,1.621 0,3.234 0,4.848 0,1.609 0,3.23 0,4.839 0,1.606 0,3.235 0,4.848 z" /></clipPath><clipPath
       id="clipPath106"
       clipPathUnits="userSpaceOnUse"><path
         id="path104"
         d="m 196,141 v 1 h -4 v 1 h -2 v 1 h -1 v 1 h -2 v 1 h -1 v 1 h -2 v 2 h -1 v 1 h -1 v 2 h -1 v 1 h -1 v 3 h -1 v 4 h -1 v 6 h 1 v 3 h 1 v 3 h 1 v 1 h 1 v 2 h 1 v 1 h 1 v 2 h 1 v 1 h 2 v 1 h 1 v 1 h 2 v 1 h 1 v 1 h 4 v 1 h 10 v -1 h 3 v -1 h 2 v -1 h 1 v -1 h 2 v -1 h 1 v -1 h 1 v -1 h 1 v -1 h 1 v -2 h 1 v -1 h 1 v -2 h 1 v -3 h 1 v -11 h -1 v -3 h -1 v -2 h -1 v -1 h -1 v -2 h -1 v -1 h -1 v -1 h -1 v -1 h -2 v -1 h -1 v -1 h -1 v -1 h -3 v -1 h -3 v -1" /></clipPath></defs><sodipodi:namedview
     inkscape:current-layer="g12"
     inkscape:window-maximized="1"
     inkscape:window-y="349"
     inkscape:window-x="1920"
     inkscape:cy="14.492093"
     inkscape:cx="20.747126"
     inkscape:zoom="26.100001"
     showgrid="false"
     id="namedview4"
     inkscape:window-height="1043"
     inkscape:window-width="1920"
     inkscape:pageshadow="2"
     inkscape:pageopacity="0"
     guidetolerance="10"
     gridtolerance="10"
     objecttolerance="10"
     borderopacity="1"
     bordercolor="#666666"
     pagecolor="#ffffff"
     inkscape:document-rotation="0" /><g
     transform="matrix(1.3333333,0,0,-1.3333333,1.6457202,23.279491)"
     inkscape:label="ink_ext_XXXXXX"
     inkscape:groupmode="layer"
     id="g10"><g
       transform="scale(0.1)"
       id="g12"><path
         id="path20"
         style="fill:none;fill-opacity:1;fill-rule:nonzero;stroke:none"
         d="M 250,0 H 0 V 250 H 250 V 0" /><g
         id="g88"><g
           clip-path="url(#clipPath94)"
           id="g90"><g
             clip-path="url(#clipPath100)"
             id="g96"><g
               clip-path="url(#clipPath106)"
               id="g102"><g
                 transform="matrix(1,0,0,-1,-8179,8204)"
                 id="g108"><path
                   id="path110"
                   style="fill:#474ba8;fill-opacity:1;fill-rule:nonzero;stroke:none"
                   d="m 8196.5633,8185.32 c 0.1601,0 0.3222,0 0.4833,0 0,0.081 0,0.1616 0,0.2421 -0.1611,0 -0.3232,0 -0.4833,0 0,-0.081 0,-0.1616 0,-0.2421 z" /><path
                   id="path112"
                   style="fill:#4948a6;fill-opacity:1;fill-rule:nonzero;stroke:none"
                   d="m 8196.5633,8185.5621 c 0.1601,0 0.3222,0 0.4833,0 0,0.081 0,0.1621 0,0.2422 -0.1611,0 -0.3232,0 -0.4833,0 0,-0.08 0,-0.1611 0,-0.2422 z" /><path
                   id="path114"
                   style="fill:#4c47a5;fill-opacity:1;fill-rule:nonzero;stroke:none"
                   d="m 8197.0466,8185.32 c 0.1611,0 0.3222,0 0.4842,0 0,0.081 0,0.1616 0,0.2421 -0.162,0 -0.3231,0 -0.4842,0 0,-0.081 0,-0.1616 0,-0.2421 z" /><path
                   id="path116"
                   style="fill:#5243a3;fill-opacity:1;fill-rule:nonzero;stroke:none"
                   d="m 8197.0466,8185.5621 c 0.1611,0 0.3222,0 0.4842,0 0,0.081 0,0.1621 0,0.2422 -0.162,0 -0.3231,0 -0.4842,0 0,-0.08 0,-0.1611 0,-0.2422 z" /><path
                   id="path118"
                   style="fill:#5540a2;fill-opacity:1;fill-rule:nonzero;stroke:none"
                   d="m 8197.5308,8185.32 c 0.1611,0 0.3232,0 0.4843,0 0,0.1611 0,0.3241 0,0.4843 -0.1611,0 -0.3232,0 -0.4843,0 0,-0.1602 0,-0.3232 0,-0.4843 z" /><path
                   id="path120"
                   style="fill:#5d3a9e;fill-opacity:1;fill-rule:nonzero;stroke:none"
                   d="m 8198.0151,8185.32 c 0.1611,0 0.3212,0 0.4833,0 0,0.081 0,0.1616 0,0.2421 -0.1621,0 -0.3222,0 -0.4833,0 0,-0.081 0,-0.1616 0,-0.2421 z" /><path
                   id="path122"
                   style="fill:#6d2f99;fill-opacity:1;fill-rule:nonzero;stroke:none"
                   d="m 8198.0151,8185.5621 c 0.1611,0 0.3212,0 0.4833,0 0,0.081 0,0.1621 0,0.2422 -0.1621,0 -0.3222,0 -0.4833,0 0,-0.08 0,-0.1611 0,-0.2422 z" /><path
                   id="path124"
                   style="fill:#67349b;fill-opacity:1;fill-rule:nonzero;stroke:none"
                   d="m 8198.4984,8185.32 c 0.1611,0 0.3222,0 0.4833,0 0,0.081 0,0.1616 0,0.2421 -0.1611,0 -0.3222,0 -0.4833,0 0,-0.081 0,-0.1616 0,-0.2421 z" /><path
                   id="path126"
                   style="fill:#782996;fill-opacity:1;fill-rule:nonzero;stroke:none"
                   d="m 8198.4984,8185.5621 c 0.1611,0 0.3222,0 0.4833,0 0,0.081 0,0.1621 0,0.2422 -0.1611,0 -0.3222,0 -0.4833,0 0,-0.08 0,-0.1611 0,-0.2422 z" /><path
                   id="path128"
                   style="fill:#6c319a;fill-opacity:1;fill-rule:nonzero;stroke:none"
                   d="m 8198.9817,8185.32 c 0.162,0 0.3231,0 0.4832,0 0,0.1611 0,0.3241 0,0.4843 -0.1601,0 -0.3212,0 -0.4832,0 0,-0.1602 0,-0.3232 0,-0.4843 z" /><path
                   id="path130"
                   style="fill:#6c329a;fill-opacity:1;fill-rule:nonzero;stroke:none"
                   d="m 8199.4649,8185.32 c 0.1621,0 0.3232,0 0.4843,0 0,0.1611 0,0.3241 0,0.4843 -0.1611,0 -0.3222,0 -0.4843,0 0,-0.1602 0,-0.3232 0,-0.4843 z" /><path
                   id="path132"
                   style="fill:#66359c;fill-opacity:1;fill-rule:nonzero;stroke:none"
                   d="m 8199.9492,8185.32 c 0.1611,0 0.3231,0 0.4842,0 0,0.1611 0,0.3241 0,0.4843 -0.1611,0 -0.3231,0 -0.4842,0 0,-0.1602 0,-0.3232 0,-0.4843 z" /><path
                   id="path134"
                   style="fill:#5e3a9e;fill-opacity:1;fill-rule:nonzero;stroke:none"
                   d="m 8200.4334,8185.32 c 0.1602,0 0.3222,0 0.4833,0 0,0.1611 0,0.3241 0,0.4843 -0.1611,0 -0.3231,0 -0.4833,0 0,-0.1602 0,-0.3232 0,-0.4843 z" /><path
                   id="path136"
                   style="fill:#583fa1;fill-opacity:1;fill-rule:nonzero;stroke:none"
                   d="m 8200.9167,8185.32 c 0.1611,0 0.3222,0 0.4833,0 0,0.1611 0,0.3241 0,0.4843 -0.1611,0 -0.3222,0 -0.4833,0 0,-0.1602 0,-0.3232 0,-0.4843 z" /><path
                   id="path138"
                   style="fill:#4d44a3;fill-opacity:1;fill-rule:nonzero;stroke:none"
                   d="m 8196.5633,8185.8043 c 0.1601,0 0.3222,0 0.4833,0 0,0.081 0,0.161 0,0.2421 -0.1611,0 -0.3232,0 -0.4833,0 0,-0.081 0,-0.1616 0,-0.2421 z" /><path
                   id="path140"
                   style="fill:#553d9f;fill-opacity:1;fill-rule:nonzero;stroke:none"
                   d="m 8196.5633,8186.0464 c 0.1601,0 0.3222,0 0.4833,0 0,0.081 0,0.1616 0,0.2421 -0.1611,0 -0.3232,0 -0.4833,0 0,-0.081 0,-0.1611 0,-0.2421 z" /><path
                   id="path142"
                   style="fill:#5b3ca0;fill-opacity:1;fill-rule:nonzero;stroke:none"
                   d="m 8197.0466,8185.8043 c 0.1611,0 0.3222,0 0.4842,0 0,0.081 0,0.161 0,0.2421 -0.162,0 -0.3231,0 -0.4842,0 0,-0.081 0,-0.1616 0,-0.2421 z" /><path
                   id="path144"
                   style="fill:#6e2f99;fill-opacity:1;fill-rule:nonzero;stroke:none"
                   d="m 8197.0466,8186.0464 c 0.1611,0 0.3222,0 0.4842,0 0,0.081 0,0.1616 0,0.2421 -0.162,0 -0.3231,0 -0.4842,0 0,-0.081 0,-0.1611 0,-0.2421 z" /><path
                   id="path146"
                   style="fill:#6f2e99;fill-opacity:1;fill-rule:nonzero;stroke:none"
                   d="m 8197.5308,8185.8043 c 0.1611,0 0.3232,0 0.4843,0 0,0.161 0,0.3231 0,0.4842 -0.1611,0 -0.3232,0 -0.4843,0 0,-0.1611 0,-0.3232 0,-0.4842 z" /><path
                   id="path148"
                   style="fill:#832193;fill-opacity:1;fill-rule:nonzero;stroke:none"
                   d="m 8198.0151,8185.8043 c 0.1611,0 0.3212,0 0.4833,0 0,0.161 0,0.3231 0,0.4842 -0.1621,0 -0.3222,0 -0.4833,0 0,-0.1611 0,-0.3232 0,-0.4842 z" /><path
                   id="path150"
                   style="fill:#90188f;fill-opacity:1;fill-rule:nonzero;stroke:none"
                   d="m 8198.4984,8185.8043 c 0.1611,0 0.3222,0 0.4833,0 0,0.161 0,0.3231 0,0.4842 -0.1611,0 -0.3222,0 -0.4833,0 0,-0.1611 0,-0.3232 0,-0.4842 z" /><path
                   id="path152"
                   style="fill:#94178f;fill-opacity:1;fill-rule:nonzero;stroke:none"
                   d="m 8198.9817,8185.8043 c 0.162,0 0.3231,0 0.4832,0 0,0.161 0,0.3231 0,0.4842 -0.1601,0 -0.3212,0 -0.4832,0 0,-0.1611 0,-0.3232 0,-0.4842 z" /><path
                   id="path154"
                   style="fill:#901a90;fill-opacity:1;fill-rule:nonzero;stroke:none"
                   d="m 8199.4649,8185.8043 c 0.1621,0 0.3232,0 0.4843,0 0,0.161 0,0.3231 0,0.4842 -0.1611,0 -0.3222,0 -0.4843,0 0,-0.1611 0,-0.3232 0,-0.4842 z" /><path
                   id="path156"
                   style="fill:#882093;fill-opacity:1;fill-rule:nonzero;stroke:none"
                   d="m 8199.9492,8185.8043 c 0.1611,0 0.3231,0 0.4842,0 0,0.161 0,0.3231 0,0.4842 -0.1611,0 -0.3231,0 -0.4842,0 0,-0.1611 0,-0.3232 0,-0.4842 z" /><path
                   id="path158"
                   style="fill:#792a97;fill-opacity:1;fill-rule:nonzero;stroke:none"
                   d="m 8200.4334,8185.8043 c 0.1602,0 0.3222,0 0.4833,0 0,0.161 0,0.3231 0,0.4842 -0.1611,0 -0.3231,0 -0.4833,0 0,-0.1611 0,-0.3232 0,-0.4842 z" /><path
                   id="path160"
                   style="fill:#69349b;fill-opacity:1;fill-rule:nonzero;stroke:none"
                   d="m 8200.9167,8185.8043 c 0.1611,0 0.3222,0 0.4833,0 0,0.161 0,0.3231 0,0.4842 -0.1611,0 -0.3222,0 -0.4833,0 0,-0.1611 0,-0.3232 0,-0.4842 z" /><path
                   id="path162"
                   style="fill:#65329a;fill-opacity:1;fill-rule:nonzero;stroke:none"
                   d="m 8196.5633,8186.2885 c 0,0.1611 0,0.3222 0,0.4843 0.08,0 0.1611,0 0.2412,0 0,-0.1621 0,-0.3232 0,-0.4843 -0.08,0 -0.1611,0 -0.2412,0 z" /><path
                   id="path164"
                   style="fill:#772896;fill-opacity:1;fill-rule:nonzero;stroke:none"
                   d="m 8196.8045,8186.2885 c 0.081,0 0.162,0 0.2421,0 0,0.081 0,0.1611 0,0.2416 -0.08,0 -0.1611,0 -0.2421,0 0,-0.081 0,-0.161 0,-0.2416 z" /><path
                   id="path166"
                   style="fill:#95188d;fill-opacity:1;fill-rule:nonzero;stroke:none"
                   d="m 8196.8045,8186.5301 c 0.081,0 0.162,0 0.2421,0 0,0.081 0,0.1616 0,0.2427 -0.08,0 -0.1611,0 -0.2421,0 0,-0.081 0,-0.1621 0,-0.2427 z" /><path
                   id="path168"
                   style="fill:#891c90;fill-opacity:1;fill-rule:nonzero;stroke:none"
                   d="m 8197.0466,8186.2885 c 0.1611,0 0.3222,0 0.4842,0 0,0.081 0,0.1611 0,0.2416 -0.162,0 -0.3231,0 -0.4842,0 0,-0.081 0,-0.161 0,-0.2416 z" /><path
                   id="path170"
                   style="fill:#a51783;fill-opacity:1;fill-rule:nonzero;stroke:none"
                   d="m 8197.0466,8186.5301 c 0.1611,0 0.3222,0 0.4842,0 0,0.081 0,0.1616 0,0.2427 -0.162,0 -0.3231,0 -0.4842,0 0,-0.081 0,-0.1621 0,-0.2427 z" /><path
                   id="path172"
                   style="fill:#a71482;fill-opacity:1;fill-rule:nonzero;stroke:none"
                   d="m 8197.5308,8186.2885 c 0.1611,0 0.3232,0 0.4843,0 0,0.081 0,0.1611 0,0.2416 -0.1611,0 -0.3232,0 -0.4843,0 0,-0.081 0,-0.161 0,-0.2416 z" /><path
                   id="path174"
                   style="fill:#bd166c;fill-opacity:1;fill-rule:nonzero;stroke:none"
                   d="m 8197.5308,8186.5301 c 0.1611,0 0.3232,0 0.4843,0 0,0.081 0,0.1616 0,0.2427 -0.1611,0 -0.3232,0 -0.4843,0 0,-0.081 0,-0.1621 0,-0.2427 z" /><path
                   id="path176"
                   style="fill:#b61376;fill-opacity:1;fill-rule:nonzero;stroke:none"
                   d="m 8198.0151,8186.2885 c 0.1611,0 0.3212,0 0.4833,0 0,0.081 0,0.1611 0,0.2416 -0.1621,0 -0.3222,0 -0.4833,0 0,-0.081 0,-0.161 0,-0.2416 z" /><path
                   id="path178"
                   style="fill:#c91661;fill-opacity:1;fill-rule:nonzero;stroke:none"
                   d="m 8198.0151,8186.5301 c 0.1611,0 0.3212,0 0.4833,0 0,0.081 0,0.1616 0,0.2427 -0.1621,0 -0.3222,0 -0.4833,0 0,-0.081 0,-0.1621 0,-0.2427 z" /><path
                   id="path180"
                   style="fill:#bb1271;fill-opacity:1;fill-rule:nonzero;stroke:none"
                   d="m 8198.4984,8186.2885 c 0.1611,0 0.3222,0 0.4833,0 0,0.081 0,0.1611 0,0.2416 -0.1611,0 -0.3222,0 -0.4833,0 0,-0.081 0,-0.161 0,-0.2416 z" /><path
                   id="path182"
                   style="fill:#cc155e;fill-opacity:1;fill-rule:nonzero;stroke:none"
                   d="m 8198.4984,8186.5301 c 0.1611,0 0.3222,0 0.4833,0 0,0.081 0,0.1616 0,0.2427 -0.1611,0 -0.3222,0 -0.4833,0 0,-0.081 0,-0.1621 0,-0.2427 z" /><path
                   id="path184"
                   style="fill:#bb1274;fill-opacity:1;fill-rule:nonzero;stroke:none"
                   d="m 8198.9817,8186.2885 c 0.162,0 0.3231,0 0.4832,0 0,0.081 0,0.1611 0,0.2416 -0.1601,0 -0.3212,0 -0.4832,0 0,-0.081 0,-0.161 0,-0.2416 z" /><path
                   id="path186"
                   style="fill:#cb1262;fill-opacity:1;fill-rule:nonzero;stroke:none"
                   d="m 8198.9817,8186.5301 c 0.162,0 0.3231,0 0.4832,0 0,0.081 0,0.1616 0,0.2427 -0.1601,0 -0.3212,0 -0.4832,0 0,-0.081 0,-0.1621 0,-0.2427 z" /><path
                   id="path188"
                   style="fill:#b6117c;fill-opacity:1;fill-rule:nonzero;stroke:none"
                   d="m 8199.4649,8186.2885 c 0.1621,0 0.3232,0 0.4843,0 0,0.1611 0,0.3222 0,0.4843 -0.1611,0 -0.3222,0 -0.4843,0 0,-0.1621 0,-0.3232 0,-0.4843 z" /><path
                   id="path190"
                   style="fill:#b01186;fill-opacity:1;fill-rule:nonzero;stroke:none"
                   d="m 8199.9492,8186.2885 c 0.1611,0 0.3231,0 0.4842,0 0,0.1611 0,0.3222 0,0.4843 -0.1611,0 -0.3231,0 -0.4842,0 0,-0.1621 0,-0.3232 0,-0.4843 z" /><path
                   id="path192"
                   style="fill:#a4128e;fill-opacity:1;fill-rule:nonzero;stroke:none"
                   d="m 8200.4334,8186.2885 c 0.1602,0 0.3222,0 0.4833,0 0,0.1611 0,0.3222 0,0.4843 -0.1611,0 -0.3231,0 -0.4833,0 0,-0.1621 0,-0.3232 0,-0.4843 z" /><path
                   id="path194"
                   style="fill:#911d92;fill-opacity:1;fill-rule:nonzero;stroke:none"
                   d="m 8200.9167,8186.2885 c 0.1611,0 0.3222,0 0.4833,0 0,0.1611 0,0.3222 0,0.4843 -0.1611,0 -0.3222,0 -0.4833,0 0,-0.1621 0,-0.3232 0,-0.4843 z" /><path
                   id="path196"
                   style="fill:#9a1984;fill-opacity:1;fill-rule:nonzero;stroke:none"
                   d="m 8196.5633,8186.7728 c 0.08,0 0.1611,0 0.2412,0 0,0.081 0,0.1611 0,0.2421 -0.08,0 -0.1611,0 -0.2412,0 0,-0.081 0,-0.1616 0,-0.2421 z" /><path
                   id="path198"
                   style="fill:#b11c6d;fill-opacity:1;fill-rule:nonzero;stroke:none"
                   d="m 8196.5633,8187.0149 c 0.08,0 0.1611,0 0.2412,0 0,0.081 0,0.1611 0,0.2411 -0.08,0 -0.1611,0 -0.2412,0 0,-0.08 0,-0.1606 0,-0.2411 z" /><path
                   id="path200"
                   style="fill:#ae1977;fill-opacity:1;fill-rule:nonzero;stroke:none"
                   d="m 8196.8045,8186.7728 c 0.081,0 0.162,0 0.2421,0 0,0.081 0,0.1611 0,0.2421 -0.08,0 -0.1611,0 -0.2421,0 0,-0.081 0,-0.1616 0,-0.2421 z" /><path
                   id="path202"
                   style="fill:#c31e62;fill-opacity:1;fill-rule:nonzero;stroke:none"
                   d="m 8196.8045,8187.0149 c 0.081,0 0.162,0 0.2421,0 0,0.081 0,0.1611 0,0.2411 -0.08,0 -0.1611,0 -0.2421,0 0,-0.08 0,-0.1606 0,-0.2411 z" /><path
                   id="path204"
                   style="fill:#be196b;fill-opacity:1;fill-rule:nonzero;stroke:none"
                   d="m 8197.0466,8186.7728 c 0.08,0 0.1611,0 0.2421,0 0,0.081 0,0.1611 0,0.2421 -0.081,0 -0.1621,0 -0.2421,0 0,-0.081 0,-0.1616 0,-0.2421 z" /><path
                   id="path206"
                   style="fill:#d12156;fill-opacity:1;fill-rule:nonzero;stroke:none"
                   d="m 8197.0466,8187.0149 c 0.08,0 0.1611,0 0.2421,0 0,0.081 0,0.1611 0,0.2411 -0.081,0 -0.1621,0 -0.2421,0 0,-0.08 0,-0.1606 0,-0.2411 z" /><path
                   id="path208"
                   style="fill:#c91b61;fill-opacity:1;fill-rule:nonzero;stroke:none"
                   d="m 8197.2887,8186.7728 c 0.08,0 0.1611,0 0.2421,0 0,0.081 0,0.1611 0,0.2421 -0.081,0 -0.162,0 -0.2421,0 0,-0.081 0,-0.1616 0,-0.2421 z" /><path
                   id="path210"
                   style="fill:#d9244c;fill-opacity:1;fill-rule:nonzero;stroke:none"
                   d="m 8197.2887,8187.0149 c 0.08,0 0.1611,0 0.2421,0 0,0.081 0,0.1611 0,0.2411 -0.081,0 -0.162,0 -0.2421,0 0,-0.08 0,-0.1606 0,-0.2411 z" /><path
                   id="path212"
                   style="fill:#cf1d58;fill-opacity:1;fill-rule:nonzero;stroke:none"
                   d="m 8197.5308,8186.7728 c 0.1611,0 0.3232,0 0.4843,0 0,0.081 0,0.1611 0,0.2421 -0.1611,0 -0.3232,0 -0.4843,0 0,-0.081 0,-0.1616 0,-0.2421 z" /><path
                   id="path214"
                   style="fill:#df2844;fill-opacity:1;fill-rule:nonzero;stroke:none"
                   d="m 8197.5308,8187.0149 c 0.1611,0 0.3232,0 0.4843,0 0,0.081 0,0.1611 0,0.2411 -0.1611,0 -0.3232,0 -0.4843,0 0,-0.08 0,-0.1606 0,-0.2411 z" /><path
                   id="path216"
                   style="fill:#d8204d;fill-opacity:1;fill-rule:nonzero;stroke:none"
                   d="m 8198.0151,8186.7728 c 0.1611,0 0.3212,0 0.4833,0 0,0.1611 0,0.3231 0,0.4832 -0.1621,0 -0.3222,0 -0.4833,0 0,-0.1601 0,-0.3221 0,-0.4832 z" /><path
                   id="path218"
                   style="fill:#da1d4c;fill-opacity:1;fill-rule:nonzero;stroke:none"
                   d="m 8198.4984,8186.7728 c 0.1611,0 0.3222,0 0.4833,0 0,0.1611 0,0.3231 0,0.4832 -0.1611,0 -0.3222,0 -0.4833,0 0,-0.1601 0,-0.3221 0,-0.4832 z" /><path
                   id="path220"
                   style="fill:#d81851;fill-opacity:1;fill-rule:nonzero;stroke:none"
                   d="m 8198.9817,8186.7728 c 0.162,0 0.3231,0 0.4832,0 0,0.1611 0,0.3231 0,0.4832 -0.1601,0 -0.3212,0 -0.4832,0 0,-0.1601 0,-0.3221 0,-0.4832 z" /><path
                   id="path222"
                   style="fill:#d3125b;fill-opacity:1;fill-rule:nonzero;stroke:none"
                   d="m 8199.4649,8186.7728 c 0.1621,0 0.3232,0 0.4843,0 0,0.1611 0,0.3231 0,0.4832 -0.1611,0 -0.3222,0 -0.4843,0 0,-0.1601 0,-0.3221 0,-0.4832 z" /><path
                   id="path224"
                   style="fill:#cb1167;fill-opacity:1;fill-rule:nonzero;stroke:none"
                   d="m 8199.9492,8186.7728 c 0.1611,0 0.3231,0 0.4842,0 0,0.1611 0,0.3231 0,0.4832 -0.1611,0 -0.3231,0 -0.4842,0 0,-0.1601 0,-0.3221 0,-0.4832 z" /><path
                   id="path226"
                   style="fill:#c11077;fill-opacity:1;fill-rule:nonzero;stroke:none"
                   d="m 8200.4334,8186.7728 c 0.1602,0 0.3222,0 0.4833,0 0,0.1611 0,0.3231 0,0.4832 -0.1611,0 -0.3231,0 -0.4833,0 0,-0.1601 0,-0.3221 0,-0.4832 z" /><path
                   id="path228"
                   style="fill:#b41088;fill-opacity:1;fill-rule:nonzero;stroke:none"
                   d="m 8200.9167,8186.7728 c 0.1611,0 0.3222,0 0.4833,0 0,0.1611 0,0.3231 0,0.4832 -0.1611,0 -0.3222,0 -0.4833,0 0,-0.1601 0,-0.3221 0,-0.4832 z" /><path
                   id="path230"
                   style="fill:#c62258;fill-opacity:1;fill-rule:nonzero;stroke:none"
                   d="m 8196.5633,8187.256 c 0,0.1621 0,0.3222 0,0.4833 0.08,0 0.1611,0 0.2412,0 0,-0.1611 0,-0.3212 0,-0.4833 -0.08,0 -0.1611,0 -0.2412,0 z" /><path
                   id="path232"
                   style="fill:#d4284d;fill-opacity:1;fill-rule:nonzero;stroke:none"
                   d="m 8196.8045,8187.256 c 0,0.1621 0,0.3222 0,0.4833 0.081,0 0.162,0 0.2421,0 0,-0.1611 0,-0.3212 0,-0.4833 -0.08,0 -0.1611,0 -0.2421,0 z" /><path
                   id="path234"
                   style="fill:#e02c44;fill-opacity:1;fill-rule:nonzero;stroke:none"
                   d="m 8197.0466,8187.256 c 0.1611,0 0.3222,0 0.4842,0 0,0.081 0,0.1616 0,0.2422 -0.162,0 -0.3231,0 -0.4842,0 0,-0.081 0,-0.1611 0,-0.2422 z" /><path
                   id="path236"
                   style="fill:#e83536;fill-opacity:1;fill-rule:nonzero;stroke:none"
                   d="m 8197.0466,8187.4982 c 0.1611,0 0.3222,0 0.4842,0 0,0.08 0,0.1606 0,0.2411 -0.162,0 -0.3231,0 -0.4842,0 0,-0.081 0,-0.1611 0,-0.2411 z" /><path
                   id="path238"
                   style="fill:#ea3236;fill-opacity:1;fill-rule:nonzero;stroke:none"
                   d="m 8197.5308,8187.256 c 0.1611,0 0.3232,0 0.4843,0 0,0.081 0,0.1616 0,0.2422 -0.1611,0 -0.3232,0 -0.4843,0 0,-0.081 0,-0.1611 0,-0.2422 z" /><path
                   id="path240"
                   style="fill:#ee3b2e;fill-opacity:1;fill-rule:nonzero;stroke:none"
                   d="m 8197.5308,8187.4982 c 0.1611,0 0.3232,0 0.4843,0 0,0.08 0,0.1606 0,0.2411 -0.1611,0 -0.3232,0 -0.4843,0 0,-0.081 0,-0.1611 0,-0.2411 z" /><path
                   id="path242"
                   style="fill:#ec3334;fill-opacity:1;fill-rule:nonzero;stroke:none"
                   d="m 8198.0151,8187.256 c 0.1611,0 0.3212,0 0.4833,0 0,0.1621 0,0.3222 0,0.4833 -0.1621,0 -0.3222,0 -0.4833,0 0,-0.1611 0,-0.3212 0,-0.4833 z" /><path
                   id="path244"
                   style="fill:#eb3235;fill-opacity:1;fill-rule:nonzero;stroke:none"
                   d="m 8198.4984,8187.256 c 0.1611,0 0.3222,0 0.4833,0 0,0.1621 0,0.3222 0,0.4833 -0.1611,0 -0.3222,0 -0.4833,0 0,-0.1611 0,-0.3212 0,-0.4833 z" /><path
                   id="path246"
                   style="fill:#e82a3a;fill-opacity:1;fill-rule:nonzero;stroke:none"
                   d="m 8198.9817,8187.256 c 0.162,0 0.3231,0 0.4832,0 0,0.1621 0,0.3222 0,0.4833 -0.1601,0 -0.3212,0 -0.4832,0 0,-0.1611 0,-0.3212 0,-0.4833 z" /><path
                   id="path248"
                   style="fill:#e31f43;fill-opacity:1;fill-rule:nonzero;stroke:none"
                   d="m 8199.4649,8187.256 c 0.1621,0 0.3232,0 0.4843,0 0,0.1621 0,0.3222 0,0.4833 -0.1611,0 -0.3222,0 -0.4843,0 0,-0.1611 0,-0.3212 0,-0.4833 z" /><path
                   id="path250"
                   style="fill:#dd144f;fill-opacity:1;fill-rule:nonzero;stroke:none"
                   d="m 8199.9492,8187.256 c 0.1611,0 0.3231,0 0.4842,0 0,0.1621 0,0.3222 0,0.4833 -0.1611,0 -0.3231,0 -0.4842,0 0,-0.1611 0,-0.3212 0,-0.4833 z" /><path
                   id="path252"
                   style="fill:#d4115e;fill-opacity:1;fill-rule:nonzero;stroke:none"
                   d="m 8200.4334,8187.256 c 0.1602,0 0.3222,0 0.4833,0 0,0.1621 0,0.3222 0,0.4833 -0.1611,0 -0.3231,0 -0.4833,0 0,-0.1611 0,-0.3212 0,-0.4833 z" /><path
                   id="path254"
                   style="fill:#ca106f;fill-opacity:1;fill-rule:nonzero;stroke:none"
                   d="m 8200.9167,8187.256 c 0.1611,0 0.3222,0 0.4833,0 0,0.1621 0,0.3222 0,0.4833 -0.1611,0 -0.3222,0 -0.4833,0 0,-0.1611 0,-0.3212 0,-0.4833 z" /><path
                   id="path256"
                   style="fill:#de3339;fill-opacity:1;fill-rule:nonzero;stroke:none"
                   d="m 8196.5633,8187.7393 c 0,0.1621 0,0.3242 0,0.4862 0.08,0 0.1611,0 0.2412,0 0,-0.162 0,-0.3241 0,-0.4862 -0.08,0 -0.1611,0 -0.2412,0 z" /><path
                   id="path258"
                   style="fill:#e83932;fill-opacity:1;fill-rule:nonzero;stroke:none"
                   d="m 8196.8045,8187.7393 c 0,0.1621 0,0.3242 0,0.4862 0.081,0 0.162,0 0.2421,0 0,-0.162 0,-0.3241 0,-0.4862 -0.08,0 -0.1611,0 -0.2421,0 z" /><path
                   id="path260"
                   style="fill:#ee3e2d;fill-opacity:1;fill-rule:nonzero;stroke:none"
                   d="m 8197.0466,8187.7393 c 0.1611,0 0.3222,0 0.4842,0 0,0.081 0,0.1621 0,0.2431 -0.162,0 -0.3231,0 -0.4842,0 0,-0.081 0,-0.162 0,-0.2431 z" /><path
                   id="path262"
                   style="fill:#f04528;fill-opacity:1;fill-rule:nonzero;stroke:none"
                   d="m 8197.0466,8187.9824 c 0.1611,0 0.3222,0 0.4842,0 0,0.081 0,0.1621 0,0.2431 -0.162,0 -0.3231,0 -0.4842,0 0,-0.081 0,-0.162 0,-0.2431 z" /><path
                   id="path264"
                   style="fill:#f04329;fill-opacity:1;fill-rule:nonzero;stroke:none"
                   d="m 8197.5308,8187.7393 c 0.1611,0 0.3232,0 0.4843,0 0,0.1621 0,0.3242 0,0.4862 -0.1611,0 -0.3232,0 -0.4843,0 0,-0.162 0,-0.3241 0,-0.4862 z" /><path
                   id="path266"
                   style="fill:#f04329;fill-opacity:1;fill-rule:nonzero;stroke:none"
                   d="m 8198.0151,8187.7393 c 0.1611,0 0.3212,0 0.4833,0 0,0.1621 0,0.3242 0,0.4862 -0.1621,0 -0.3222,0 -0.4833,0 0,-0.162 0,-0.3241 0,-0.4862 z" /><path
                   id="path268"
                   style="fill:#ef412a;fill-opacity:1;fill-rule:nonzero;stroke:none"
                   d="m 8198.4984,8187.7393 c 0.1611,0 0.3222,0 0.4833,0 0,0.1621 0,0.3242 0,0.4862 -0.1611,0 -0.3222,0 -0.4833,0 0,-0.162 0,-0.3241 0,-0.4862 z" /><path
                   id="path270"
                   style="fill:#ef3b2e;fill-opacity:1;fill-rule:nonzero;stroke:none"
                   d="m 8198.9817,8187.7393 c 0.162,0 0.3231,0 0.4832,0 0,0.1621 0,0.3242 0,0.4862 -0.1601,0 -0.3212,0 -0.4832,0 0,-0.162 0,-0.3241 0,-0.4862 z" /><path
                   id="path272"
                   style="fill:#ed3134;fill-opacity:1;fill-rule:nonzero;stroke:none"
                   d="m 8199.4649,8187.7393 c 0.1621,0 0.3232,0 0.4843,0 0,0.1621 0,0.3242 0,0.4862 -0.1611,0 -0.3222,0 -0.4843,0 0,-0.162 0,-0.3241 0,-0.4862 z" /><path
                   id="path274"
                   style="fill:#e7223e;fill-opacity:1;fill-rule:nonzero;stroke:none"
                   d="m 8199.9492,8187.7393 c 0.1611,0 0.3231,0 0.4842,0 0,0.1621 0,0.3242 0,0.4862 -0.1611,0 -0.3231,0 -0.4842,0 0,-0.162 0,-0.3241 0,-0.4862 z" /><path
                   id="path276"
                   style="fill:#e0154c;fill-opacity:1;fill-rule:nonzero;stroke:none"
                   d="m 8200.4334,8187.7393 c 0.1602,0 0.3222,0 0.4833,0 0,0.1621 0,0.3242 0,0.4862 -0.1611,0 -0.3231,0 -0.4833,0 0,-0.162 0,-0.3241 0,-0.4862 z" /><path
                   id="path278"
                   style="fill:#d9115c;fill-opacity:1;fill-rule:nonzero;stroke:none"
                   d="m 8200.9167,8187.7393 c 0.1611,0 0.3222,0 0.4833,0 0,0.1621 0,0.3242 0,0.4862 -0.1611,0 -0.3222,0 -0.4833,0 0,-0.162 0,-0.3241 0,-0.4862 z" /><path
                   id="path280"
                   style="fill:#e84427;fill-opacity:1;fill-rule:nonzero;stroke:none"
                   d="m 8196.5633,8188.2255 c 0,0.1592 0,0.3212 0,0.4823 0.08,0 0.1611,0 0.2412,0 0,-0.1611 0,-0.3231 0,-0.4823 -0.08,0 -0.1611,0 -0.2412,0 z" /><path
                   id="path282"
                   style="fill:#ee4926;fill-opacity:1;fill-rule:nonzero;stroke:none"
                   d="m 8196.8045,8188.2255 c 0,0.1592 0,0.3212 0,0.4823 0.081,0 0.162,0 0.2421,0 0,-0.1611 0,-0.3231 0,-0.4823 -0.08,0 -0.1611,0 -0.2421,0 z" /><path
                   id="path284"
                   style="fill:#f04d27;fill-opacity:1;fill-rule:nonzero;stroke:none"
                   d="m 8197.0466,8188.2255 c 0.1611,0 0.3222,0 0.4842,0 0,0.1592 0,0.3212 0,0.4823 -0.162,0 -0.3231,0 -0.4842,0 0,-0.1611 0,-0.3231 0,-0.4823 z" /><path
                   id="path286"
                   style="fill:#f05428;fill-opacity:1;fill-rule:nonzero;stroke:none"
                   d="m 8197.5308,8188.2255 c 0.1611,0 0.3232,0 0.4843,0 0,0.1592 0,0.3212 0,0.4823 -0.1611,0 -0.3232,0 -0.4843,0 0,-0.1611 0,-0.3231 0,-0.4823 z" /><path
                   id="path288"
                   style="fill:#f05627;fill-opacity:1;fill-rule:nonzero;stroke:none"
                   d="m 8198.0151,8188.2255 c 0.1611,0 0.3212,0 0.4833,0 0,0.08 0,0.1601 0,0.2407 -0.1621,0 -0.3222,0 -0.4833,0 0,-0.081 0,-0.1611 0,-0.2407 z" /><path
                   id="path290"
                   style="fill:#f06824;fill-opacity:1;fill-rule:nonzero;stroke:none"
                   d="m 8198.0151,8188.4662 c 0.1611,0 0.3212,0 0.4833,0 0,0.081 0,0.1611 0,0.2416 -0.1621,0 -0.3222,0 -0.4833,0 0,-0.081 0,-0.1611 0,-0.2416 z" /><path
                   id="path292"
                   style="fill:#f05026;fill-opacity:1;fill-rule:nonzero;stroke:none"
                   d="m 8198.4984,8188.2255 c 0.1611,0 0.3222,0 0.4833,0 0,0.1592 0,0.3212 0,0.4823 -0.1611,0 -0.3222,0 -0.4833,0 0,-0.1611 0,-0.3231 0,-0.4823 z" /><path
                   id="path294"
                   style="fill:#ef4728;fill-opacity:1;fill-rule:nonzero;stroke:none"
                   d="m 8198.9817,8188.2255 c 0.162,0 0.3231,0 0.4832,0 0,0.1592 0,0.3212 0,0.4823 -0.1601,0 -0.3212,0 -0.4832,0 0,-0.1611 0,-0.3231 0,-0.4823 z" /><path
                   id="path296"
                   style="fill:#ef3f2b;fill-opacity:1;fill-rule:nonzero;stroke:none"
                   d="m 8199.4649,8188.2255 c 0.1621,0 0.3232,0 0.4843,0 0,0.1592 0,0.3212 0,0.4823 -0.1611,0 -0.3222,0 -0.4843,0 0,-0.1611 0,-0.3231 0,-0.4823 z" /><path
                   id="path298"
                   style="fill:#ee3333;fill-opacity:1;fill-rule:nonzero;stroke:none"
                   d="m 8199.9492,8188.2255 c 0.1611,0 0.3231,0 0.4842,0 0,0.1592 0,0.3212 0,0.4823 -0.1611,0 -0.3231,0 -0.4842,0 0,-0.1611 0,-0.3231 0,-0.4823 z" /><path
                   id="path300"
                   style="fill:#e81f3f;fill-opacity:1;fill-rule:nonzero;stroke:none"
                   d="m 8200.4334,8188.2255 c 0,0.1592 0,0.3212 0,0.4823 0.08,0 0.1611,0 0.2412,0 0,-0.1611 0,-0.3231 0,-0.4823 -0.08,0 -0.1611,0 -0.2412,0 z" /><path
                   id="path302"
                   style="fill:#e51846;fill-opacity:1;fill-rule:nonzero;stroke:none"
                   d="m 8200.6746,8188.2255 c 0,0.1592 0,0.3212 0,0.4823 0.081,0 0.1621,0 0.2421,0 0,-0.1611 0,-0.3231 0,-0.4823 -0.08,0 -0.1611,0 -0.2421,0 z" /><path
                   id="path304"
                   style="fill:#e2134d;fill-opacity:1;fill-rule:nonzero;stroke:none"
                   d="m 8200.9167,8188.2255 c 0.1611,0 0.3222,0 0.4833,0 0,0.1592 0,0.3212 0,0.4823 -0.1611,0 -0.3222,0 -0.4833,0 0,-0.1611 0,-0.3231 0,-0.4823 z" /><path
                   id="path306"
                   style="fill:#ea5623;fill-opacity:1;fill-rule:nonzero;stroke:none"
                   d="m 8196.5633,8188.7078 c 0.1601,0 0.3222,0 0.4833,0 0,0.1611 0,0.3232 0,0.4843 -0.1611,0 -0.3232,0 -0.4833,0 0,-0.1611 0,-0.3232 0,-0.4843 z" /><path
                   id="path308"
                   style="fill:#f06a25;fill-opacity:1;fill-rule:nonzero;stroke:none"
                   d="m 8197.0466,8188.7078 c 0.1611,0 0.3222,0 0.4842,0 0,0.1611 0,0.3232 0,0.4843 -0.162,0 -0.3231,0 -0.4842,0 0,-0.1611 0,-0.3232 0,-0.4843 z" /><path
                   id="path310"
                   style="fill:#f27a25;fill-opacity:1;fill-rule:nonzero;stroke:none"
                   d="m 8197.5308,8188.7078 c 0.1611,0 0.3232,0 0.4843,0 0,0.1611 0,0.3232 0,0.4843 -0.1611,0 -0.3232,0 -0.4843,0 0,-0.1611 0,-0.3232 0,-0.4843 z" /><path
                   id="path312"
                   style="fill:#f27d25;fill-opacity:1;fill-rule:nonzero;stroke:none"
                   d="m 8198.0151,8188.7078 c 0,0.1611 0,0.3232 0,0.4843 0.08,0 0.1601,0 0.2411,0 0,-0.1611 0,-0.3232 0,-0.4843 -0.081,0 -0.161,0 -0.2411,0 z" /><path
                   id="path314"
                   style="fill:#f17924;fill-opacity:1;fill-rule:nonzero;stroke:none"
                   d="m 8198.2562,8188.7078 c 0,0.1611 0,0.3232 0,0.4843 0.081,0 0.1611,0 0.2422,0 0,-0.1611 0,-0.3232 0,-0.4843 -0.081,0 -0.1611,0 -0.2422,0 z" /><path
                   id="path316"
                   style="fill:#f27225;fill-opacity:1;fill-rule:nonzero;stroke:none"
                   d="m 8198.4984,8188.7078 c 0.1611,0 0.3222,0 0.4833,0 0,0.1611 0,0.3232 0,0.4843 -0.1611,0 -0.3222,0 -0.4833,0 0,-0.1611 0,-0.3232 0,-0.4843 z" /><path
                   id="path318"
                   style="fill:#f15d27;fill-opacity:1;fill-rule:nonzero;stroke:none"
                   d="m 8198.9817,8188.7078 c 0.162,0 0.3231,0 0.4832,0 0,0.1611 0,0.3232 0,0.4843 -0.1601,0 -0.3212,0 -0.4832,0 0,-0.1611 0,-0.3232 0,-0.4843 z" /><path
                   id="path320"
                   style="fill:#ef4a26;fill-opacity:1;fill-rule:nonzero;stroke:none"
                   d="m 8199.4649,8188.7078 c 0.1621,0 0.3232,0 0.4843,0 0,0.1611 0,0.3232 0,0.4843 -0.1611,0 -0.3222,0 -0.4843,0 0,-0.1611 0,-0.3232 0,-0.4843 z" /><path
                   id="path322"
                   style="fill:#ef3e2b;fill-opacity:1;fill-rule:nonzero;stroke:none"
                   d="m 8199.9492,8188.7078 c 0.1611,0 0.3231,0 0.4842,0 0,0.1611 0,0.3232 0,0.4843 -0.1611,0 -0.3231,0 -0.4842,0 0,-0.1611 0,-0.3232 0,-0.4843 z" /><path
                   id="path324"
                   style="fill:#ec2c35;fill-opacity:1;fill-rule:nonzero;stroke:none"
                   d="m 8200.4334,8188.7078 c 0.1602,0 0.3222,0 0.4833,0 0,0.1611 0,0.3232 0,0.4843 -0.1611,0 -0.3231,0 -0.4833,0 0,-0.1611 0,-0.3232 0,-0.4843 z" /><path
                   id="path326"
                   style="fill:#e71942;fill-opacity:1;fill-rule:nonzero;stroke:none"
                   d="m 8200.9167,8188.7078 c 0.1611,0 0.3222,0 0.4833,0 0,0.1611 0,0.3232 0,0.4843 -0.1611,0 -0.3222,0 -0.4833,0 0,-0.1611 0,-0.3232 0,-0.4843 z" /><path
                   id="path328"
                   style="fill:#eb7624;fill-opacity:1;fill-rule:nonzero;stroke:none"
                   d="m 8196.5633,8189.1921 c 0.1601,0 0.3222,0 0.4833,0 0,0.1621 0,0.3222 0,0.4833 -0.1611,0 -0.3232,0 -0.4833,0 0,-0.1611 0,-0.3212 0,-0.4833 z" /><path
                   id="path330"
                   style="fill:#f39529;fill-opacity:1;fill-rule:nonzero;stroke:none"
                   d="m 8197.0466,8189.1921 c 0.1611,0 0.3222,0 0.4842,0 0,0.1621 0,0.3222 0,0.4833 -0.162,0 -0.3221,0 -0.4842,0 0,-0.1611 0,-0.3212 0,-0.4833 z" /><path
                   id="path332"
                   style="fill:#f3a42e;fill-opacity:1;fill-rule:nonzero;stroke:none"
                   d="m 8197.5308,8189.1921 c 0.1611,0 0.3232,0 0.4843,0 0,0.1621 0,0.3222 0,0.4833 -0.1611,0 -0.3232,0 -0.4843,0 0,-0.1611 0,-0.3212 0,-0.4833 z" /><path
                   id="path334"
                   style="fill:#f3a72d;fill-opacity:1;fill-rule:nonzero;stroke:none"
                   d="m 8198.0151,8189.1921 c 0,0.1621 0,0.3222 0,0.4833 0.08,0 0.1601,0 0.2411,0 0,-0.1611 0,-0.3212 0,-0.4833 -0.081,0 -0.161,0 -0.2411,0 z" /><path
                   id="path336"
                   style="fill:#f3a42c;fill-opacity:1;fill-rule:nonzero;stroke:none"
                   d="m 8198.2562,8189.1921 c 0,0.1621 0,0.3222 0,0.4833 0.081,0 0.1611,0 0.2422,0 0,-0.1611 0,-0.3212 0,-0.4833 -0.081,0 -0.1611,0 -0.2422,0 z" /><path
                   id="path338"
                   style="fill:#f39d29;fill-opacity:1;fill-rule:nonzero;stroke:none"
                   d="m 8198.4984,8189.1921 c 0.1611,0 0.3222,0 0.4833,0 0,0.1621 0,0.3222 0,0.4833 -0.1611,0 -0.3222,0 -0.4833,0 0,-0.1611 0,-0.3212 0,-0.4833 z" /><path
                   id="path340"
                   style="fill:#f38127;fill-opacity:1;fill-rule:nonzero;stroke:none"
                   d="m 8198.9817,8189.1921 c 0.162,0 0.3231,0 0.4832,0 0,0.1621 0,0.3222 0,0.4833 -0.1601,0 -0.3212,0 -0.4832,0 0,-0.1611 0,-0.3212 0,-0.4833 z" /><path
                   id="path342"
                   style="fill:#f25d27;fill-opacity:1;fill-rule:nonzero;stroke:none"
                   d="m 8199.4649,8189.1921 c 0.1621,0 0.3232,0 0.4843,0 0,0.1621 0,0.3222 0,0.4833 -0.1611,0 -0.3222,0 -0.4843,0 0,-0.1611 0,-0.3212 0,-0.4833 z" /><path
                   id="path344"
                   style="fill:#f04628;fill-opacity:1;fill-rule:nonzero;stroke:none"
                   d="m 8199.9492,8189.1921 c 0,0.1621 0,0.3222 0,0.4833 0.081,0 0.1611,0 0.2421,0 0,-0.1611 0,-0.3212 0,-0.4833 -0.081,0 -0.1611,0 -0.2421,0 z" /><path
                   id="path346"
                   style="fill:#ef402a;fill-opacity:1;fill-rule:nonzero;stroke:none"
                   d="m 8200.1913,8189.1921 c 0,0.1621 0,0.3222 0,0.4833 0.081,0 0.1611,0 0.2421,0 0,-0.1611 0,-0.3212 0,-0.4833 -0.081,0 -0.1611,0 -0.2421,0 z" /><path
                   id="path348"
                   style="fill:#ef3730;fill-opacity:1;fill-rule:nonzero;stroke:none"
                   d="m 8200.4334,8189.1921 c 0.1602,0 0.3222,0 0.4833,0 0,0.1621 0,0.3222 0,0.4833 -0.1611,0 -0.3231,0 -0.4833,0 0,-0.1611 0,-0.3212 0,-0.4833 z" /><path
                   id="path350"
                   style="fill:#ea213a;fill-opacity:1;fill-rule:nonzero;stroke:none"
                   d="m 8200.9167,8189.1921 c 0.1611,0 0.3222,0 0.4833,0 0,0.1621 0,0.3222 0,0.4833 -0.1611,0 -0.3222,0 -0.4833,0 0,-0.1611 0,-0.3212 0,-0.4833 z" /><path
                   id="path352"
                   style="fill:#ec9829;fill-opacity:1;fill-rule:nonzero;stroke:none"
                   d="m 8196.5633,8189.6754 c 0.1601,0 0.3222,0 0.4833,0 0,0.162 0,0.3241 0,0.4832 -0.1611,0 -0.3232,0 -0.4833,0 0,-0.1591 0,-0.3212 0,-0.4832 z" /><path
                   id="path354"
                   style="fill:#f3b433;fill-opacity:1;fill-rule:nonzero;stroke:none"
                   d="m 8197.0466,8189.6754 c 0,0.162 0,0.3241 0,0.4832 0.08,0 0.1611,0 0.2421,0 0,-0.1591 0,-0.3212 0,-0.4832 -0.08,0 -0.1611,0 -0.2421,0 z" /><path
                   id="path356"
                   style="fill:#f4bc3a;fill-opacity:1;fill-rule:nonzero;stroke:none"
                   d="m 8197.2887,8189.6754 c 0,0.162 0,0.3241 0,0.4832 0.08,0 0.1611,0 0.2421,0 0,-0.1591 0,-0.3212 0,-0.4832 -0.081,0 -0.162,0 -0.2421,0 z" /><path
                   id="path358"
                   style="fill:#f4c03f;fill-opacity:1;fill-rule:nonzero;stroke:none"
                   d="m 8197.5308,8189.6754 c 0.1611,0 0.3232,0 0.4843,0 0,0.162 0,0.3241 0,0.4832 -0.1611,0 -0.3232,0 -0.4843,0 0,-0.1591 0,-0.3212 0,-0.4832 z" /><path
                   id="path360"
                   style="fill:#f4c342;fill-opacity:1;fill-rule:nonzero;stroke:none"
                   d="m 8198.0151,8189.6754 c 0,0.162 0,0.3241 0,0.4832 0.08,0 0.1601,0 0.2411,0 0,-0.1591 0,-0.3212 0,-0.4832 -0.081,0 -0.161,0 -0.2411,0 z" /><path
                   id="path362"
                   style="fill:#f4c03e;fill-opacity:1;fill-rule:nonzero;stroke:none"
                   d="m 8198.2562,8189.6754 c 0,0.162 0,0.3241 0,0.4832 0.081,0 0.1611,0 0.2422,0 0,-0.1591 0,-0.3212 0,-0.4832 -0.081,0 -0.1611,0 -0.2422,0 z" /><path
                   id="path364"
                   style="fill:#f3ba39;fill-opacity:1;fill-rule:nonzero;stroke:none"
                   d="m 8198.4984,8189.6754 c 0.1611,0 0.3222,0 0.4833,0 0,0.162 0,0.3241 0,0.4832 -0.1611,0 -0.3222,0 -0.4833,0 0,-0.1591 0,-0.3212 0,-0.4832 z" /><path
                   id="path366"
                   style="fill:#f3a42d;fill-opacity:1;fill-rule:nonzero;stroke:none"
                   d="m 8198.9817,8189.6754 c 0.162,0 0.3231,0 0.4832,0 0,0.162 0,0.3241 0,0.4832 -0.1601,0 -0.3212,0 -0.4832,0 0,-0.1591 0,-0.3212 0,-0.4832 z" /><path
                   id="path368"
                   style="fill:#f27a24;fill-opacity:1;fill-rule:nonzero;stroke:none"
                   d="m 8199.4649,8189.6754 c 0,0.162 0,0.3241 0,0.4832 0.081,0 0.1621,0 0.2431,0 0,-0.1591 0,-0.3212 0,-0.4832 -0.081,0 -0.162,0 -0.2431,0 z" /><path
                   id="path370"
                   style="fill:#f16424;fill-opacity:1;fill-rule:nonzero;stroke:none"
                   d="m 8199.708,8189.6754 c 0,0.162 0,0.3241 0,0.4832 0.08,0 0.1602,0 0.2412,0 0,-0.1591 0,-0.3212 0,-0.4832 -0.081,0 -0.1611,0 -0.2412,0 z" /><path
                   id="path372"
                   style="fill:#f05126;fill-opacity:1;fill-rule:nonzero;stroke:none"
                   d="m 8199.9492,8189.6754 c 0,0.162 0,0.3241 0,0.4832 0.081,0 0.1611,0 0.2421,0 0,-0.1591 0,-0.3212 0,-0.4832 -0.081,0 -0.1611,0 -0.2421,0 z" /><path
                   id="path374"
                   style="fill:#f04728;fill-opacity:1;fill-rule:nonzero;stroke:none"
                   d="m 8200.1913,8189.6754 c 0,0.162 0,0.3241 0,0.4832 0.081,0 0.1611,0 0.2421,0 0,-0.1591 0,-0.3212 0,-0.4832 -0.081,0 -0.1611,0 -0.2421,0 z" /><path
                   id="path376"
                   style="fill:#ef3f2a;fill-opacity:1;fill-rule:nonzero;stroke:none"
                   d="m 8200.4334,8189.6754 c 0.1602,0 0.3222,0 0.4833,0 0,0.162 0,0.3241 0,0.4832 -0.1611,0 -0.3231,0 -0.4833,0 0,-0.1591 0,-0.3212 0,-0.4832 z" /><path
                   id="path378"
                   style="fill:#ec2b35;fill-opacity:1;fill-rule:nonzero;stroke:none"
                   d="m 8200.9167,8189.6754 c 0,0.162 0,0.3241 0,0.4832 0.08,0 0.1611,0 0.2421,0 0,-0.1591 0,-0.3212 0,-0.4832 -0.081,0 -0.162,0 -0.2421,0 z" /><path
                   id="path380"
                   style="fill:#e72139;fill-opacity:1;fill-rule:nonzero;stroke:none"
                   d="m 8201.1588,8189.6754 c 0,0.162 0,0.3241 0,0.4832 0.08,0 0.1602,0 0.2412,0 0,-0.1591 0,-0.3212 0,-0.4832 -0.081,0 -0.1611,0 -0.2412,0 z" /></g></g></g></g></g><path
         id="path384"
         style="fill:#ffffff;fill-opacity:1;fill-rule:nonzero;stroke:none;stroke-width:4.2957"
         d="m 167.6571,84.679965 c 0,-47.156219 -36.22491,-85.9221385 -82.214757,-89.6137831 -2.533802,-0.469995 -5.117429,-0.469995 -7.651231,-0.469995 -6.728168,0 -13.254888,0.6710524 -19.513151,2.06428 -40.402948,9.1124725 -70.620863,45.1091231 -70.620863,88.0194981 0,49.707685 40.452774,89.916225 90.134014,89.916225 49.698428,0 89.865988,-40.20854 89.865988,-89.916225" /><path
         id="path386"
         style="fill:#f4591e;fill-opacity:1;fill-rule:nonzero;stroke:none;stroke-width:4.2957"
         d="m 88.00922,103.52613 c 1.376215,1.62779 4.161293,2.80235 8.121136,2.80235 3.708139,0 8.120704,-0.50351 12.298744,-1.67806 l 3.5067,18.87924 c -7.19808,2.51752 -14.614356,3.23884 -22.29866,3.23884 -7.684733,0 -13.708472,-1.19132 -18.574196,-3.94341 -4.899228,-2.78601 -8.154212,-5.84011 -9.983154,-10.28745 -1.879197,-3.90988 -2.801829,-10.65606 -2.801829,-19.01371 V 86.106703 H 43.395152 V 64.508454 H 58.277961 V -3.3395331 c 6.258263,-1.3932276 12.784983,-2.06428 19.513151,-2.06428 2.533802,0 5.117429,0 7.651231,0.469995 V 64.508454 H 105.17369 V 86.106703 H 85.442343 v 6.964418 c 0,5.319868 0.70486,8.608969 2.566877,10.455009" /><path
         id="path398"
         style="fill:#ffffff;fill-opacity:1;fill-rule:nonzero;stroke:none;stroke-width:4.29452"
         d="m 358.87901,-15.853431 c 0,-49.67476 -40.27254,-89.974669 -90.02578,-89.974669 -49.66732,0 -89.97423,40.299909 -89.97423,89.974669 0,49.67476 40.30691,90.025333 89.97423,90.025333 49.75324,0 90.02578,-40.350573 90.02578,-90.025333" /><path
         id="path400"
         style="fill:#f33863;fill-opacity:1;fill-rule:evenodd;stroke:none;stroke-width:4.29452"
         d="m 306.44095,-47.550001 c -0.0817,-4.528142 -1.25866,-5.819567 -5.78636,-5.819567 -10.60618,0 -21.22955,0 -31.84862,0 -10.52455,0 -21.12643,0 -31.7498,0 -4.44608,0 -5.70473,1.291425 -5.70473,5.819567 0,11.655878 0.0472,23.562915 -0.16748,35.386231 0,3.3543554 0.92358,4.1086873 4.0251,3.9747361 4.44609,-0.2850748 4.532,-0.1176311 4.0294,-4.4444241 -1.73118,-15.043289 8.67309,-29.583407 23.48911,-32.484818 15.27134,-2.934899 30.54269,6.205105 34.73533,20.82937 1.25865,4.578375 1.62808,9.441824 0.67444,13.969967 -0.33507,1.6769629 0.0817,2.0122689 1.59371,2.0122689 6.70995,0.5031749 6.70995,0.6208111 6.70995,-6.3390569 0,-10.850884 0,-21.919438 0,-32.904274 z m -37.5018,50.5639022 c 10.15082,0 18.87548,-8.7544657 18.70794,-18.8673322 -0.0817,-10.364024 -8.72465,-18.950623 -19.04302,-18.783184 -10.23673,0.251587 -18.87976,8.854929 -18.62632,19.034771 0.24916,10.1965854 8.80628,18.6157452 18.9614,18.6157452 z m 27.85357,18.7492678 c 9.64823,0 9.64823,0 9.64823,-9.642751 0,-9.4422531 0,-9.4422531 -9.4807,-9.4422531 -9.56231,0 -9.56231,0 -9.56231,9.5594611 0,9.525543 0,9.525543 9.39478,9.525543 z m 7.88698,10.934604 c -23.82848,0 -47.73856,0 -71.56702,0 -8.52273,0 -12.92156,-4.443995 -12.92156,-12.997106 0,-11.7898287 0,-23.6131445 0,-35.554098 0,-11.823316 0,-23.864733 0,-35.805257 0,-8.217804 4.53199,-12.745947 12.50059,-12.745947 24.0819,0 47.99198,0 71.98799,0 8.30795,0 12.87002,4.528143 12.87002,12.879898 0,23.84799 0,47.6122595 0,71.527224 0,8.251291 -4.56207,12.695286 -12.87002,12.695286" /></g></g></svg>
