<?xml version="1.0" encoding="UTF-8" standalone="no"?>
<svg
   xmlns:dc="http://purl.org/dc/elements/1.1/"
   xmlns:cc="http://creativecommons.org/ns#"
   xmlns:rdf="http://www.w3.org/1999/02/22-rdf-syntax-ns#"
   xmlns:svg="http://www.w3.org/2000/svg"
   xmlns="http://www.w3.org/2000/svg"
   xmlns:sodipodi="http://sodipodi.sourceforge.net/DTD/sodipodi-0.dtd"
   xmlns:inkscape="http://www.inkscape.org/namespaces/inkscape"
   height="24"
   width="24"
   viewBox="0 0 23.999999 23.999999"
   version="1.1"
   id="svg8"
   sodipodi:docname="instagram.svg"
   inkscape:version="1.0 (6e3e5246a0, 2020-05-07)">
  <metadata
     id="metadata14">
    <rdf:RDF>
      <cc:Work
         rdf:about="">
        <dc:format>image/svg+xml</dc:format>
        <dc:type
           rdf:resource="http://purl.org/dc/dcmitype/StillImage" />
      </cc:Work>
    </rdf:RDF>
  </metadata>
  <defs
     id="defs12" />
  <sodipodi:namedview
     inkscape:document-rotation="0"
     pagecolor="#ffffff"
     bordercolor="#666666"
     borderopacity="1"
     objecttolerance="10"
     gridtolerance="10"
     guidetolerance="10"
     inkscape:pageopacity="0"
     inkscape:pageshadow="2"
     inkscape:window-width="1920"
     inkscape:window-height="1016"
     id="namedview10"
     showgrid="false"
     inkscape:zoom="0.84960775"
     inkscape:cx="227.93576"
     inkscape:cy="298.95206"
     inkscape:window-x="0"
     inkscape:window-y="27"
     inkscape:window-maximized="1"
     inkscape:current-layer="svg8" />
  <path
     inkscape:export-ydpi="96"
     inkscape:export-xdpi="96"
     d="M 17.503418,0 H 6.496582 C 2.9143067,0 0,2.9143067 0,6.496582 V 17.503601 C 0,21.085693 2.9143067,24 6.496582,24 H 17.503601 C 21.085694,24 24,21.085693 24,17.503601 V 6.496582 C 24,2.9143067 21.085694,0 17.503418,0 Z m 5.0896,17.503601 c 0,2.806274 -2.283142,5.089416 -5.0896,5.089416 H 6.496582 c -2.8064575,0 -5.0895996,-2.283142 -5.0895996,-5.089416 V 6.496582 c 0,-2.8064575 2.2831421,-5.0895996 5.0895996,-5.0895996 h 11.007019 c 2.806274,0 5.089416,2.2831421 5.089416,5.0895996 z m 0,0"
     id="path2"
     style="fill:#ffffff;fill-opacity:1;stroke-width:0.046875" />
  <path
     inkscape:export-ydpi="96"
     inkscape:export-xdpi="96"
     d="M 12,5.4376835 C 8.38147,5.4376835 5.437683,8.38147 5.437683,12 c 0,3.61853 2.943787,6.562317 6.562317,6.562317 3.61853,0 6.562317,-2.943787 6.562317,-6.562317 C 18.562317,8.38147 15.61853,5.4376835 12,5.4376835 Z M 12,17.155335 C 9.1574705,17.155334 6.8446655,14.842712 6.8446655,12 6.8446655,9.1574705 9.1574705,6.8446655 12,6.8446655 c 2.842713,0 5.155335,2.312805 5.155335,5.1553345 0,2.842713 -2.312622,5.155335 -5.155335,5.155335 z m 0,0"
     id="path4"
     style="fill:#ffffff;fill-opacity:1;stroke-width:0.046875" />
  <path
     inkscape:export-ydpi="96"
     inkscape:export-xdpi="96"
     d="m 18.719238,3.1071167 c -1.069336,0 -1.939087,0.8699341 -1.939087,1.9390868 0,1.069336 0.869751,1.93927 1.939087,1.93927 1.069336,0 1.93927,-0.869934 1.93927,-1.93927 0,-1.0693358 -0.869934,-1.9390868 -1.93927,-1.9390868 z m 0,2.4711918 c -0.293335,0 -0.532104,-0.23877 -0.532104,-0.532105 0,-0.2935177 0.238769,-0.5321044 0.532104,-0.5321044 0.293518,0 0.532288,0.2385867 0.532288,0.5321044 0,0.293335 -0.23877,0.532105 -0.532288,0.532105 z m 0,0"
     id="path6"
     style="fill:#ffffff;fill-opacity:1;stroke-width:0.046875" />
</svg>
