<?xml version="1.0" encoding="UTF-8" standalone="no"?>
<!-- Generator: Adobe Illustrator 16.0.0, SVG Export Plug-In . SVG Version: 6.00 Build 0)  -->

<svg
   xmlns:dc="http://purl.org/dc/elements/1.1/"
   xmlns:cc="http://creativecommons.org/ns#"
   xmlns:rdf="http://www.w3.org/1999/02/22-rdf-syntax-ns#"
   xmlns:svg="http://www.w3.org/2000/svg"
   xmlns="http://www.w3.org/2000/svg"
   xmlns:sodipodi="http://sodipodi.sourceforge.net/DTD/sodipodi-0.dtd"
   xmlns:inkscape="http://www.inkscape.org/namespaces/inkscape"
   version="1.1"
   id="Capa_1"
   x="0px"
   y="0px"
   width="21.850132"
   height="21.854017"
   viewBox="0 0 21.850132 21.854017"
   xml:space="preserve"
   sodipodi:docname="ring-phone-auricular-interface-symbol-with-lines-of-the-sound_white.svg"
   inkscape:version="0.92.4 (f8dce91, 2019-08-02)"><metadata
   id="metadata49"><rdf:RDF><cc:Work
       rdf:about=""><dc:format>image/svg+xml</dc:format><dc:type
         rdf:resource="http://purl.org/dc/dcmitype/StillImage" /><dc:title></dc:title></cc:Work></rdf:RDF></metadata><defs
   id="defs47" /><sodipodi:namedview
   pagecolor="#ffffff"
   bordercolor="#666666"
   borderopacity="1"
   objecttolerance="10"
   gridtolerance="10"
   guidetolerance="10"
   inkscape:pageopacity="0"
   inkscape:pageshadow="2"
   inkscape:window-width="1366"
   inkscape:window-height="713"
   id="namedview45"
   showgrid="false"
   inkscape:zoom="10.798938"
   inkscape:cx="10.925132"
   inkscape:cy="10.927016"
   inkscape:window-x="0"
   inkscape:window-y="27"
   inkscape:window-maximized="1"
   inkscape:current-layer="Capa_1" />
<g
   id="g12"
   style="fill:#ffffff"
   transform="translate(-0.00186759)">
	<g
   id="g10"
   style="fill:#ffffff">
		<path
   d="M 12.915,16.32 C 11.615,15.635 10.16,14.605 8.705,13.152 7.249,11.695 6.218,10.238 5.534,8.936 L 6.661,5.91 2.862,0 1.61,1.254 1.611,1.257 C 1.603,1.266 1.593,1.271 1.583,1.282 -1.575,4.439 0.126,10.903 5.54,16.317 c 5.414,5.413 11.877,7.113 15.036,3.957 0.009,-0.01 0.016,-0.02 0.024,-0.029 l 1.252,-1.254 -5.908,-3.799 z"
   id="path2"
   style="fill:#ffffff"
   inkscape:connector-curvature="0" />
		<path
   d="m 20.101,11.375 h 1.75 C 21.851,5.104 16.749,0 10.477,0 v 1.75 c 5.307,0 9.624,4.319 9.624,9.625 z"
   id="path4"
   style="fill:#ffffff"
   inkscape:connector-curvature="0" />
		<path
   d="m 16.601,11.375 h 1.75 C 18.351,7.032 14.82,3.5 10.476,3.5 v 1.75 c 3.377,0 6.125,2.748 6.125,6.125 z"
   id="path6"
   style="fill:#ffffff"
   inkscape:connector-curvature="0" />
		<path
   d="m 13.101,11.375 h 1.75 C 14.851,8.962 12.888,7 10.477,7 v 1.75 c 1.448,0 2.624,1.178 2.624,2.625 z"
   id="path8"
   style="fill:#ffffff"
   inkscape:connector-curvature="0" />
	</g>
</g>
<g
   id="g14"
   transform="translate(-0.00186759)">
</g>
<g
   id="g16"
   transform="translate(-0.00186759)">
</g>
<g
   id="g18"
   transform="translate(-0.00186759)">
</g>
<g
   id="g20"
   transform="translate(-0.00186759)">
</g>
<g
   id="g22"
   transform="translate(-0.00186759)">
</g>
<g
   id="g24"
   transform="translate(-0.00186759)">
</g>
<g
   id="g26"
   transform="translate(-0.00186759)">
</g>
<g
   id="g28"
   transform="translate(-0.00186759)">
</g>
<g
   id="g30"
   transform="translate(-0.00186759)">
</g>
<g
   id="g32"
   transform="translate(-0.00186759)">
</g>
<g
   id="g34"
   transform="translate(-0.00186759)">
</g>
<g
   id="g36"
   transform="translate(-0.00186759)">
</g>
<g
   id="g38"
   transform="translate(-0.00186759)">
</g>
<g
   id="g40"
   transform="translate(-0.00186759)">
</g>
<g
   id="g42"
   transform="translate(-0.00186759)">
</g>
</svg>