<?xml version="1.0" encoding="UTF-8" standalone="no"?>
<svg
   xmlns:dc="http://purl.org/dc/elements/1.1/"
   xmlns:cc="http://creativecommons.org/ns#"
   xmlns:rdf="http://www.w3.org/1999/02/22-rdf-syntax-ns#"
   xmlns:svg="http://www.w3.org/2000/svg"
   xmlns="http://www.w3.org/2000/svg"
   xmlns:sodipodi="http://sodipodi.sourceforge.net/DTD/sodipodi-0.dtd"
   xmlns:inkscape="http://www.inkscape.org/namespaces/inkscape"
   inkscape:version="1.0.1 (3bc2e813f5, 2020-09-07)"
   sodipodi:docname="upArrow.svg"
   viewBox="0 0 76.942025 88.351433"
   height="88.351433"
   width="76.942024"
   xml:space="preserve"
   id="svg2"
   version="1.1"><metadata
     id="metadata8"><rdf:RDF><cc:Work
         rdf:about=""><dc:format>image/svg+xml</dc:format><dc:type
           rdf:resource="http://purl.org/dc/dcmitype/StillImage" /><dc:title /></cc:Work></rdf:RDF></metadata><defs
     id="defs6"><clipPath
       id="clipPath38"
       clipPathUnits="userSpaceOnUse"><path
         id="path36"
         d="M 0,500 H 500 V 0 H 0 Z" /></clipPath><clipPath
       id="clipPath630"
       clipPathUnits="userSpaceOnUse"><path
         id="path628"
         d="M 0,500 H 500 V 0 H 0 Z" /></clipPath></defs><sodipodi:namedview
     inkscape:current-layer="g34"
     inkscape:window-maximized="1"
     inkscape:window-y="29"
     inkscape:window-x="0"
     inkscape:cy="179.34282"
     inkscape:cx="54.957439"
     inkscape:zoom="1.305"
     showgrid="false"
     id="namedview4"
     inkscape:window-height="1014"
     inkscape:window-width="1920"
     inkscape:pageshadow="2"
     inkscape:pageopacity="0"
     guidetolerance="10"
     gridtolerance="10"
     objecttolerance="10"
     borderopacity="1"
     bordercolor="#666666"
     pagecolor="#ffffff"
     inkscape:document-rotation="0" /><g
     transform="matrix(1.3333333,0,0,-1.3333333,-278.3759,512.67614)"
     inkscape:label="272308-P5MS3L-335"
     inkscape:groupmode="layer"
     id="g10"><g
       transform="translate(50.6712,461.0608)"
       id="g12"><path
         id="path14"
         style="fill:#fd6440;fill-opacity:1;fill-rule:nonzero;stroke:none"
         d="M 0,0 H -6.921 L 12.631,-24.917 -6.921,-49.833 H 0 l 19.553,24.916 z" /></g><g
       transform="translate(61.9182,461.0608)"
       id="g16"><path
         id="path18"
         style="fill:#fd6440;fill-opacity:1;fill-rule:nonzero;stroke:none"
         d="M 0,0 H -6.921 L 12.631,-24.917 -6.921,-49.833 H 0 l 19.553,24.916 z" /></g><g
       transform="translate(73.1653,461.0608)"
       id="g20"><path
         id="path22"
         style="fill:#fd6440;fill-opacity:1;fill-rule:nonzero;stroke:none"
         d="M 0,0 H -6.921 L 12.632,-24.917 -6.921,-49.833 H 0 l 19.553,24.916 z" /></g><g
       transform="translate(143.4173,458.2923)"
       id="g24"><path
         id="path26"
         style="fill:#1c1c1b;fill-opacity:1;fill-rule:nonzero;stroke:none"
         d="M 0,0 H -12.458 L 8.825,-22.148 -12.458,-44.296 H 0 l 21.283,22.148 z" /></g><g
       transform="translate(166.4309,458.2923)"
       id="g28"><path
         id="path30"
         style="fill:#1c1c1b;fill-opacity:1;fill-rule:nonzero;stroke:none"
         d="M 0,0 H -12.459 L 8.824,-22.148 -12.459,-44.296 H 0 l 21.283,22.148 z" /></g><g
       id="g32"><g
         clip-path="url(#clipPath38)"
         id="g34"><g
           transform="translate(230.7469,417.929)"
           id="g40"><path
             id="path42"
             style="fill:#fd6440;fill-opacity:1;fill-rule:nonzero;stroke:none"
             d="m 0,0 -0.121,36.479 c -0.021,6.479 7.803,9.699 12.4,5.102 l 18.299,-18.3 c 2.85,-2.85 2.865,-7.455 0.034,-10.286 L 12.433,-5.184 C 7.866,-9.75 0.021,-6.479 0,0" /></g><g
           transform="translate(361.7849,436.1443)"
           id="g44"><path
             id="path46"
             style="fill:#fd6440;fill-opacity:1;fill-rule:nonzero;stroke:none"
             d="M 0,0 -31.838,31.838 V 14.016 h -31.319 v -28.032 h 31.319 v -17.822 z" /></g><g
           transform="translate(462.5496,84.1043)"
           id="g48"><path
             id="path50"
             style="fill:#fd6440;fill-opacity:1;fill-rule:nonzero;stroke:none"
             d="m 0,0 -38.76,31.838 9.625,-17.822 h -28.659 v -28.032 h 28.659 l -9.625,-17.822 z" /></g><g
           transform="translate(313.0808,240.907)"
           id="g52"><path
             id="path54"
             style="fill:#fd6440;fill-opacity:1;fill-rule:nonzero;stroke:none"
             d="M 0,0 V 46.488 L 36.95,23.244 Z m 15.707,58.495 c -19.469,0 -35.252,-15.783 -35.252,-35.251 0,-19.47 15.783,-35.252 35.252,-35.252 19.469,0 35.251,15.782 35.251,35.252 0,19.468 -15.782,35.251 -35.251,35.251" /></g><g
           transform="translate(85.6917,351.3753)"
           id="g56"><path
             id="path58"
             style="fill:#fd6440;fill-opacity:1;fill-rule:nonzero;stroke:none"
             d="M 0,0 -46.604,31.838 -27.77,0 -46.604,-31.838 Z" /></g><g
           transform="translate(184.7522,84.1043)"
           id="g60"><path
             id="path62"
             style="fill:#fd6440;fill-opacity:1;fill-rule:nonzero;stroke:none"
             d="M 0,0 -71.495,25.648 -54.256,0 -71.495,-25.648 Z" /></g><g
           transform="translate(73.7586,286.0135)"
           id="g64"><path
             id="path66"
             style="fill:#1c1c1b;fill-opacity:1;fill-rule:nonzero;stroke:none"
             d="M 0,0 -4.993,-4.793 8.072,-18.402 h -45.521 v -6.921 H 8.072 L -4.993,-38.933 0,-43.726 20.344,-21.863 Z" /></g><g
           transform="translate(267.6189,193.0486)"
           id="g68"><path
             id="path70"
             style="fill:#1c1c1b;fill-opacity:1;fill-rule:nonzero;stroke:none"
             d="M 0,0 -10.951,-0.187 3.918,-15.676 h -51.809 v -7.878 H 3.918 l -14.869,-15.488 10.835,-0.303 18.002,19.731 z" /></g><g
           transform="translate(265.2244,264.1507)"
           id="g72"><path
             id="path74"
             style="fill:#1c1c1b;fill-opacity:1;fill-rule:nonzero;stroke:none"
             d="m 0,0 c -0.001,0.113 0.003,0.225 -0.002,0.338 -0.067,1.87 -0.771,3.728 -2.139,5.213 l -19.033,20.678 c -3.042,3.304 -8.187,3.517 -11.492,0.475 -3.304,-3.042 -3.517,-8.186 -0.475,-11.491 L -19.138,0 -33.141,-15.213 c -3.042,-3.304 -2.829,-8.45 0.475,-11.492 3.305,-3.042 8.45,-2.828 11.492,0.476 l 19.033,20.678 c 1.368,1.485 2.072,3.343 2.139,5.213 C 0.003,-0.225 -0.001,-0.113 0,0" /></g><g
           style="fill:#f4591e;fill-opacity:1"
           transform="rotate(90,-73.603612,310.90093)"
           id="g76"><path
             id="path78"
             style="fill:#f4591e;fill-opacity:1;fill-rule:nonzero;stroke:none"
             d="m 0,0 c -0.067,1.871 -0.771,3.728 -2.139,5.213 l -19.033,20.678 c -3.042,3.304 -8.187,3.517 -11.492,0.476 -3.304,-3.042 -3.517,-8.187 -0.475,-11.492 l 7.473,-8.118 h -33.501 c -3.918,0 -7.094,-3.176 -7.094,-7.095 0,-3.918 3.176,-7.094 7.094,-7.094 h 33.501 l -7.473,-8.119 c -3.042,-3.304 -2.829,-8.449 0.475,-11.491 3.305,-3.042 8.45,-2.829 11.492,0.476 l 19.033,20.677 c 1.368,1.486 2.072,3.343 2.139,5.214 0.005,0.112 0.001,0.225 0.002,0.337 C 0.001,-0.225 0.005,-0.112 0,0" /></g><g
           transform="translate(59.5652,59.616)"
           id="g80"><path
             id="path82"
             style="fill:#1c1c1b;fill-opacity:1;fill-rule:nonzero;stroke:none"
             d="M 0,0 H -20.478 L 5.196,25.674 -17.866,48.977 H 2.825 L 26.126,25.674 Z" /></g><g
           transform="translate(156.2122,371.1092)"
           id="g84"><path
             id="path86"
             style="fill:#1c1c1b;fill-opacity:1;fill-rule:nonzero;stroke:none"
             d="m 0,0 c -1.298,1.297 -3.402,1.297 -4.7,0 -1.298,-1.298 -1.298,-3.402 0,-4.701 l 14.266,-14.266 -15.8,-15.8 c -1.298,-1.298 -1.298,-3.402 0,-4.7 0.649,-0.649 1.5,-0.973 2.35,-0.973 0.85,0 1.701,0.324 2.35,0.973 l 20.5,20.5 z" /></g><g
           transform="translate(139.9734,371.1092)"
           id="g88"><path
             id="path90"
             style="fill:#1c1c1b;fill-opacity:1;fill-rule:nonzero;stroke:none"
             d="m 0,0 c -1.298,1.297 -3.402,1.297 -4.7,0 -1.298,-1.298 -1.298,-3.402 0,-4.701 l 14.266,-14.266 -15.8,-15.8 c -1.298,-1.298 -1.298,-3.402 0,-4.7 0.649,-0.649 1.5,-0.973 2.35,-0.973 0.85,0 1.701,0.324 2.35,0.973 l 20.5,20.5 z" /></g><g
           transform="translate(429.4109,382.4983)"
           id="g92"><path
             id="path94"
             style="fill:#1c1c1b;fill-opacity:1;fill-rule:nonzero;stroke:none"
             d="m 0,0 -14.801,-14.801 4.81,-4.809 h -32.645 v -20.932 h 32.645 l -6.903,-6.903 14.801,-14.801 32.169,32.17 z" /></g><g
           transform="translate(335.8328,201.9754)"
           id="g96"><path
             id="path98"
             style="fill:#1c1c1b;fill-opacity:1;fill-rule:nonzero;stroke:none"
             d="M 0,0 H -6.684 L -6.887,-0.181 17.252,-27.417 -9.143,-57.198 h 7.046 l 26.396,29.781 z" /></g><g
           transform="translate(323.2566,201.9754)"
           id="g100"><path
             id="path102"
             style="fill:#1c1c1b;fill-opacity:1;fill-rule:nonzero;stroke:none"
             d="m 0,0 h -6.684 l -0.203,-0.181 24.14,-27.236 -26.396,-29.781 h 7.047 L 24.3,-27.417 Z" /></g><g
           transform="translate(263.6638,87.9295)"
           id="g104"><path
             id="path106"
             style="fill:#1c1c1b;fill-opacity:1;fill-rule:nonzero;stroke:none"
             d="m 0,0 -23.014,22.896 c -2.032,2.023 -5.319,2.014 -7.341,-0.019 -2.022,-2.032 -2.013,-5.319 0.019,-7.341 l 19.46,-19.361 -19.46,-19.362 c -2.032,-2.021 -2.041,-5.308 -0.019,-7.34 2.022,-2.034 5.309,-2.042 7.341,-0.019 L 0,-7.65 C 1.057,-6.6 1.561,-5.206 1.522,-3.825 1.561,-2.444 1.057,-1.052 0,0" /></g><g
           transform="translate(237.2151,84.1043)"
           id="g108"><path
             id="path110"
             style="fill:#1c1c1b;fill-opacity:1;fill-rule:nonzero;stroke:none"
             d="m 0,0 c 0.039,1.386 -0.469,2.782 -1.532,3.835 l -11.558,11.44 c -2.038,2.017 -5.325,2 -7.341,-0.038 -2.017,-2.037 -2,-5.324 0.037,-7.341 L -12.416,0 -20.394,-7.896 c -2.037,-2.017 -2.054,-5.304 -0.037,-7.341 2.016,-2.038 5.303,-2.055 7.341,-0.038 l 11.558,11.44 C -0.469,-2.782 0.039,-1.386 0,0" /></g><g
           transform="translate(158.99,147.4871)"
           id="g112"><path
             id="path114"
             style="fill:#1c1c1b;fill-opacity:1;fill-rule:nonzero;stroke:none"
             d="M 0,0 H -17.995 V 51.778 H 0 L 23.36,25.889 Z" /></g><g
           transform="translate(436.1277,410.2547)"
           id="g116"><path
             id="path118"
             style="fill:#1c1c1b;fill-opacity:1;fill-rule:nonzero;stroke:none"
             d="m 0,0 h -39.188 l 21.192,25.89 -21.192,25.889 H 0 L 23.359,25.89 Z" /></g><g
           transform="translate(71.7811,199.2654)"
           id="g120"><path
             id="path122"
             style="fill:#fd6440;fill-opacity:1;fill-rule:nonzero;stroke:none"
             d="m 0,0 h -17.996 l 9.829,-12.307 h -21.249 v -27.166 h 21.249 l -9.829,-12.305 H 0 l 23.36,25.888 z" /></g><g
           transform="translate(414.7371,295.5096)"
           id="g124"><path
             id="path126"
             style="fill:#fd6440;fill-opacity:1;fill-rule:nonzero;stroke:none"
             d="m 0,0 c -2.766,0 -5.008,-2.242 -5.008,-5.008 0,-2.766 2.242,-5.008 5.008,-5.008 2.766,0 5.008,2.242 5.008,5.008 C 5.008,-2.242 2.766,0 0,0" /></g><g
           transform="translate(414.7371,282.3343)"
           id="g128"><path
             id="path130"
             style="fill:#fd6440;fill-opacity:1;fill-rule:nonzero;stroke:none"
             d="m 0,0 c -2.766,0 -5.008,-2.242 -5.008,-5.008 0,-2.766 2.242,-5.008 5.008,-5.008 2.766,0 5.008,2.242 5.008,5.008 C 5.008,-2.242 2.766,0 0,0" /></g><g
           transform="translate(414.7371,269.1585)"
           id="g132"><path
             id="path134"
             style="fill:#fd6440;fill-opacity:1;fill-rule:nonzero;stroke:none"
             d="m 0,0 c -2.766,0 -5.008,-2.242 -5.008,-5.008 0,-2.766 2.242,-5.008 5.008,-5.008 2.766,0 5.008,2.242 5.008,5.008 C 5.008,-2.242 2.766,0 0,0" /></g><g
           transform="translate(414.7371,255.9832)"
           id="g136"><path
             id="path138"
             style="fill:#fd6440;fill-opacity:1;fill-rule:nonzero;stroke:none"
             d="m 0,0 c -2.766,0 -5.008,-2.242 -5.008,-5.008 0,-2.765 2.242,-5.008 5.008,-5.008 2.766,0 5.008,2.243 5.008,5.008 C 5.008,-2.242 2.766,0 0,0" /></g><g
           transform="translate(414.7371,242.8074)"
           id="g140"><path
             id="path142"
             style="fill:#fd6440;fill-opacity:1;fill-rule:nonzero;stroke:none"
             d="m 0,0 c -2.766,0 -5.008,-2.242 -5.008,-5.008 0,-2.765 2.242,-5.008 5.008,-5.008 2.766,0 5.008,2.243 5.008,5.008 C 5.008,-2.242 2.766,0 0,0" /></g><g
           transform="translate(428.2137,282.3343)"
           id="g144"><path
             id="path146"
             style="fill:#fd6440;fill-opacity:1;fill-rule:nonzero;stroke:none"
             d="m 0,0 c -2.766,0 -5.008,-2.242 -5.008,-5.008 0,-2.766 2.242,-5.008 5.008,-5.008 2.766,0 5.008,2.242 5.008,5.008 C 5.008,-2.242 2.766,0 0,0" /></g><g
           transform="translate(428.2137,269.1585)"
           id="g148"><path
             id="path150"
             style="fill:#fd6440;fill-opacity:1;fill-rule:nonzero;stroke:none"
             d="m 0,0 c -2.766,0 -5.008,-2.242 -5.008,-5.008 0,-2.766 2.242,-5.008 5.008,-5.008 2.766,0 5.008,2.242 5.008,5.008 C 5.008,-2.242 2.766,0 0,0" /></g><g
           transform="translate(428.2137,255.9832)"
           id="g152"><path
             id="path154"
             style="fill:#fd6440;fill-opacity:1;fill-rule:nonzero;stroke:none"
             d="m 0,0 c -2.766,0 -5.008,-2.242 -5.008,-5.008 0,-2.765 2.242,-5.008 5.008,-5.008 2.766,0 5.008,2.243 5.008,5.008 C 5.008,-2.242 2.766,0 0,0" /></g><g
           transform="translate(441.6902,269.1585)"
           id="g156"><path
             id="path158"
             style="fill:#fd6440;fill-opacity:1;fill-rule:nonzero;stroke:none"
             d="m 0,0 c -2.766,0 -5.008,-2.242 -5.008,-5.008 0,-2.766 2.242,-5.008 5.008,-5.008 2.767,0 5.009,2.242 5.009,5.008 C 5.009,-2.242 2.767,0 0,0" /></g><g
           transform="translate(316.7371,382.3572)"
           id="g160"><path
             id="path162"
             style="fill:#fd6440;fill-opacity:1;fill-rule:nonzero;stroke:none"
             d="m 0,0 c -1.784,0 -3.23,-1.446 -3.23,-3.23 0,-1.784 1.446,-3.23 3.23,-3.23 1.783,0 3.229,1.446 3.229,3.23 C 3.229,-1.446 1.783,0 0,0" /></g><g
           transform="translate(316.7371,373.1067)"
           id="g164"><path
             id="path166"
             style="fill:#fd6440;fill-opacity:1;fill-rule:nonzero;stroke:none"
             d="m 0,0 c -1.784,0 -3.23,-1.446 -3.23,-3.23 0,-1.784 1.446,-3.23 3.23,-3.23 1.783,0 3.229,1.446 3.229,3.23 C 3.229,-1.446 1.783,0 0,0" /></g><g
           transform="translate(316.7371,363.8562)"
           id="g168"><path
             id="path170"
             style="fill:#fd6440;fill-opacity:1;fill-rule:nonzero;stroke:none"
             d="m 0,0 c -1.784,0 -3.23,-1.446 -3.23,-3.23 0,-1.784 1.446,-3.23 3.23,-3.23 1.783,0 3.229,1.446 3.229,3.23 C 3.229,-1.446 1.783,0 0,0" /></g><g
           transform="translate(316.7371,354.6053)"
           id="g172"><path
             id="path174"
             style="fill:#fd6440;fill-opacity:1;fill-rule:nonzero;stroke:none"
             d="m 0,0 c -1.784,0 -3.23,-1.446 -3.23,-3.23 0,-1.784 1.446,-3.23 3.23,-3.23 1.783,0 3.229,1.446 3.229,3.23 C 3.229,-1.446 1.783,0 0,0" /></g><g
           transform="translate(316.7371,345.3548)"
           id="g176"><path
             id="path178"
             style="fill:#fd6440;fill-opacity:1;fill-rule:nonzero;stroke:none"
             d="m 0,0 c -1.784,0 -3.23,-1.446 -3.23,-3.23 0,-1.784 1.446,-3.23 3.23,-3.23 1.783,0 3.229,1.446 3.229,3.23 C 3.229,-1.446 1.783,0 0,0" /></g><g
           transform="translate(316.7371,336.1043)"
           id="g180"><path
             id="path182"
             style="fill:#fd6440;fill-opacity:1;fill-rule:nonzero;stroke:none"
             d="m 0,0 c -1.784,0 -3.23,-1.446 -3.23,-3.23 0,-1.784 1.446,-3.23 3.23,-3.23 1.783,0 3.229,1.446 3.229,3.23 C 3.229,-1.446 1.783,0 0,0" /></g><g
           transform="translate(316.7371,326.8538)"
           id="g184"><path
             id="path186"
             style="fill:#fd6440;fill-opacity:1;fill-rule:nonzero;stroke:none"
             d="m 0,0 c -1.784,0 -3.23,-1.446 -3.23,-3.23 0,-1.784 1.446,-3.23 3.23,-3.23 1.783,0 3.229,1.446 3.229,3.23 C 3.229,-1.446 1.783,0 0,0" /></g><g
           transform="translate(325.5574,373.1067)"
           id="g188"><path
             id="path190"
             style="fill:#fd6440;fill-opacity:1;fill-rule:nonzero;stroke:none"
             d="m 0,0 c -1.784,0 -3.229,-1.446 -3.229,-3.23 0,-1.784 1.445,-3.23 3.229,-3.23 1.784,0 3.23,1.446 3.23,3.23 C 3.23,-1.446 1.784,0 0,0" /></g><g
           transform="translate(325.5574,363.8562)"
           id="g192"><path
             id="path194"
             style="fill:#fd6440;fill-opacity:1;fill-rule:nonzero;stroke:none"
             d="m 0,0 c -1.784,0 -3.229,-1.446 -3.229,-3.23 0,-1.784 1.445,-3.23 3.229,-3.23 1.784,0 3.23,1.446 3.23,3.23 C 3.23,-1.446 1.784,0 0,0" /></g><g
           transform="translate(325.5574,354.6053)"
           id="g196"><path
             id="path198"
             style="fill:#fd6440;fill-opacity:1;fill-rule:nonzero;stroke:none"
             d="m 0,0 c -1.784,0 -3.229,-1.446 -3.229,-3.23 0,-1.784 1.445,-3.23 3.229,-3.23 1.784,0 3.23,1.446 3.23,3.23 C 3.23,-1.446 1.784,0 0,0" /></g><g
           transform="translate(325.5574,345.3548)"
           id="g200"><path
             id="path202"
             style="fill:#fd6440;fill-opacity:1;fill-rule:nonzero;stroke:none"
             d="m 0,0 c -1.784,0 -3.229,-1.446 -3.229,-3.23 0,-1.784 1.445,-3.23 3.229,-3.23 1.784,0 3.23,1.446 3.23,3.23 C 3.23,-1.446 1.784,0 0,0" /></g><g
           transform="translate(325.5574,336.1043)"
           id="g204"><path
             id="path206"
             style="fill:#fd6440;fill-opacity:1;fill-rule:nonzero;stroke:none"
             d="m 0,0 c -1.784,0 -3.229,-1.446 -3.229,-3.23 0,-1.784 1.445,-3.23 3.229,-3.23 1.784,0 3.23,1.446 3.23,3.23 C 3.23,-1.446 1.784,0 0,0" /></g><g
           transform="translate(334.3777,363.8562)"
           id="g208"><path
             id="path210"
             style="fill:#fd6440;fill-opacity:1;fill-rule:nonzero;stroke:none"
             d="m 0,0 c -1.783,0 -3.229,-1.446 -3.229,-3.23 0,-1.784 1.446,-3.23 3.229,-3.23 1.784,0 3.23,1.446 3.23,3.23 C 3.23,-1.446 1.784,0 0,0" /></g><g
           transform="translate(334.3777,354.6053)"
           id="g212"><path
             id="path214"
             style="fill:#fd6440;fill-opacity:1;fill-rule:nonzero;stroke:none"
             d="m 0,0 c -1.783,0 -3.229,-1.446 -3.229,-3.23 0,-1.784 1.446,-3.23 3.229,-3.23 1.784,0 3.23,1.446 3.23,3.23 C 3.23,-1.446 1.784,0 0,0" /></g><g
           transform="translate(334.3777,345.3548)"
           id="g216"><path
             id="path218"
             style="fill:#fd6440;fill-opacity:1;fill-rule:nonzero;stroke:none"
             d="m 0,0 c -1.783,0 -3.229,-1.446 -3.229,-3.23 0,-1.784 1.446,-3.23 3.229,-3.23 1.784,0 3.23,1.446 3.23,3.23 C 3.23,-1.446 1.784,0 0,0" /></g><g
           transform="translate(343.199,354.6053)"
           id="g220"><path
             id="path222"
             style="fill:#fd6440;fill-opacity:1;fill-rule:nonzero;stroke:none"
             d="m 0,0 c -1.784,0 -3.23,-1.446 -3.23,-3.23 0,-1.784 1.446,-3.23 3.23,-3.23 1.783,0 3.229,1.446 3.229,3.23 C 3.229,-1.446 1.783,0 0,0" /></g><g
           transform="translate(438.6736,204.7)"
           id="g224"><path
             id="path226"
             style="fill:#fd6440;fill-opacity:1;fill-rule:nonzero;stroke:none"
             d="m 0,0 h -30.606 l 20.563,-31.324 -20.563,-31.324 H 0 l 20.564,31.324 z" /></g><g
           transform="translate(398.9803,204.7)"
           id="g228"><path
             id="path230"
             style="fill:#fd6440;fill-opacity:1;fill-rule:nonzero;stroke:none"
             d="M 0,0 H -11.956 L 8.608,-31.324 -11.956,-62.648 H 0 l 20.564,31.324 z" /></g><g
           transform="translate(126.033,288.7688)"
           id="g232"><path
             id="path234"
             style="fill:#fd6440;fill-opacity:1;fill-rule:nonzero;stroke:none"
             d="m 0,0 c -2.349,0 -4.253,-1.904 -4.253,-4.253 0,-2.35 1.904,-4.254 4.253,-4.254 2.349,0 4.253,1.904 4.253,4.254 C 4.253,-1.904 2.349,0 0,0" /></g><g
           transform="translate(145.3665,288.7688)"
           id="g236"><path
             id="path238"
             style="fill:#fd6440;fill-opacity:1;fill-rule:nonzero;stroke:none"
             d="m 0,0 c -2.349,0 -4.253,-1.904 -4.253,-4.253 0,-2.35 1.904,-4.254 4.253,-4.254 2.349,0 4.253,1.904 4.253,4.254 C 4.253,-1.904 2.349,0 0,0" /></g><g
           transform="translate(164.7005,288.7688)"
           id="g240"><path
             id="path242"
             style="fill:#fd6440;fill-opacity:1;fill-rule:nonzero;stroke:none"
             d="m 0,0 c -2.349,0 -4.253,-1.904 -4.253,-4.253 0,-2.35 1.904,-4.254 4.253,-4.254 2.349,0 4.253,1.904 4.253,4.254 C 4.253,-1.904 2.349,0 0,0" /></g><g
           transform="translate(184.034,288.7688)"
           id="g244"><path
             id="path246"
             style="fill:#fd6440;fill-opacity:1;fill-rule:nonzero;stroke:none"
             d="m 0,0 c -2.349,0 -4.253,-1.904 -4.253,-4.253 0,-2.35 1.904,-4.254 4.253,-4.254 2.349,0 4.253,1.904 4.253,4.254 C 4.253,-1.904 2.349,0 0,0" /></g><g
           transform="translate(135.5706,278.4578)"
           id="g248"><path
             id="path250"
             style="fill:#fd6440;fill-opacity:1;fill-rule:nonzero;stroke:none"
             d="m 0,0 c -2.349,0 -4.253,-1.904 -4.253,-4.253 0,-2.35 1.904,-4.254 4.253,-4.254 2.349,0 4.253,1.904 4.253,4.254 C 4.253,-1.904 2.349,0 0,0" /></g><g
           transform="translate(154.9046,278.4578)"
           id="g252"><path
             id="path254"
             style="fill:#fd6440;fill-opacity:1;fill-rule:nonzero;stroke:none"
             d="m 0,0 c -2.349,0 -4.253,-1.904 -4.253,-4.253 0,-2.35 1.904,-4.254 4.253,-4.254 2.349,0 4.253,1.904 4.253,4.254 C 4.253,-1.904 2.349,0 0,0" /></g><g
           transform="translate(174.2381,278.4578)"
           id="g256"><path
             id="path258"
             style="fill:#fd6440;fill-opacity:1;fill-rule:nonzero;stroke:none"
             d="m 0,0 c -2.349,0 -4.253,-1.904 -4.253,-4.253 0,-2.35 1.904,-4.254 4.253,-4.254 2.349,0 4.253,1.904 4.253,4.254 C 4.253,-1.904 2.349,0 0,0" /></g><g
           transform="translate(193.5721,278.4578)"
           id="g260"><path
             id="path262"
             style="fill:#fd6440;fill-opacity:1;fill-rule:nonzero;stroke:none"
             d="m 0,0 c -2.349,0 -4.253,-1.904 -4.253,-4.253 0,-2.35 1.904,-4.254 4.253,-4.254 2.349,0 4.253,1.904 4.253,4.254 C 4.253,-1.904 2.349,0 0,0" /></g><g
           transform="translate(145.3665,268.4041)"
           id="g264"><path
             id="path266"
             style="fill:#fd6440;fill-opacity:1;fill-rule:nonzero;stroke:none"
             d="m 0,0 c -2.349,0 -4.253,-1.904 -4.253,-4.253 0,-2.35 1.904,-4.254 4.253,-4.254 2.349,0 4.253,1.904 4.253,4.254 C 4.253,-1.904 2.349,0 0,0" /></g><g
           transform="translate(164.7005,268.4041)"
           id="g268"><path
             id="path270"
             style="fill:#fd6440;fill-opacity:1;fill-rule:nonzero;stroke:none"
             d="m 0,0 c -2.349,0 -4.253,-1.904 -4.253,-4.253 0,-2.35 1.904,-4.254 4.253,-4.254 2.349,0 4.253,1.904 4.253,4.254 C 4.253,-1.904 2.349,0 0,0" /></g><g
           transform="translate(184.034,268.4041)"
           id="g272"><path
             id="path274"
             style="fill:#fd6440;fill-opacity:1;fill-rule:nonzero;stroke:none"
             d="m 0,0 c -2.349,0 -4.253,-1.904 -4.253,-4.253 0,-2.35 1.904,-4.254 4.253,-4.254 2.349,0 4.253,1.904 4.253,4.254 C 4.253,-1.904 2.349,0 0,0" /></g><g
           transform="translate(203.368,268.4041)"
           id="g276"><path
             id="path278"
             style="fill:#fd6440;fill-opacity:1;fill-rule:nonzero;stroke:none"
             d="m 0,0 c -2.349,0 -4.253,-1.904 -4.253,-4.253 0,-2.35 1.904,-4.254 4.253,-4.254 2.349,0 4.253,1.904 4.253,4.254 C 4.253,-1.904 2.349,0 0,0" /></g><g
           transform="translate(135.5706,258.0926)"
           id="g280"><path
             id="path282"
             style="fill:#fd6440;fill-opacity:1;fill-rule:nonzero;stroke:none"
             d="m 0,0 c -2.349,0 -4.253,-1.904 -4.253,-4.253 0,-2.35 1.904,-4.254 4.253,-4.254 2.349,0 4.253,1.904 4.253,4.254 C 4.253,-1.904 2.349,0 0,0" /></g><g
           transform="translate(154.9046,258.0926)"
           id="g284"><path
             id="path286"
             style="fill:#fd6440;fill-opacity:1;fill-rule:nonzero;stroke:none"
             d="m 0,0 c -2.349,0 -4.253,-1.904 -4.253,-4.253 0,-2.35 1.904,-4.254 4.253,-4.254 2.349,0 4.253,1.904 4.253,4.254 C 4.253,-1.904 2.349,0 0,0" /></g><g
           transform="translate(174.2381,258.0926)"
           id="g288"><path
             id="path290"
             style="fill:#fd6440;fill-opacity:1;fill-rule:nonzero;stroke:none"
             d="m 0,0 c -2.349,0 -4.253,-1.904 -4.253,-4.253 0,-2.35 1.904,-4.254 4.253,-4.254 2.349,0 4.253,1.904 4.253,4.254 C 4.253,-1.904 2.349,0 0,0" /></g><g
           transform="translate(193.5721,258.0926)"
           id="g292"><path
             id="path294"
             style="fill:#fd6440;fill-opacity:1;fill-rule:nonzero;stroke:none"
             d="m 0,0 c -2.349,0 -4.253,-1.904 -4.253,-4.253 0,-2.35 1.904,-4.254 4.253,-4.254 2.349,0 4.253,1.904 4.253,4.254 C 4.253,-1.904 2.349,0 0,0" /></g><g
           transform="translate(126.033,248.0388)"
           id="g296"><path
             id="path298"
             style="fill:#fd6440;fill-opacity:1;fill-rule:nonzero;stroke:none"
             d="m 0,0 c -2.349,0 -4.253,-1.904 -4.253,-4.253 0,-2.35 1.904,-4.254 4.253,-4.254 2.349,0 4.253,1.904 4.253,4.254 C 4.253,-1.904 2.349,0 0,0" /></g><g
           transform="translate(145.3665,248.0388)"
           id="g300"><path
             id="path302"
             style="fill:#fd6440;fill-opacity:1;fill-rule:nonzero;stroke:none"
             d="m 0,0 c -2.349,0 -4.253,-1.904 -4.253,-4.253 0,-2.35 1.904,-4.254 4.253,-4.254 2.349,0 4.253,1.904 4.253,4.254 C 4.253,-1.904 2.349,0 0,0" /></g><g
           transform="translate(164.7005,248.0388)"
           id="g304"><path
             id="path306"
             style="fill:#fd6440;fill-opacity:1;fill-rule:nonzero;stroke:none"
             d="m 0,0 c -2.349,0 -4.253,-1.904 -4.253,-4.253 0,-2.35 1.904,-4.254 4.253,-4.254 2.349,0 4.253,1.904 4.253,4.254 C 4.253,-1.904 2.349,0 0,0" /></g><g
           transform="translate(184.034,248.0388)"
           id="g308"><path
             id="path310"
             style="fill:#fd6440;fill-opacity:1;fill-rule:nonzero;stroke:none"
             d="m 0,0 c -2.349,0 -4.253,-1.904 -4.253,-4.253 0,-2.35 1.904,-4.254 4.253,-4.254 2.349,0 4.253,1.904 4.253,4.254 C 4.253,-1.904 2.349,0 0,0" /></g><g
           transform="translate(389.0349,86.3641)"
           id="g312"><path
             id="path314"
             style="fill:#fd6440;fill-opacity:1;fill-rule:nonzero;stroke:none"
             d="m 0,0 c -1.248,0 -2.26,-1.012 -2.26,-2.26 0,-1.248 1.012,-2.26 2.26,-2.26 1.248,0 2.26,1.012 2.26,2.26 C 2.26,-1.012 1.248,0 0,0" /></g><g
           transform="translate(381.0008,93.6697)"
           id="g316"><path
             id="path318"
             style="fill:#fd6440;fill-opacity:1;fill-rule:nonzero;stroke:none"
             d="m 0,0 c -1.248,0 -2.259,-1.012 -2.259,-2.26 0,-1.248 1.011,-2.26 2.259,-2.26 1.248,0 2.26,1.012 2.26,2.26 C 2.26,-1.012 1.248,0 0,0" /></g><g
           transform="translate(381.0008,86.3641)"
           id="g320"><path
             id="path322"
             style="fill:#fd6440;fill-opacity:1;fill-rule:nonzero;stroke:none"
             d="m 0,0 c -1.248,0 -2.259,-1.012 -2.259,-2.26 0,-1.248 1.011,-2.26 2.259,-2.26 1.248,0 2.26,1.012 2.26,2.26 C 2.26,-1.012 1.248,0 0,0" /></g><g
           transform="translate(381.0008,79.0584)"
           id="g324"><path
             id="path326"
             style="fill:#fd6440;fill-opacity:1;fill-rule:nonzero;stroke:none"
             d="m 0,0 c -1.248,0 -2.259,-1.012 -2.259,-2.26 0,-1.248 1.011,-2.26 2.259,-2.26 1.248,0 2.26,1.012 2.26,2.26 C 2.26,-1.012 1.248,0 0,0" /></g><g
           transform="translate(372.9676,100.9754)"
           id="g328"><path
             id="path330"
             style="fill:#fd6440;fill-opacity:1;fill-rule:nonzero;stroke:none"
             d="m 0,0 c -1.248,0 -2.26,-1.012 -2.26,-2.26 0,-1.247 1.012,-2.259 2.26,-2.259 1.247,0 2.259,1.012 2.259,2.259 C 2.259,-1.012 1.247,0 0,0" /></g><g
           transform="translate(372.9676,93.6697)"
           id="g332"><path
             id="path334"
             style="fill:#fd6440;fill-opacity:1;fill-rule:nonzero;stroke:none"
             d="m 0,0 c -1.248,0 -2.26,-1.012 -2.26,-2.26 0,-1.248 1.012,-2.26 2.26,-2.26 1.247,0 2.259,1.012 2.259,2.26 C 2.259,-1.012 1.247,0 0,0" /></g><g
           transform="translate(372.9676,86.3641)"
           id="g336"><path
             id="path338"
             style="fill:#fd6440;fill-opacity:1;fill-rule:nonzero;stroke:none"
             d="m 0,0 c -1.248,0 -2.26,-1.012 -2.26,-2.26 0,-1.248 1.012,-2.26 2.26,-2.26 1.247,0 2.259,1.012 2.259,2.26 C 2.259,-1.012 1.247,0 0,0" /></g><g
           transform="translate(372.9676,79.0584)"
           id="g340"><path
             id="path342"
             style="fill:#fd6440;fill-opacity:1;fill-rule:nonzero;stroke:none"
             d="m 0,0 c -1.248,0 -2.26,-1.012 -2.26,-2.26 0,-1.248 1.012,-2.26 2.26,-2.26 1.247,0 2.259,1.012 2.259,2.26 C 2.259,-1.012 1.247,0 0,0" /></g><g
           transform="translate(372.9676,71.7518)"
           id="g344"><path
             id="path346"
             style="fill:#fd6440;fill-opacity:1;fill-rule:nonzero;stroke:none"
             d="m 0,0 c -1.248,0 -2.26,-1.012 -2.26,-2.259 0,-1.248 1.012,-2.26 2.26,-2.26 1.247,0 2.259,1.012 2.259,2.26 C 2.259,-1.012 1.247,0 0,0" /></g><g
           transform="translate(364.9334,108.2811)"
           id="g348"><path
             id="path350"
             style="fill:#fd6440;fill-opacity:1;fill-rule:nonzero;stroke:none"
             d="m 0,0 c -1.248,0 -2.26,-1.012 -2.26,-2.259 0,-1.248 1.012,-2.26 2.26,-2.26 1.248,0 2.26,1.012 2.26,2.26 C 2.26,-1.012 1.248,0 0,0" /></g><g
           transform="translate(364.9334,100.9754)"
           id="g352"><path
             id="path354"
             style="fill:#fd6440;fill-opacity:1;fill-rule:nonzero;stroke:none"
             d="m 0,0 c -1.248,0 -2.26,-1.012 -2.26,-2.26 0,-1.247 1.012,-2.259 2.26,-2.259 1.248,0 2.26,1.012 2.26,2.259 C 2.26,-1.012 1.248,0 0,0" /></g><g
           transform="translate(364.9334,93.6697)"
           id="g356"><path
             id="path358"
             style="fill:#fd6440;fill-opacity:1;fill-rule:nonzero;stroke:none"
             d="m 0,0 c -1.248,0 -2.26,-1.012 -2.26,-2.26 0,-1.248 1.012,-2.26 2.26,-2.26 1.248,0 2.26,1.012 2.26,2.26 C 2.26,-1.012 1.248,0 0,0" /></g><g
           transform="translate(364.9334,86.3641)"
           id="g360"><path
             id="path362"
             style="fill:#fd6440;fill-opacity:1;fill-rule:nonzero;stroke:none"
             d="m 0,0 c -1.248,0 -2.26,-1.012 -2.26,-2.26 0,-1.248 1.012,-2.26 2.26,-2.26 1.248,0 2.26,1.012 2.26,2.26 C 2.26,-1.012 1.248,0 0,0" /></g><g
           transform="translate(364.9334,79.0584)"
           id="g364"><path
             id="path366"
             style="fill:#fd6440;fill-opacity:1;fill-rule:nonzero;stroke:none"
             d="m 0,0 c -1.248,0 -2.26,-1.012 -2.26,-2.26 0,-1.248 1.012,-2.26 2.26,-2.26 1.248,0 2.26,1.012 2.26,2.26 C 2.26,-1.012 1.248,0 0,0" /></g><g
           transform="translate(364.9334,71.7518)"
           id="g368"><path
             id="path370"
             style="fill:#fd6440;fill-opacity:1;fill-rule:nonzero;stroke:none"
             d="m 0,0 c -1.248,0 -2.26,-1.012 -2.26,-2.259 0,-1.248 1.012,-2.26 2.26,-2.26 1.248,0 2.26,1.012 2.26,2.26 C 2.26,-1.012 1.248,0 0,0" /></g><g
           transform="translate(364.9334,64.4461)"
           id="g372"><path
             id="path374"
             style="fill:#fd6440;fill-opacity:1;fill-rule:nonzero;stroke:none"
             d="m 0,0 c -1.248,0 -2.26,-1.012 -2.26,-2.26 0,-1.248 1.012,-2.259 2.26,-2.259 1.248,0 2.26,1.011 2.26,2.259 C 2.26,-1.012 1.248,0 0,0" /></g><g
           transform="translate(356.8992,115.5877)"
           id="g376"><path
             id="path378"
             style="fill:#fd6440;fill-opacity:1;fill-rule:nonzero;stroke:none"
             d="m 0,0 c -1.248,0 -2.26,-1.012 -2.26,-2.26 0,-1.248 1.012,-2.26 2.26,-2.26 1.248,0 2.26,1.012 2.26,2.26 C 2.26,-1.012 1.248,0 0,0" /></g><g
           transform="translate(356.8992,108.2811)"
           id="g380"><path
             id="path382"
             style="fill:#fd6440;fill-opacity:1;fill-rule:nonzero;stroke:none"
             d="m 0,0 c -1.248,0 -2.26,-1.012 -2.26,-2.259 0,-1.248 1.012,-2.26 2.26,-2.26 1.248,0 2.26,1.012 2.26,2.26 C 2.26,-1.012 1.248,0 0,0" /></g><g
           transform="translate(356.8992,100.9754)"
           id="g384"><path
             id="path386"
             style="fill:#fd6440;fill-opacity:1;fill-rule:nonzero;stroke:none"
             d="m 0,0 c -1.248,0 -2.26,-1.012 -2.26,-2.26 0,-1.247 1.012,-2.259 2.26,-2.259 1.248,0 2.26,1.012 2.26,2.259 C 2.26,-1.012 1.248,0 0,0" /></g><g
           transform="translate(356.8992,93.6697)"
           id="g388"><path
             id="path390"
             style="fill:#fd6440;fill-opacity:1;fill-rule:nonzero;stroke:none"
             d="m 0,0 c -1.248,0 -2.26,-1.012 -2.26,-2.26 0,-1.248 1.012,-2.26 2.26,-2.26 1.248,0 2.26,1.012 2.26,2.26 C 2.26,-1.012 1.248,0 0,0" /></g><g
           transform="translate(356.8992,86.3641)"
           id="g392"><path
             id="path394"
             style="fill:#fd6440;fill-opacity:1;fill-rule:nonzero;stroke:none"
             d="m 0,0 c -1.248,0 -2.26,-1.012 -2.26,-2.26 0,-1.248 1.012,-2.26 2.26,-2.26 1.248,0 2.26,1.012 2.26,2.26 C 2.26,-1.012 1.248,0 0,0" /></g><g
           transform="translate(356.8992,79.0584)"
           id="g396"><path
             id="path398"
             style="fill:#fd6440;fill-opacity:1;fill-rule:nonzero;stroke:none"
             d="m 0,0 c -1.248,0 -2.26,-1.012 -2.26,-2.26 0,-1.248 1.012,-2.26 2.26,-2.26 1.248,0 2.26,1.012 2.26,2.26 C 2.26,-1.012 1.248,0 0,0" /></g><g
           transform="translate(356.8992,71.7518)"
           id="g400"><path
             id="path402"
             style="fill:#fd6440;fill-opacity:1;fill-rule:nonzero;stroke:none"
             d="m 0,0 c -1.248,0 -2.26,-1.012 -2.26,-2.259 0,-1.248 1.012,-2.26 2.26,-2.26 1.248,0 2.26,1.012 2.26,2.26 C 2.26,-1.012 1.248,0 0,0" /></g><g
           transform="translate(356.8992,64.4461)"
           id="g404"><path
             id="path406"
             style="fill:#fd6440;fill-opacity:1;fill-rule:nonzero;stroke:none"
             d="m 0,0 c -1.248,0 -2.26,-1.012 -2.26,-2.26 0,-1.248 1.012,-2.259 2.26,-2.259 1.248,0 2.26,1.011 2.26,2.259 C 2.26,-1.012 1.248,0 0,0" /></g><g
           transform="translate(356.8992,57.1404)"
           id="g408"><path
             id="path410"
             style="fill:#fd6440;fill-opacity:1;fill-rule:nonzero;stroke:none"
             d="m 0,0 c -1.248,0 -2.26,-1.012 -2.26,-2.26 0,-1.248 1.012,-2.26 2.26,-2.26 1.248,0 2.26,1.012 2.26,2.26 C 2.26,-1.012 1.248,0 0,0" /></g><g
           transform="translate(348.865,122.8934)"
           id="g412"><path
             id="path414"
             style="fill:#fd6440;fill-opacity:1;fill-rule:nonzero;stroke:none"
             d="m 0,0 c -1.248,0 -2.26,-1.012 -2.26,-2.26 0,-1.248 1.012,-2.26 2.26,-2.26 1.248,0 2.26,1.012 2.26,2.26 C 2.26,-1.012 1.248,0 0,0" /></g><g
           transform="translate(348.865,115.5877)"
           id="g416"><path
             id="path418"
             style="fill:#fd6440;fill-opacity:1;fill-rule:nonzero;stroke:none"
             d="m 0,0 c -1.248,0 -2.26,-1.012 -2.26,-2.26 0,-1.248 1.012,-2.26 2.26,-2.26 1.248,0 2.26,1.012 2.26,2.26 C 2.26,-1.012 1.248,0 0,0" /></g><g
           transform="translate(348.865,108.2811)"
           id="g420"><path
             id="path422"
             style="fill:#fd6440;fill-opacity:1;fill-rule:nonzero;stroke:none"
             d="m 0,0 c -1.248,0 -2.26,-1.012 -2.26,-2.259 0,-1.248 1.012,-2.26 2.26,-2.26 1.248,0 2.26,1.012 2.26,2.26 C 2.26,-1.012 1.248,0 0,0" /></g><g
           transform="translate(348.865,100.9754)"
           id="g424"><path
             id="path426"
             style="fill:#fd6440;fill-opacity:1;fill-rule:nonzero;stroke:none"
             d="m 0,0 c -1.248,0 -2.26,-1.012 -2.26,-2.26 0,-1.247 1.012,-2.259 2.26,-2.259 1.248,0 2.26,1.012 2.26,2.259 C 2.26,-1.012 1.248,0 0,0" /></g><g
           transform="translate(348.865,93.6697)"
           id="g428"><path
             id="path430"
             style="fill:#fd6440;fill-opacity:1;fill-rule:nonzero;stroke:none"
             d="m 0,0 c -1.248,0 -2.26,-1.012 -2.26,-2.26 0,-1.248 1.012,-2.26 2.26,-2.26 1.248,0 2.26,1.012 2.26,2.26 C 2.26,-1.012 1.248,0 0,0" /></g><g
           transform="translate(348.865,86.3641)"
           id="g432"><path
             id="path434"
             style="fill:#fd6440;fill-opacity:1;fill-rule:nonzero;stroke:none"
             d="m 0,0 c -1.248,0 -2.26,-1.012 -2.26,-2.26 0,-1.248 1.012,-2.26 2.26,-2.26 1.248,0 2.26,1.012 2.26,2.26 C 2.26,-1.012 1.248,0 0,0" /></g><g
           transform="translate(348.865,79.0584)"
           id="g436"><path
             id="path438"
             style="fill:#fd6440;fill-opacity:1;fill-rule:nonzero;stroke:none"
             d="m 0,0 c -1.248,0 -2.26,-1.012 -2.26,-2.26 0,-1.248 1.012,-2.26 2.26,-2.26 1.248,0 2.26,1.012 2.26,2.26 C 2.26,-1.012 1.248,0 0,0" /></g><g
           transform="translate(348.865,71.7518)"
           id="g440"><path
             id="path442"
             style="fill:#fd6440;fill-opacity:1;fill-rule:nonzero;stroke:none"
             d="m 0,0 c -1.248,0 -2.26,-1.012 -2.26,-2.259 0,-1.248 1.012,-2.26 2.26,-2.26 1.248,0 2.26,1.012 2.26,2.26 C 2.26,-1.012 1.248,0 0,0" /></g><g
           transform="translate(348.865,64.4461)"
           id="g444"><path
             id="path446"
             style="fill:#fd6440;fill-opacity:1;fill-rule:nonzero;stroke:none"
             d="m 0,0 c -1.248,0 -2.26,-1.012 -2.26,-2.26 0,-1.248 1.012,-2.259 2.26,-2.259 1.248,0 2.26,1.011 2.26,2.259 C 2.26,-1.012 1.248,0 0,0" /></g><g
           transform="translate(348.865,57.1404)"
           id="g448"><path
             id="path450"
             style="fill:#fd6440;fill-opacity:1;fill-rule:nonzero;stroke:none"
             d="m 0,0 c -1.248,0 -2.26,-1.012 -2.26,-2.26 0,-1.248 1.012,-2.26 2.26,-2.26 1.248,0 2.26,1.012 2.26,2.26 C 2.26,-1.012 1.248,0 0,0" /></g><g
           transform="translate(348.865,49.8347)"
           id="g452"><path
             id="path454"
             style="fill:#fd6440;fill-opacity:1;fill-rule:nonzero;stroke:none"
             d="m 0,0 c -1.248,0 -2.26,-1.012 -2.26,-2.26 0,-1.248 1.012,-2.26 2.26,-2.26 1.248,0 2.26,1.012 2.26,2.26 C 2.26,-1.012 1.248,0 0,0" /></g><g
           transform="translate(340.8308,108.2811)"
           id="g456"><path
             id="path458"
             style="fill:#fd6440;fill-opacity:1;fill-rule:nonzero;stroke:none"
             d="m 0,0 c -1.247,0 -2.259,-1.012 -2.259,-2.259 0,-1.248 1.012,-2.26 2.259,-2.26 1.248,0 2.26,1.012 2.26,2.26 C 2.26,-1.012 1.248,0 0,0" /></g><g
           transform="translate(340.8308,100.9754)"
           id="g460"><path
             id="path462"
             style="fill:#fd6440;fill-opacity:1;fill-rule:nonzero;stroke:none"
             d="m 0,0 c -1.247,0 -2.259,-1.012 -2.259,-2.26 0,-1.247 1.012,-2.259 2.259,-2.259 1.248,0 2.26,1.012 2.26,2.259 C 2.26,-1.012 1.248,0 0,0" /></g><g
           transform="translate(340.8308,93.6697)"
           id="g464"><path
             id="path466"
             style="fill:#fd6440;fill-opacity:1;fill-rule:nonzero;stroke:none"
             d="m 0,0 c -1.247,0 -2.259,-1.012 -2.259,-2.26 0,-1.248 1.012,-2.26 2.259,-2.26 1.248,0 2.26,1.012 2.26,2.26 C 2.26,-1.012 1.248,0 0,0" /></g><g
           transform="translate(340.8308,86.3641)"
           id="g468"><path
             id="path470"
             style="fill:#fd6440;fill-opacity:1;fill-rule:nonzero;stroke:none"
             d="m 0,0 c -1.247,0 -2.259,-1.012 -2.259,-2.26 0,-1.248 1.012,-2.26 2.259,-2.26 1.248,0 2.26,1.012 2.26,2.26 C 2.26,-1.012 1.248,0 0,0" /></g><g
           transform="translate(340.8308,79.0584)"
           id="g472"><path
             id="path474"
             style="fill:#fd6440;fill-opacity:1;fill-rule:nonzero;stroke:none"
             d="m 0,0 c -1.247,0 -2.259,-1.012 -2.259,-2.26 0,-1.248 1.012,-2.26 2.259,-2.26 1.248,0 2.26,1.012 2.26,2.26 C 2.26,-1.012 1.248,0 0,0" /></g><g
           transform="translate(340.8308,71.7518)"
           id="g476"><path
             id="path478"
             style="fill:#fd6440;fill-opacity:1;fill-rule:nonzero;stroke:none"
             d="m 0,0 c -1.247,0 -2.259,-1.012 -2.259,-2.259 0,-1.248 1.012,-2.26 2.259,-2.26 1.248,0 2.26,1.012 2.26,2.26 C 2.26,-1.012 1.248,0 0,0" /></g><g
           transform="translate(340.8308,64.4461)"
           id="g480"><path
             id="path482"
             style="fill:#fd6440;fill-opacity:1;fill-rule:nonzero;stroke:none"
             d="m 0,0 c -1.247,0 -2.259,-1.012 -2.259,-2.26 0,-1.248 1.012,-2.259 2.259,-2.259 1.248,0 2.26,1.011 2.26,2.259 C 2.26,-1.012 1.248,0 0,0" /></g><g
           transform="translate(332.7976,108.2811)"
           id="g484"><path
             id="path486"
             style="fill:#fd6440;fill-opacity:1;fill-rule:nonzero;stroke:none"
             d="m 0,0 c -1.248,0 -2.26,-1.012 -2.26,-2.259 0,-1.248 1.012,-2.26 2.26,-2.26 1.248,0 2.259,1.012 2.259,2.26 C 2.259,-1.012 1.248,0 0,0" /></g><g
           transform="translate(332.7976,100.9754)"
           id="g488"><path
             id="path490"
             style="fill:#fd6440;fill-opacity:1;fill-rule:nonzero;stroke:none"
             d="m 0,0 c -1.248,0 -2.26,-1.012 -2.26,-2.26 0,-1.247 1.012,-2.259 2.26,-2.259 1.248,0 2.259,1.012 2.259,2.259 C 2.259,-1.012 1.248,0 0,0" /></g><g
           transform="translate(332.7976,93.6697)"
           id="g492"><path
             id="path494"
             style="fill:#fd6440;fill-opacity:1;fill-rule:nonzero;stroke:none"
             d="m 0,0 c -1.248,0 -2.26,-1.012 -2.26,-2.26 0,-1.248 1.012,-2.26 2.26,-2.26 1.248,0 2.259,1.012 2.259,2.26 C 2.259,-1.012 1.248,0 0,0" /></g><g
           transform="translate(332.7976,86.3641)"
           id="g496"><path
             id="path498"
             style="fill:#fd6440;fill-opacity:1;fill-rule:nonzero;stroke:none"
             d="m 0,0 c -1.248,0 -2.26,-1.012 -2.26,-2.26 0,-1.248 1.012,-2.26 2.26,-2.26 1.248,0 2.259,1.012 2.259,2.26 C 2.259,-1.012 1.248,0 0,0" /></g><g
           transform="translate(332.7976,79.0584)"
           id="g500"><path
             id="path502"
             style="fill:#fd6440;fill-opacity:1;fill-rule:nonzero;stroke:none"
             d="m 0,0 c -1.248,0 -2.26,-1.012 -2.26,-2.26 0,-1.248 1.012,-2.26 2.26,-2.26 1.248,0 2.259,1.012 2.259,2.26 C 2.259,-1.012 1.248,0 0,0" /></g><g
           transform="translate(332.7976,71.7518)"
           id="g504"><path
             id="path506"
             style="fill:#fd6440;fill-opacity:1;fill-rule:nonzero;stroke:none"
             d="m 0,0 c -1.248,0 -2.26,-1.012 -2.26,-2.259 0,-1.248 1.012,-2.26 2.26,-2.26 1.248,0 2.259,1.012 2.259,2.26 C 2.259,-1.012 1.248,0 0,0" /></g><g
           transform="translate(332.7976,64.4461)"
           id="g508"><path
             id="path510"
             style="fill:#fd6440;fill-opacity:1;fill-rule:nonzero;stroke:none"
             d="m 0,0 c -1.248,0 -2.26,-1.012 -2.26,-2.26 0,-1.248 1.012,-2.259 2.26,-2.259 1.248,0 2.259,1.011 2.259,2.259 C 2.259,-1.012 1.248,0 0,0" /></g><g
           transform="translate(324.7635,108.2811)"
           id="g512"><path
             id="path514"
             style="fill:#fd6440;fill-opacity:1;fill-rule:nonzero;stroke:none"
             d="m 0,0 c -1.248,0 -2.26,-1.012 -2.26,-2.259 0,-1.248 1.012,-2.26 2.26,-2.26 1.248,0 2.26,1.012 2.26,2.26 C 2.26,-1.012 1.248,0 0,0" /></g><g
           transform="translate(324.7635,100.9754)"
           id="g516"><path
             id="path518"
             style="fill:#fd6440;fill-opacity:1;fill-rule:nonzero;stroke:none"
             d="m 0,0 c -1.248,0 -2.26,-1.012 -2.26,-2.26 0,-1.247 1.012,-2.259 2.26,-2.259 1.248,0 2.26,1.012 2.26,2.259 C 2.26,-1.012 1.248,0 0,0" /></g><g
           transform="translate(324.7635,93.6697)"
           id="g520"><path
             id="path522"
             style="fill:#fd6440;fill-opacity:1;fill-rule:nonzero;stroke:none"
             d="m 0,0 c -1.248,0 -2.26,-1.012 -2.26,-2.26 0,-1.248 1.012,-2.26 2.26,-2.26 1.248,0 2.26,1.012 2.26,2.26 C 2.26,-1.012 1.248,0 0,0" /></g><g
           transform="translate(324.7635,86.3641)"
           id="g524"><path
             id="path526"
             style="fill:#fd6440;fill-opacity:1;fill-rule:nonzero;stroke:none"
             d="m 0,0 c -1.248,0 -2.26,-1.012 -2.26,-2.26 0,-1.248 1.012,-2.26 2.26,-2.26 1.248,0 2.26,1.012 2.26,2.26 C 2.26,-1.012 1.248,0 0,0" /></g><g
           transform="translate(324.7635,79.0584)"
           id="g528"><path
             id="path530"
             style="fill:#fd6440;fill-opacity:1;fill-rule:nonzero;stroke:none"
             d="m 0,0 c -1.248,0 -2.26,-1.012 -2.26,-2.26 0,-1.248 1.012,-2.26 2.26,-2.26 1.248,0 2.26,1.012 2.26,2.26 C 2.26,-1.012 1.248,0 0,0" /></g><g
           transform="translate(324.7635,71.7518)"
           id="g532"><path
             id="path534"
             style="fill:#fd6440;fill-opacity:1;fill-rule:nonzero;stroke:none"
             d="m 0,0 c -1.248,0 -2.26,-1.012 -2.26,-2.259 0,-1.248 1.012,-2.26 2.26,-2.26 1.248,0 2.26,1.012 2.26,2.26 C 2.26,-1.012 1.248,0 0,0" /></g><g
           transform="translate(324.7635,64.4461)"
           id="g536"><path
             id="path538"
             style="fill:#fd6440;fill-opacity:1;fill-rule:nonzero;stroke:none"
             d="m 0,0 c -1.248,0 -2.26,-1.012 -2.26,-2.26 0,-1.248 1.012,-2.259 2.26,-2.259 1.248,0 2.26,1.011 2.26,2.259 C 2.26,-1.012 1.248,0 0,0" /></g><g
           transform="translate(316.7293,108.2811)"
           id="g540"><path
             id="path542"
             style="fill:#fd6440;fill-opacity:1;fill-rule:nonzero;stroke:none"
             d="m 0,0 c -1.248,0 -2.26,-1.012 -2.26,-2.259 0,-1.248 1.012,-2.26 2.26,-2.26 1.248,0 2.26,1.012 2.26,2.26 C 2.26,-1.012 1.248,0 0,0" /></g><g
           transform="translate(316.7293,100.9754)"
           id="g544"><path
             id="path546"
             style="fill:#fd6440;fill-opacity:1;fill-rule:nonzero;stroke:none"
             d="m 0,0 c -1.248,0 -2.26,-1.012 -2.26,-2.26 0,-1.247 1.012,-2.259 2.26,-2.259 1.248,0 2.26,1.012 2.26,2.259 C 2.26,-1.012 1.248,0 0,0" /></g><g
           transform="translate(316.7293,93.6697)"
           id="g548"><path
             id="path550"
             style="fill:#fd6440;fill-opacity:1;fill-rule:nonzero;stroke:none"
             d="m 0,0 c -1.248,0 -2.26,-1.012 -2.26,-2.26 0,-1.248 1.012,-2.26 2.26,-2.26 1.248,0 2.26,1.012 2.26,2.26 C 2.26,-1.012 1.248,0 0,0" /></g><g
           transform="translate(316.7293,86.3641)"
           id="g552"><path
             id="path554"
             style="fill:#fd6440;fill-opacity:1;fill-rule:nonzero;stroke:none"
             d="m 0,0 c -1.248,0 -2.26,-1.012 -2.26,-2.26 0,-1.248 1.012,-2.26 2.26,-2.26 1.248,0 2.26,1.012 2.26,2.26 C 2.26,-1.012 1.248,0 0,0" /></g><g
           transform="translate(316.7293,79.0584)"
           id="g556"><path
             id="path558"
             style="fill:#fd6440;fill-opacity:1;fill-rule:nonzero;stroke:none"
             d="m 0,0 c -1.248,0 -2.26,-1.012 -2.26,-2.26 0,-1.248 1.012,-2.26 2.26,-2.26 1.248,0 2.26,1.012 2.26,2.26 C 2.26,-1.012 1.248,0 0,0" /></g><g
           transform="translate(316.7293,71.7518)"
           id="g560"><path
             id="path562"
             style="fill:#fd6440;fill-opacity:1;fill-rule:nonzero;stroke:none"
             d="m 0,0 c -1.248,0 -2.26,-1.012 -2.26,-2.259 0,-1.248 1.012,-2.26 2.26,-2.26 1.248,0 2.26,1.012 2.26,2.26 C 2.26,-1.012 1.248,0 0,0" /></g><g
           transform="translate(316.7293,64.4461)"
           id="g564"><path
             id="path566"
             style="fill:#fd6440;fill-opacity:1;fill-rule:nonzero;stroke:none"
             d="m 0,0 c -1.248,0 -2.26,-1.012 -2.26,-2.26 0,-1.248 1.012,-2.259 2.26,-2.259 1.248,0 2.26,1.011 2.26,2.259 C 2.26,-1.012 1.248,0 0,0" /></g><g
           transform="translate(308.6951,108.2811)"
           id="g568"><path
             id="path570"
             style="fill:#fd6440;fill-opacity:1;fill-rule:nonzero;stroke:none"
             d="m 0,0 c -1.248,0 -2.259,-1.012 -2.259,-2.259 0,-1.248 1.011,-2.26 2.259,-2.26 1.248,0 2.26,1.012 2.26,2.26 C 2.26,-1.012 1.248,0 0,0" /></g><g
           transform="translate(308.6951,100.9754)"
           id="g572"><path
             id="path574"
             style="fill:#fd6440;fill-opacity:1;fill-rule:nonzero;stroke:none"
             d="m 0,0 c -1.248,0 -2.259,-1.012 -2.259,-2.26 0,-1.247 1.011,-2.259 2.259,-2.259 1.248,0 2.26,1.012 2.26,2.259 C 2.26,-1.012 1.248,0 0,0" /></g><g
           transform="translate(308.6951,93.6697)"
           id="g576"><path
             id="path578"
             style="fill:#fd6440;fill-opacity:1;fill-rule:nonzero;stroke:none"
             d="m 0,0 c -1.248,0 -2.259,-1.012 -2.259,-2.26 0,-1.248 1.011,-2.26 2.259,-2.26 1.248,0 2.26,1.012 2.26,2.26 C 2.26,-1.012 1.248,0 0,0" /></g><g
           transform="translate(308.6951,86.3641)"
           id="g580"><path
             id="path582"
             style="fill:#fd6440;fill-opacity:1;fill-rule:nonzero;stroke:none"
             d="m 0,0 c -1.248,0 -2.259,-1.012 -2.259,-2.26 0,-1.248 1.011,-2.26 2.259,-2.26 1.248,0 2.26,1.012 2.26,2.26 C 2.26,-1.012 1.248,0 0,0" /></g><g
           transform="translate(308.6951,79.0584)"
           id="g584"><path
             id="path586"
             style="fill:#fd6440;fill-opacity:1;fill-rule:nonzero;stroke:none"
             d="m 0,0 c -1.248,0 -2.259,-1.012 -2.259,-2.26 0,-1.248 1.011,-2.26 2.259,-2.26 1.248,0 2.26,1.012 2.26,2.26 C 2.26,-1.012 1.248,0 0,0" /></g><g
           transform="translate(308.6951,71.7518)"
           id="g588"><path
             id="path590"
             style="fill:#fd6440;fill-opacity:1;fill-rule:nonzero;stroke:none"
             d="m 0,0 c -1.248,0 -2.259,-1.012 -2.259,-2.259 0,-1.248 1.011,-2.26 2.259,-2.26 1.248,0 2.26,1.012 2.26,2.26 C 2.26,-1.012 1.248,0 0,0" /></g><g
           transform="translate(308.6951,64.4461)"
           id="g592"><path
             id="path594"
             style="fill:#fd6440;fill-opacity:1;fill-rule:nonzero;stroke:none"
             d="m 0,0 c -1.248,0 -2.259,-1.012 -2.259,-2.26 0,-1.248 1.011,-2.259 2.259,-2.259 1.248,0 2.26,1.011 2.26,2.259 C 2.26,-1.012 1.248,0 0,0" /></g><g
           transform="translate(300.6619,108.2811)"
           id="g596"><path
             id="path598"
             style="fill:#fd6440;fill-opacity:1;fill-rule:nonzero;stroke:none"
             d="m 0,0 c -1.248,0 -2.26,-1.012 -2.26,-2.259 0,-1.248 1.012,-2.26 2.26,-2.26 1.247,0 2.259,1.012 2.259,2.26 C 2.259,-1.012 1.247,0 0,0" /></g><g
           transform="translate(300.6619,100.9754)"
           id="g600"><path
             id="path602"
             style="fill:#fd6440;fill-opacity:1;fill-rule:nonzero;stroke:none"
             d="m 0,0 c -1.248,0 -2.26,-1.012 -2.26,-2.26 0,-1.247 1.012,-2.259 2.26,-2.259 1.247,0 2.259,1.012 2.259,2.259 C 2.259,-1.012 1.247,0 0,0" /></g><g
           transform="translate(300.6619,93.6697)"
           id="g604"><path
             id="path606"
             style="fill:#fd6440;fill-opacity:1;fill-rule:nonzero;stroke:none"
             d="m 0,0 c -1.248,0 -2.26,-1.012 -2.26,-2.26 0,-1.248 1.012,-2.26 2.26,-2.26 1.247,0 2.259,1.012 2.259,2.26 C 2.259,-1.012 1.247,0 0,0" /></g><g
           transform="translate(300.6619,86.3641)"
           id="g608"><path
             id="path610"
             style="fill:#fd6440;fill-opacity:1;fill-rule:nonzero;stroke:none"
             d="m 0,0 c -1.248,0 -2.26,-1.012 -2.26,-2.26 0,-1.248 1.012,-2.26 2.26,-2.26 1.247,0 2.259,1.012 2.259,2.26 C 2.259,-1.012 1.247,0 0,0" /></g><g
           transform="translate(300.6619,79.0584)"
           id="g612"><path
             id="path614"
             style="fill:#fd6440;fill-opacity:1;fill-rule:nonzero;stroke:none"
             d="m 0,0 c -1.248,0 -2.26,-1.012 -2.26,-2.26 0,-1.248 1.012,-2.26 2.26,-2.26 1.247,0 2.259,1.012 2.259,2.26 C 2.259,-1.012 1.247,0 0,0" /></g><g
           transform="translate(300.6619,71.7518)"
           id="g616"><path
             id="path618"
             style="fill:#fd6440;fill-opacity:1;fill-rule:nonzero;stroke:none"
             d="m 0,0 c -1.248,0 -2.26,-1.012 -2.26,-2.259 0,-1.248 1.012,-2.26 2.26,-2.26 1.247,0 2.259,1.012 2.259,2.26 C 2.259,-1.012 1.247,0 0,0" /></g><g
           transform="translate(300.6619,64.4461)"
           id="g620"><path
             id="path622"
             style="fill:#fd6440;fill-opacity:1;fill-rule:nonzero;stroke:none"
             d="m 0,0 c -1.248,0 -2.26,-1.012 -2.26,-2.26 0,-1.248 1.012,-2.259 2.26,-2.259 1.247,0 2.259,1.011 2.259,2.259 C 2.259,-1.012 1.247,0 0,0" /></g></g></g></g></svg>
