<?xml version="1.0" encoding="UTF-8" standalone="no"?>
<!-- Generator: Adobe Illustrator 16.0.0, SVG Export Plug-In . SVG Version: 6.00 Build 0)  -->

<svg
   xmlns:dc="http://purl.org/dc/elements/1.1/"
   xmlns:cc="http://creativecommons.org/ns#"
   xmlns:rdf="http://www.w3.org/1999/02/22-rdf-syntax-ns#"
   xmlns:svg="http://www.w3.org/2000/svg"
   xmlns="http://www.w3.org/2000/svg"
   xmlns:sodipodi="http://sodipodi.sourceforge.net/DTD/sodipodi-0.dtd"
   xmlns:inkscape="http://www.inkscape.org/namespaces/inkscape"
   version="1.1"
   id="Capa_1"
   x="0px"
   y="0px"
   width="27.323912"
   height="27.322214"
   viewBox="0 0 27.323912 27.322215"
   xml:space="preserve"
   sodipodi:docname="usb-tool-of-guitar-shape_white.svg"
   inkscape:version="0.92.4 (f8dce91, 2019-08-02)"><metadata
   id="metadata186"><rdf:RDF><cc:Work
       rdf:about=""><dc:format>image/svg+xml</dc:format><dc:type
         rdf:resource="http://purl.org/dc/dcmitype/StillImage" /><dc:title></dc:title></cc:Work></rdf:RDF></metadata><defs
   id="defs184" /><sodipodi:namedview
   pagecolor="#ffffff"
   bordercolor="#666666"
   borderopacity="1"
   objecttolerance="10"
   gridtolerance="10"
   guidetolerance="10"
   inkscape:pageopacity="0"
   inkscape:pageshadow="2"
   inkscape:window-width="1366"
   inkscape:window-height="713"
   id="namedview182"
   showgrid="false"
   inkscape:zoom="8.6370958"
   inkscape:cx="-13.546308"
   inkscape:cy="13.661215"
   inkscape:window-x="0"
   inkscape:window-y="27"
   inkscape:window-maximized="1"
   inkscape:current-layer="Capa_1" />
<g
   id="g149"
   style="fill:#ffffff"
   transform="translate(-8.750831e-5,-10e-4)">
	<g
   id="g147"
   style="fill:#ffffff">
		<path
   d="M 21.588,10.376 27.324,4.64 22.683,0.001 16.949,5.736 c 0.283,0.995 0.874,2.018 1.748,2.892 0.873,0.873 1.896,1.463 2.891,1.748 z M 24.919,5.65 24.107,6.462 22.833,5.186 23.645,4.374 Z M 21.674,2.405 22.949,3.68 22.137,4.492 20.863,3.216 Z"
   id="path143"
   style="fill:#ffffff"
   inkscape:connector-curvature="0" />
		<path
   d="M 18.229,9.094 C 16.111,6.974 15.506,4.113 16.69,2.378 14.324,1.763 12.029,2.148 10.525,3.651 9.44,4.737 8.945,6.24 8.982,7.883 6.333,7.419 3.782,8.004 2.033,9.752 c -3.3,3.302 -2.498,9.455 1.793,13.745 4.291,4.292 10.445,5.093 13.745,1.793 1.748,-1.748 2.334,-4.299 1.87,-6.949 1.644,0.037 3.146,-0.457 4.231,-1.544 C 25.175,15.294 25.56,13 24.944,10.632 23.21,11.816 20.35,11.214 18.229,9.094 Z m -7.979,11.71 -3.729,-3.729 0.699,-0.699 3.729,3.729 z m 1.321,-1.323 -3.729,-3.729 1.864,-1.864 3.73,3.729 z M 15.729,15.325 12,11.595 13.865,9.73 l 3.729,3.73 z"
   id="path145"
   style="fill:#ffffff"
   inkscape:connector-curvature="0" />
	</g>
</g>
<g
   id="g151"
   transform="translate(-8.750831e-5,-10e-4)">
</g>
<g
   id="g153"
   transform="translate(-8.750831e-5,-10e-4)">
</g>
<g
   id="g155"
   transform="translate(-8.750831e-5,-10e-4)">
</g>
<g
   id="g157"
   transform="translate(-8.750831e-5,-10e-4)">
</g>
<g
   id="g159"
   transform="translate(-8.750831e-5,-10e-4)">
</g>
<g
   id="g161"
   transform="translate(-8.750831e-5,-10e-4)">
</g>
<g
   id="g163"
   transform="translate(-8.750831e-5,-10e-4)">
</g>
<g
   id="g165"
   transform="translate(-8.750831e-5,-10e-4)">
</g>
<g
   id="g167"
   transform="translate(-8.750831e-5,-10e-4)">
</g>
<g
   id="g169"
   transform="translate(-8.750831e-5,-10e-4)">
</g>
<g
   id="g171"
   transform="translate(-8.750831e-5,-10e-4)">
</g>
<g
   id="g173"
   transform="translate(-8.750831e-5,-10e-4)">
</g>
<g
   id="g175"
   transform="translate(-8.750831e-5,-10e-4)">
</g>
<g
   id="g177"
   transform="translate(-8.750831e-5,-10e-4)">
</g>
<g
   id="g179"
   transform="translate(-8.750831e-5,-10e-4)">
</g>
</svg>