<?xml version="1.0" encoding="UTF-8" standalone="no"?>
<!-- Generator: Adobe Illustrator 19.0.0, SVG Export Plug-In . SVG Version: 6.00 Build 0)  -->

<svg
   xmlns:dc="http://purl.org/dc/elements/1.1/"
   xmlns:cc="http://creativecommons.org/ns#"
   xmlns:rdf="http://www.w3.org/1999/02/22-rdf-syntax-ns#"
   xmlns:svg="http://www.w3.org/2000/svg"
   xmlns="http://www.w3.org/2000/svg"
   xmlns:sodipodi="http://sodipodi.sourceforge.net/DTD/sodipodi-0.dtd"
   xmlns:inkscape="http://www.inkscape.org/namespaces/inkscape"
   version="1.1"
   id="Layer_1"
   x="0px"
   y="0px"
   viewBox="0 0 506.91749 511.99912"
   xml:space="preserve"
   sodipodi:docname="band_white.svg"
   width="506.91748"
   height="511.99911"
   inkscape:version="0.92.4 (f8dce91, 2019-08-02)"><metadata
   id="metadata109"><rdf:RDF><cc:Work
       rdf:about=""><dc:format>image/svg+xml</dc:format><dc:type
         rdf:resource="http://purl.org/dc/dcmitype/StillImage" /><dc:title></dc:title></cc:Work></rdf:RDF></metadata><defs
   id="defs107" /><sodipodi:namedview
   pagecolor="#ffffff"
   bordercolor="#666666"
   borderopacity="1"
   objecttolerance="10"
   gridtolerance="10"
   guidetolerance="10"
   inkscape:pageopacity="0"
   inkscape:pageshadow="2"
   inkscape:window-width="1366"
   inkscape:window-height="713"
   id="namedview105"
   showgrid="false"
   inkscape:zoom="0.46093841"
   inkscape:cx="253.45917"
   inkscape:cy="255.9995"
   inkscape:window-x="0"
   inkscape:window-y="27"
   inkscape:window-maximized="1"
   inkscape:current-layer="Layer_1" />
<g
   id="g6"
   style="fill:#ffffff"
   transform="translate(-2.5403272,1.2077975e-4)">
	<g
   id="g4"
   style="fill:#ffffff">
		<path
   d="m 259.858,411.656 c 3.161,8.504 11.221,13.762 19.79,13.762 2.442,0 4.927,-0.427 7.351,-1.328 10.929,-4.062 16.496,-16.214 12.433,-27.142 l -16.03,-43.134 h -40.766 v -16.476 c 11.511,0 36.586,0 47.623,0 6.065,0 10.982,-4.917 10.982,-10.982 0,-5.988 -4.858,-10.982 -10.982,-10.982 v -56.182 c 1.788,0 3.47,-0.437 4.962,-1.194 0.482,-4.494 2.509,-8.759 5.803,-11.962 -1.012,-5.036 -5.453,-8.808 -10.765,-8.808 h -78.244 c 8.887,-4.518 39.522,-20.093 49.086,-24.956 -6.688,1.632 -13.559,0.766 -19.426,-2.146 l -36.195,28.357 c 1.81,6.67 2.693,13.713 2.42,20.711 -0.634,16.309 -7.456,31.157 -19.91,40.915 -5.741,4.498 -12.287,7.59 -19.246,9.272 5.698,10.367 2.225,4.049 15.37,27.961 h 36.555 c 0,8.172 0,73.898 0,82.541 l -14.545,14.547 1.396,29.668 24.14,-24.142 50.267,50.28 c 4.29,4.289 11.244,4.29 15.532,0.002 4.289,-4.288 4.29,-11.242 0.002,-15.532 l -54.827,-54.842 v -54.549 z"
   id="path2"
   style="fill:#ffffff"
   inkscape:connector-curvature="0" />
	</g>
</g>
<g
   id="g12"
   style="fill:#ffffff"
   transform="translate(-2.5403272,1.2077975e-4)">
	<g
   id="g10"
   style="fill:#ffffff">
		<path
   d="m 440.153,271.681 -5.45,-0.382 v 79.255 l 23.06,-48.794 c 6.342,-13.423 -2.814,-29.041 -17.61,-30.079 z"
   id="path8"
   style="fill:#ffffff"
   inkscape:connector-curvature="0" />
	</g>
</g>
<g
   id="g18"
   style="fill:#ffffff"
   transform="translate(-2.5403272,1.2077975e-4)">
	<g
   id="g16"
   style="fill:#ffffff">
		<path
   d="m 319.15,278.847 c -4.064,1.003 -8.411,0.687 -12.416,-1.053 v 26.611 c 1.703,1.282 3.3,3.325 4.588,4.865 h 68.469 v -10e-4 c 0,0 0,-41.319 0,-45.383 z"
   id="path14"
   style="fill:#ffffff"
   inkscape:connector-curvature="0" />
	</g>
</g>
<g
   id="g24"
   style="fill:#ffffff"
   transform="translate(-2.5403272,1.2077975e-4)">
	<g
   id="g22"
   style="fill:#ffffff">
		<path
   d="m 355.157,3.322 c -1.202,-2.788 -4.438,-4.074 -7.226,-2.871 l -86.207,37.171 c -9.089,-2.874 -18.85,2.008 -21.947,11.074 l -24.766,72.535 c -1.201,3.514 -1.22,7.188 -0.246,10.56 3.059,-2.163 6.523,-3.703 10.16,-4.531 1.827,-3.661 4.472,-6.982 7.901,-9.668 4.992,-3.911 11.232,-6.065 17.568,-6.064 1.682,0 3.336,0.162 4.957,0.443 l 17.723,-51.907 c 0.657,-1.925 0.942,-3.883 0.929,-5.807 l 78.785,-43.956 c 2.419,-1.361 3.493,-4.371 2.369,-6.979 z"
   id="path20"
   style="fill:#ffffff"
   inkscape:connector-curvature="0" />
	</g>
</g>
<g
   id="g30"
   style="fill:#ffffff"
   transform="translate(-2.5403272,1.2077975e-4)">
	<g
   id="g28"
   style="fill:#ffffff">
		<path
   d="m 507.016,116.525 c -3.824,-6.484 -11.157,-9.596 -18.159,-8.382 L 435.048,26.826 c -1.541,-2.31 -4.623,-3.154 -7.137,-1.836 -2.69,1.409 -3.727,4.733 -2.318,7.422 l 44.724,85.33 -40.878,24.104 c -56.959,1.064 -54.428,1.155 -54.428,1.155 l -72.608,-1.152 c 0.405,2.39 0.524,4.809 0.369,7.21 -0.233,3.608 -1.077,7.17 -2.538,10.508 3.344,8.933 1.959,19.058 -3.678,26.793 -1.802,2.472 -3.787,4.438 -6.091,6.135 l -0.448,28.259 h 0.244 c 11.11,0 20.692,6.636 25.01,16.15 l 19.558,-11.682 c 14.155,-8.456 29.284,-15.058 45.072,-19.696 0.364,-4.211 1.68,-8.152 3.735,-11.606 l 0.255,-16.031 50.831,-0.95 c 3.031,-0.057 5.996,-0.896 8.606,-2.436 l 57.471,-33.889 c 8.369,-4.935 11.153,-15.721 6.217,-24.089 z"
   id="path26"
   style="fill:#ffffff"
   inkscape:connector-curvature="0" />
	</g>
</g>
<g
   id="g36"
   style="fill:#ffffff"
   transform="translate(-2.5403272,1.2077975e-4)">
	<g
   id="g34"
   style="fill:#ffffff">
		<path
   style="fill:#ffffff"
   d="m 375.11701,92.150002 a 36.459999,36.459999 0 0 1 -36.46,36.459998 36.459999,36.459999 0 0 1 -36.46,-36.459998 36.459999,36.459999 0 0 1 36.46,-36.46 36.459999,36.459999 0 0 1 36.46,36.46 z"
   id="circle32"
   inkscape:connector-curvature="0" />
	</g>
</g>
<g
   id="g42"
   style="fill:#ffffff"
   transform="translate(-2.5403272,1.2077975e-4)">
	<g
   id="g40"
   style="fill:#ffffff">
		<path
   d="m 507.242,212.881 c -0.136,-1.453 -1.317,-2.589 -2.775,-2.669 l -35.233,-1.927 c -17.115,-0.937 -34.242,0.599 -51.005,4.574 v -4.951 c 0,-6.162 -5.052,-10.982 -10.982,-10.982 -6.059,0 -10.982,4.953 -10.982,10.982 v 10.345 c -17.705,4.368 -33.929,9.725 -52.988,21.11 l -30.293,18.094 c -1.254,0.749 -1.771,2.303 -1.215,3.654 0.557,1.354 2.02,2.091 3.433,1.742 l 81.062,-20.001 c 0,3.487 0,160.811 0,162.214 -7.598,7.596 -61.624,61.617 -69.642,69.635 -4.29,4.288 -4.29,11.242 -0.001,15.531 4.288,4.289 11.243,4.29 15.531,0 6.231,-6.229 47.585,-47.58 54.112,-54.105 v 13.484 c 0,6.065 4.917,10.982 10.982,10.982 6.065,0 10.982,-4.917 10.982,-10.982 v -13.484 c 6.531,6.531 47.869,47.87 54.104,54.105 4.29,4.289 11.244,4.288 15.532,0 4.289,-4.289 4.289,-11.243 0,-15.531 -7.86,-7.86 -57.902,-57.902 -69.636,-69.636 0,-7.521 0,-160.786 0,-167.633 l 86.784,-21.412 c 1.419,-0.35 2.368,-1.686 2.23,-3.139 z"
   id="path38"
   style="fill:#ffffff"
   inkscape:connector-curvature="0" />
	</g>
</g>
<g
   id="g48"
   style="fill:#ffffff"
   transform="translate(-2.5403272,1.2077975e-4)">
	<g
   id="g46"
   style="fill:#ffffff">
		<path
   d="m 48.717,366.536 v 122.532 c 0,12.664 10.266,22.931 22.931,22.931 12.665,0 22.931,-10.267 22.931,-22.931 V 379.693 C 78.396,380.12 62.525,375.111 48.717,366.536 Z"
   id="path44"
   style="fill:#ffffff"
   inkscape:connector-curvature="0" />
	</g>
</g>
<g
   id="g54"
   style="fill:#ffffff"
   transform="translate(-2.5403272,1.2077975e-4)">
	<g
   id="g52"
   style="fill:#ffffff">
		<path
   d="m 193.124,487.989 -5.002,-106.32 c -0.164,-3.492 -1.126,-6.902 -2.81,-9.968 l -28.726,-52.256 c -1.605,19.34 -10.315,36.824 -25.841,48.197 l 11.815,21.493 4.753,101.01 c 0.594,12.635 11.314,22.421 23.984,21.828 12.649,-0.595 22.423,-11.332 21.827,-23.984 z"
   id="path50"
   style="fill:#ffffff"
   inkscape:connector-curvature="0" />
	</g>
</g>
<g
   id="g60"
   style="fill:#ffffff"
   transform="translate(-2.5403272,1.2077975e-4)">
	<g
   id="g58"
   style="fill:#ffffff">
		<path
   style="fill:#ffffff"
   d="M 139.128,84.169998 A 39.605,39.605 0 0 1 99.523003,123.775 39.605,39.605 0 0 1 59.918003,84.169998 39.605,39.605 0 0 1 99.523003,44.564999 39.605,39.605 0 0 1 139.128,84.169998 Z"
   id="circle56"
   inkscape:connector-curvature="0" />
	</g>
</g>
<g
   id="g66"
   style="fill:#ffffff"
   transform="translate(-2.5403272,1.2077975e-4)">
	<g
   id="g64"
   style="fill:#ffffff">
		<path
   d="m 277.79,158.527 c 3.222,-2.524 1.174,-0.915 1.993,-1.572 5.538,-4.46 6.191,-12.392 2.033,-17.7 -0.016,-0.02 -0.033,-0.037 -0.05,-0.057 -4.233,-5.341 -12.115,-6.465 -17.693,-2.157 -0.023,0.018 -0.048,0.032 -0.071,0.05 l -1.864,1.46 -3.751,-4.788 c -0.013,-0.017 -0.028,-0.03 -0.041,-0.047 -3.508,-4.419 -9.882,-5.071 -14.205,-1.686 -0.001,0.001 -0.003,0.002 -0.004,0.003 -4.412,3.457 -5.186,9.837 -1.729,14.249 l 3.752,4.788 -3.195,2.503 c -3.156,-4.029 -2.337,-2.983 -3.752,-4.788 -0.002,-0.002 -0.004,-0.004 -0.006,-0.007 -3.445,-4.388 -9.834,-5.177 -14.244,-1.724 -4.412,3.457 -5.187,9.837 -1.731,14.251 l 3.752,4.788 -59.056,46.267 c -0.02,-0.017 -0.04,-0.032 -0.06,-0.049 -23.329,-19.815 -53.325,-16.376 -63.213,6.978 -2.151,5.079 -5.96,9.745 -11.184,12.918 l 21.76,16.541 c 7.321,-6.033 17.917,-4.681 23.578,2.544 5.642,7.202 4.378,17.613 -2.824,23.255 -3.392,2.657 -7.496,3.764 -11.478,3.458 -0.705,6.163 -2.943,12.086 -6.621,17.294 -5.795,8.207 -14.625,13.669 -24.381,15.318 l 3.871,4.941 c 3.457,4.412 2.682,10.793 -1.729,14.249 -4.414,3.457 -10.792,2.683 -14.25,-1.731 L 59.136,299.664 20.321,272.255 c -4.892,24.919 6.99,51.867 25.603,69.15 20.8,19.267 52.882,28.003 75.089,10.606 10.499,-8.225 16.275,-20.629 17.331,-34.491 0.98,-12.868 10.666,-23.376 23.362,-25.41 24.064,-3.856 36.138,-31.238 21.87,-59.776 l 59.056,-46.267 3.752,4.788 c 0.002,0.002 0.004,0.004 0.007,0.008 3.646,4.642 10.607,5.274 15.011,1.055 0.004,-0.004 0.011,-0.009 0.016,-0.013 3.665,-3.524 4.219,-9.391 0.946,-13.569 l -3.752,-4.788 3.195,-2.503 3.752,4.788 c 3.396,4.335 9.774,5.237 14.25,1.731 4.407,-3.452 5.192,-9.833 1.731,-14.251 z"
   id="path62"
   style="fill:#ffffff"
   inkscape:connector-curvature="0" />
	</g>
</g>
<g
   id="g72"
   style="fill:#ffffff"
   transform="translate(-2.5403272,1.2077975e-4)">
	<g
   id="g70"
   style="fill:#ffffff">
		<path
   d="m 150.923,136.401 c -11.176,0 -91.063,0 -102.794,0 -24.813,0 -45.099,20.185 -45.222,44.939 -0.124,15.402 -0.244,30.381 -0.366,45.585 v 0.016 c -0.054,6.805 3.147,12.528 8.083,16.013 l 65.644,46.354 c 8.599,6.072 20.534,4.05 26.634,-4.589 6.088,-8.621 4.033,-20.545 -4.588,-26.633 -35.552,-25.104 -27.978,-19.756 -57.479,-40.587 0.239,-29.762 0.14,-17.415 0.288,-35.911 0,0 0,-0.001 0,-0.002 0.011,-2.09 1.712,-3.777 3.802,-3.771 2.09,0.006 3.78,1.702 3.78,3.792 v 18.992 l 23.385,16.513 c 2.259,0.217 6.407,0.823 6.931,0.823 3.818,0 7.248,-2.275 8.739,-5.795 3.447,-8.14 8.635,-14.963 15.423,-20.28 9.034,-7.079 20.172,-10.819 32.208,-10.818 4.848,0 9.722,0.608 14.534,1.778 v -0.147 c 0,-1.857 1.299,-3.462 3.116,-3.848 1.817,-0.386 3.656,0.551 4.412,2.248 0.554,1.244 0.898,2.702 0.888,4.4 3.008,1.167 5.97,2.55 8.86,4.154 l 26.144,-20.483 c -7.166,-20.148 -23.135,-32.743 -42.422,-32.743 z"
   id="path68"
   style="fill:#ffffff"
   inkscape:connector-curvature="0" />
	</g>
</g>
<g
   id="g74"
   transform="translate(-2.5403272,1.2077975e-4)">
</g>
<g
   id="g76"
   transform="translate(-2.5403272,1.2077975e-4)">
</g>
<g
   id="g78"
   transform="translate(-2.5403272,1.2077975e-4)">
</g>
<g
   id="g80"
   transform="translate(-2.5403272,1.2077975e-4)">
</g>
<g
   id="g82"
   transform="translate(-2.5403272,1.2077975e-4)">
</g>
<g
   id="g84"
   transform="translate(-2.5403272,1.2077975e-4)">
</g>
<g
   id="g86"
   transform="translate(-2.5403272,1.2077975e-4)">
</g>
<g
   id="g88"
   transform="translate(-2.5403272,1.2077975e-4)">
</g>
<g
   id="g90"
   transform="translate(-2.5403272,1.2077975e-4)">
</g>
<g
   id="g92"
   transform="translate(-2.5403272,1.2077975e-4)">
</g>
<g
   id="g94"
   transform="translate(-2.5403272,1.2077975e-4)">
</g>
<g
   id="g96"
   transform="translate(-2.5403272,1.2077975e-4)">
</g>
<g
   id="g98"
   transform="translate(-2.5403272,1.2077975e-4)">
</g>
<g
   id="g100"
   transform="translate(-2.5403272,1.2077975e-4)">
</g>
<g
   id="g102"
   transform="translate(-2.5403272,1.2077975e-4)">
</g>
</svg>