<?xml version="1.0" encoding="UTF-8" standalone="no"?>
<svg
   xmlns:dc="http://purl.org/dc/elements/1.1/"
   xmlns:cc="http://creativecommons.org/ns#"
   xmlns:rdf="http://www.w3.org/1999/02/22-rdf-syntax-ns#"
   xmlns:svg="http://www.w3.org/2000/svg"
   xmlns="http://www.w3.org/2000/svg"
   xmlns:sodipodi="http://sodipodi.sourceforge.net/DTD/sodipodi-0.dtd"
   xmlns:inkscape="http://www.inkscape.org/namespaces/inkscape"
   inkscape:version="1.0.1 (3bc2e813f5, 2020-09-07)"
   sodipodi:docname="facebook.svg"
   viewBox="0 0 14.503755 14.501056"
   height="14.501056"
   width="14.503756"
   xml:space="preserve"
   id="svg2"
   version="1.1"><metadata
     id="metadata8"><rdf:RDF><cc:Work
         rdf:about=""><dc:format>image/svg+xml</dc:format><dc:type
           rdf:resource="http://purl.org/dc/dcmitype/StillImage" /><dc:title></dc:title></cc:Work></rdf:RDF></metadata><defs
     id="defs6"><radialGradient
       id="radialGradient18"
       spreadMethod="pad"
       gradientTransform="matrix(326.915,0,0,-326.915,125,125)"
       gradientUnits="userSpaceOnUse"
       r="1"
       cy="0"
       cx="0"
       fy="0"
       fx="0"><stop
         id="stop14"
         offset="0"
         style="stop-opacity:1;stop-color:#ffffff" /><stop
         id="stop16"
         offset="1"
         style="stop-opacity:1;stop-color:#100f0d" /></radialGradient><clipPath
       id="clipPath28"
       clipPathUnits="userSpaceOnUse"><path
         id="path26"
         d="m 71.1328,162.766 c 0,-10.977 -8.4336,-20.012 -19.1406,-20.871 -0.5899,-0.11 -1.1914,-0.11 -1.7813,-0.11 -1.5664,0 -3.0859,0.156 -4.5429,0.488 -9.4063,2.114 -16.4414,10.493 -16.4414,20.493 0,11.57 9.4179,20.925 20.9843,20.925 11.5704,0 20.9219,-9.355 20.9219,-20.925 z" /></clipPath><linearGradient
       id="linearGradient36"
       spreadMethod="pad"
       gradientTransform="matrix(8.74701,-59.2106,-59.2106,-8.74701,45.0195,197.744)"
       gradientUnits="userSpaceOnUse"
       y2="0"
       x2="1"
       y1="0"
       x1="0"><stop
         id="stop30"
         offset="0"
         style="stop-opacity:1;stop-color:#2a3986" /><stop
         id="stop32"
         offset="0.94086"
         style="stop-opacity:1;stop-color:#171c3b" /><stop
         id="stop34"
         offset="1"
         style="stop-opacity:1;stop-color:#171c3b" /></linearGradient><clipPath
       id="clipPath48"
       clipPathUnits="userSpaceOnUse"><path
         id="path46"
         d="m 120.801,162.785 c 0,-11.594 -9.391,-20.969 -20.9612,-20.969 -11.5742,0 -20.9492,9.375 -20.9492,20.969 0,11.57 9.375,20.945 20.9492,20.945 11.5702,0 20.9612,-9.375 20.9612,-20.945 z" /></clipPath><linearGradient
       id="linearGradient58"
       spreadMethod="pad"
       gradientTransform="matrix(0.76299,-65.6164,-65.6164,-0.76299,99.4141,200.395)"
       gradientUnits="userSpaceOnUse"
       y2="0"
       x2="1"
       y1="0"
       x1="0"><stop
         id="stop50"
         offset="0"
         style="stop-opacity:1;stop-color:#46bb3a" /><stop
         id="stop52"
         offset="0.132227"
         style="stop-opacity:1;stop-color:#46bb3a" /><stop
         id="stop54"
         offset="0.793966"
         style="stop-opacity:1;stop-color:#2c9c40" /><stop
         id="stop56"
         offset="1"
         style="stop-opacity:1;stop-color:#2c9c40" /></linearGradient><clipPath
       id="clipPath72"
       clipPathUnits="userSpaceOnUse"><path
         id="path70"
         d="m 170.117,162.5 c 0,-11.562 -9.387,-20.957 -20.945,-20.957 -11.582,0 -20.957,9.395 -20.957,20.957 0,11.582 9.375,20.957 20.957,20.957 11.558,0 20.945,-9.375 20.945,-20.957 z" /></clipPath><linearGradient
       id="linearGradient82"
       spreadMethod="pad"
       gradientTransform="matrix(-3e-6,-68.9238,-68.9238,3e-6,149.17,206.48)"
       gradientUnits="userSpaceOnUse"
       y2="0"
       x2="1"
       y1="0"
       x1="0"><stop
         id="stop74"
         offset="0"
         style="stop-opacity:1;stop-color:#50abe3" /><stop
         id="stop76"
         offset="0.317204"
         style="stop-opacity:1;stop-color:#50abe3" /><stop
         id="stop78"
         offset="0.672043"
         style="stop-opacity:1;stop-color:#3d84c9" /><stop
         id="stop80"
         offset="1"
         style="stop-opacity:1;stop-color:#3d84c9" /></linearGradient><clipPath
       id="clipPath94"
       clipPathUnits="userSpaceOnUse"><path
         id="path92"
         d="m 220.781,162.629 c 0,-11.586 -9.375,-20.969 -20.957,-20.969 -11.562,0 -20.945,9.383 -20.945,20.969 0,11.57 9.383,20.957 20.945,20.957 11.582,0 20.957,-9.387 20.957,-20.957 z" /></clipPath><clipPath
       id="clipPath100"
       clipPathUnits="userSpaceOnUse"><path
         id="path98"
         d="m 175.637,186.828 c 1.597,0 3.218,0 4.832,0 1.609,0 3.222,0 4.844,0 1.613,0 3.234,0 4.843,0 1.614,0 3.211,0 4.832,0 1.614,0 3.227,0 4.836,0 1.621,0 3.235,0 4.832,0 1.621,0 3.235,0 4.848,0 1.609,0 3.23,0 4.844,0 1.597,0 3.218,0 4.832,0 1.609,0 3.222,0 4.836,0 0,-1.613 0,-3.242 0,-4.848 0,-1.609 0,-3.23 0,-4.839 0,-1.614 0,-3.227 0,-4.848 0,-1.609 0,-3.23 0,-4.832 0,-1.621 0,-3.223 0,-4.832 0,-1.621 0,-3.242 0,-4.863 0,-1.594 0,-3.215 0,-4.825 0,-1.613 0,-3.234 0,-4.843 0,-1.621 0,-3.227 0,-4.836 0,-1.621 0,-3.242 0,-4.832 -1.614,0 -3.227,0 -4.836,0 -1.614,0 -3.235,0 -4.832,0 -1.614,0 -3.235,0 -4.844,0 -1.613,0 -3.227,0 -4.848,0 -1.597,0 -3.211,0 -4.832,0 -1.609,0 -3.222,0 -4.836,0 -1.621,0 -3.218,0 -4.832,0 -1.609,0 -3.23,0 -4.843,0 -1.622,0 -3.235,0 -4.844,0 -1.614,0 -3.235,0 -4.832,0 0,1.59 0,3.211 0,4.832 0,1.609 0,3.215 0,4.836 0,1.609 0,3.23 0,4.843 0,1.61 0,3.231 0,4.825 0,1.621 0,3.242 0,4.863 0,1.609 0,3.211 0,4.832 0,1.602 0,3.223 0,4.832 0,1.621 0,3.234 0,4.848 0,1.609 0,3.23 0,4.839 0,1.606 0,3.235 0,4.848 z" /></clipPath><clipPath
       id="clipPath106"
       clipPathUnits="userSpaceOnUse"><path
         id="path104"
         d="m 196,141 v 1 h -4 v 1 h -2 v 1 h -1 v 1 h -2 v 1 h -1 v 1 h -2 v 2 h -1 v 1 h -1 v 2 h -1 v 1 h -1 v 3 h -1 v 4 h -1 v 6 h 1 v 3 h 1 v 3 h 1 v 1 h 1 v 2 h 1 v 1 h 1 v 2 h 1 v 1 h 2 v 1 h 1 v 1 h 2 v 1 h 1 v 1 h 4 v 1 h 10 v -1 h 3 v -1 h 2 v -1 h 1 v -1 h 2 v -1 h 1 v -1 h 1 v -1 h 1 v -1 h 1 v -2 h 1 v -1 h 1 v -2 h 1 v -3 h 1 v -11 h -1 v -3 h -1 v -2 h -1 v -1 h -1 v -2 h -1 v -1 h -1 v -1 h -1 v -1 h -2 v -1 h -1 v -1 h -1 v -1 h -3 v -1 h -3 v -1" /></clipPath></defs><sodipodi:namedview
     inkscape:current-layer="g1387"
     inkscape:window-maximized="1"
     inkscape:window-y="29"
     inkscape:window-x="0"
     inkscape:cy="8.2808044"
     inkscape:cx="12.769786"
     inkscape:zoom="26.100001"
     showgrid="false"
     id="namedview4"
     inkscape:window-height="1014"
     inkscape:window-width="1920"
     inkscape:pageshadow="2"
     inkscape:pageopacity="0"
     guidetolerance="10"
     gridtolerance="10"
     objecttolerance="10"
     borderopacity="1"
     bordercolor="#666666"
     pagecolor="#ffffff"
     inkscape:document-rotation="0" /><g
     transform="matrix(1.3333333,0,0,-1.3333333,-3.8968799,18.817202)"
     inkscape:label="ink_ext_XXXXXX"
     inkscape:groupmode="layer"
     id="g10"><g
       transform="scale(0.1)"
       id="g12"><path
         id="path20"
         style="fill:none;fill-opacity:1;fill-rule:nonzero;stroke:none"
         d="M 250,0 H 0 V 250 H 250 V 0" /><g
         id="g88"><g
           clip-path="url(#clipPath94)"
           id="g90"><g
             clip-path="url(#clipPath100)"
             id="g96"><g
               clip-path="url(#clipPath106)"
               id="g102"><g
                 transform="matrix(1,0,0,-1,-8179,8204)"
                 id="g108"><path
                   id="path110"
                   style="fill:#474ba8;fill-opacity:1;fill-rule:nonzero;stroke:none"
                   d="m 8196.5633,8185.32 c 0.1601,0 0.3222,0 0.4833,0 0,0.081 0,0.1616 0,0.2421 -0.1611,0 -0.3232,0 -0.4833,0 0,-0.081 0,-0.1616 0,-0.2421 z" /><path
                   id="path112"
                   style="fill:#4948a6;fill-opacity:1;fill-rule:nonzero;stroke:none"
                   d="m 8196.5633,8185.5621 c 0.1601,0 0.3222,0 0.4833,0 0,0.081 0,0.1621 0,0.2422 -0.1611,0 -0.3232,0 -0.4833,0 0,-0.08 0,-0.1611 0,-0.2422 z" /><path
                   id="path114"
                   style="fill:#4c47a5;fill-opacity:1;fill-rule:nonzero;stroke:none"
                   d="m 8197.0466,8185.32 c 0.1611,0 0.3222,0 0.4842,0 0,0.081 0,0.1616 0,0.2421 -0.162,0 -0.3231,0 -0.4842,0 0,-0.081 0,-0.1616 0,-0.2421 z" /><path
                   id="path116"
                   style="fill:#5243a3;fill-opacity:1;fill-rule:nonzero;stroke:none"
                   d="m 8197.0466,8185.5621 c 0.1611,0 0.3222,0 0.4842,0 0,0.081 0,0.1621 0,0.2422 -0.162,0 -0.3231,0 -0.4842,0 0,-0.08 0,-0.1611 0,-0.2422 z" /><path
                   id="path118"
                   style="fill:#5540a2;fill-opacity:1;fill-rule:nonzero;stroke:none"
                   d="m 8197.5308,8185.32 c 0.1611,0 0.3232,0 0.4843,0 0,0.1611 0,0.3241 0,0.4843 -0.1611,0 -0.3232,0 -0.4843,0 0,-0.1602 0,-0.3232 0,-0.4843 z" /><path
                   id="path120"
                   style="fill:#5d3a9e;fill-opacity:1;fill-rule:nonzero;stroke:none"
                   d="m 8198.0151,8185.32 c 0.1611,0 0.3212,0 0.4833,0 0,0.081 0,0.1616 0,0.2421 -0.1621,0 -0.3222,0 -0.4833,0 0,-0.081 0,-0.1616 0,-0.2421 z" /><path
                   id="path122"
                   style="fill:#6d2f99;fill-opacity:1;fill-rule:nonzero;stroke:none"
                   d="m 8198.0151,8185.5621 c 0.1611,0 0.3212,0 0.4833,0 0,0.081 0,0.1621 0,0.2422 -0.1621,0 -0.3222,0 -0.4833,0 0,-0.08 0,-0.1611 0,-0.2422 z" /><path
                   id="path124"
                   style="fill:#67349b;fill-opacity:1;fill-rule:nonzero;stroke:none"
                   d="m 8198.4984,8185.32 c 0.1611,0 0.3222,0 0.4833,0 0,0.081 0,0.1616 0,0.2421 -0.1611,0 -0.3222,0 -0.4833,0 0,-0.081 0,-0.1616 0,-0.2421 z" /><path
                   id="path126"
                   style="fill:#782996;fill-opacity:1;fill-rule:nonzero;stroke:none"
                   d="m 8198.4984,8185.5621 c 0.1611,0 0.3222,0 0.4833,0 0,0.081 0,0.1621 0,0.2422 -0.1611,0 -0.3222,0 -0.4833,0 0,-0.08 0,-0.1611 0,-0.2422 z" /><path
                   id="path128"
                   style="fill:#6c319a;fill-opacity:1;fill-rule:nonzero;stroke:none"
                   d="m 8198.9817,8185.32 c 0.162,0 0.3231,0 0.4832,0 0,0.1611 0,0.3241 0,0.4843 -0.1601,0 -0.3212,0 -0.4832,0 0,-0.1602 0,-0.3232 0,-0.4843 z" /><path
                   id="path130"
                   style="fill:#6c329a;fill-opacity:1;fill-rule:nonzero;stroke:none"
                   d="m 8199.4649,8185.32 c 0.1621,0 0.3232,0 0.4843,0 0,0.1611 0,0.3241 0,0.4843 -0.1611,0 -0.3222,0 -0.4843,0 0,-0.1602 0,-0.3232 0,-0.4843 z" /><path
                   id="path132"
                   style="fill:#66359c;fill-opacity:1;fill-rule:nonzero;stroke:none"
                   d="m 8199.9492,8185.32 c 0.1611,0 0.3231,0 0.4842,0 0,0.1611 0,0.3241 0,0.4843 -0.1611,0 -0.3231,0 -0.4842,0 0,-0.1602 0,-0.3232 0,-0.4843 z" /><path
                   id="path134"
                   style="fill:#5e3a9e;fill-opacity:1;fill-rule:nonzero;stroke:none"
                   d="m 8200.4334,8185.32 c 0.1602,0 0.3222,0 0.4833,0 0,0.1611 0,0.3241 0,0.4843 -0.1611,0 -0.3231,0 -0.4833,0 0,-0.1602 0,-0.3232 0,-0.4843 z" /><path
                   id="path136"
                   style="fill:#583fa1;fill-opacity:1;fill-rule:nonzero;stroke:none"
                   d="m 8200.9167,8185.32 c 0.1611,0 0.3222,0 0.4833,0 0,0.1611 0,0.3241 0,0.4843 -0.1611,0 -0.3222,0 -0.4833,0 0,-0.1602 0,-0.3232 0,-0.4843 z" /><path
                   id="path138"
                   style="fill:#4d44a3;fill-opacity:1;fill-rule:nonzero;stroke:none"
                   d="m 8196.5633,8185.8043 c 0.1601,0 0.3222,0 0.4833,0 0,0.081 0,0.161 0,0.2421 -0.1611,0 -0.3232,0 -0.4833,0 0,-0.081 0,-0.1616 0,-0.2421 z" /><path
                   id="path140"
                   style="fill:#553d9f;fill-opacity:1;fill-rule:nonzero;stroke:none"
                   d="m 8196.5633,8186.0464 c 0.1601,0 0.3222,0 0.4833,0 0,0.081 0,0.1616 0,0.2421 -0.1611,0 -0.3232,0 -0.4833,0 0,-0.081 0,-0.1611 0,-0.2421 z" /><path
                   id="path142"
                   style="fill:#5b3ca0;fill-opacity:1;fill-rule:nonzero;stroke:none"
                   d="m 8197.0466,8185.8043 c 0.1611,0 0.3222,0 0.4842,0 0,0.081 0,0.161 0,0.2421 -0.162,0 -0.3231,0 -0.4842,0 0,-0.081 0,-0.1616 0,-0.2421 z" /><path
                   id="path144"
                   style="fill:#6e2f99;fill-opacity:1;fill-rule:nonzero;stroke:none"
                   d="m 8197.0466,8186.0464 c 0.1611,0 0.3222,0 0.4842,0 0,0.081 0,0.1616 0,0.2421 -0.162,0 -0.3231,0 -0.4842,0 0,-0.081 0,-0.1611 0,-0.2421 z" /><path
                   id="path146"
                   style="fill:#6f2e99;fill-opacity:1;fill-rule:nonzero;stroke:none"
                   d="m 8197.5308,8185.8043 c 0.1611,0 0.3232,0 0.4843,0 0,0.161 0,0.3231 0,0.4842 -0.1611,0 -0.3232,0 -0.4843,0 0,-0.1611 0,-0.3232 0,-0.4842 z" /><path
                   id="path148"
                   style="fill:#832193;fill-opacity:1;fill-rule:nonzero;stroke:none"
                   d="m 8198.0151,8185.8043 c 0.1611,0 0.3212,0 0.4833,0 0,0.161 0,0.3231 0,0.4842 -0.1621,0 -0.3222,0 -0.4833,0 0,-0.1611 0,-0.3232 0,-0.4842 z" /><path
                   id="path150"
                   style="fill:#90188f;fill-opacity:1;fill-rule:nonzero;stroke:none"
                   d="m 8198.4984,8185.8043 c 0.1611,0 0.3222,0 0.4833,0 0,0.161 0,0.3231 0,0.4842 -0.1611,0 -0.3222,0 -0.4833,0 0,-0.1611 0,-0.3232 0,-0.4842 z" /><path
                   id="path152"
                   style="fill:#94178f;fill-opacity:1;fill-rule:nonzero;stroke:none"
                   d="m 8198.9817,8185.8043 c 0.162,0 0.3231,0 0.4832,0 0,0.161 0,0.3231 0,0.4842 -0.1601,0 -0.3212,0 -0.4832,0 0,-0.1611 0,-0.3232 0,-0.4842 z" /><path
                   id="path154"
                   style="fill:#901a90;fill-opacity:1;fill-rule:nonzero;stroke:none"
                   d="m 8199.4649,8185.8043 c 0.1621,0 0.3232,0 0.4843,0 0,0.161 0,0.3231 0,0.4842 -0.1611,0 -0.3222,0 -0.4843,0 0,-0.1611 0,-0.3232 0,-0.4842 z" /><path
                   id="path156"
                   style="fill:#882093;fill-opacity:1;fill-rule:nonzero;stroke:none"
                   d="m 8199.9492,8185.8043 c 0.1611,0 0.3231,0 0.4842,0 0,0.161 0,0.3231 0,0.4842 -0.1611,0 -0.3231,0 -0.4842,0 0,-0.1611 0,-0.3232 0,-0.4842 z" /><path
                   id="path158"
                   style="fill:#792a97;fill-opacity:1;fill-rule:nonzero;stroke:none"
                   d="m 8200.4334,8185.8043 c 0.1602,0 0.3222,0 0.4833,0 0,0.161 0,0.3231 0,0.4842 -0.1611,0 -0.3231,0 -0.4833,0 0,-0.1611 0,-0.3232 0,-0.4842 z" /><path
                   id="path160"
                   style="fill:#69349b;fill-opacity:1;fill-rule:nonzero;stroke:none"
                   d="m 8200.9167,8185.8043 c 0.1611,0 0.3222,0 0.4833,0 0,0.161 0,0.3231 0,0.4842 -0.1611,0 -0.3222,0 -0.4833,0 0,-0.1611 0,-0.3232 0,-0.4842 z" /><path
                   id="path162"
                   style="fill:#65329a;fill-opacity:1;fill-rule:nonzero;stroke:none"
                   d="m 8196.5633,8186.2885 c 0,0.1611 0,0.3222 0,0.4843 0.08,0 0.1611,0 0.2412,0 0,-0.1621 0,-0.3232 0,-0.4843 -0.08,0 -0.1611,0 -0.2412,0 z" /><path
                   id="path164"
                   style="fill:#772896;fill-opacity:1;fill-rule:nonzero;stroke:none"
                   d="m 8196.8045,8186.2885 c 0.081,0 0.162,0 0.2421,0 0,0.081 0,0.1611 0,0.2416 -0.08,0 -0.1611,0 -0.2421,0 0,-0.081 0,-0.161 0,-0.2416 z" /><path
                   id="path166"
                   style="fill:#95188d;fill-opacity:1;fill-rule:nonzero;stroke:none"
                   d="m 8196.8045,8186.5301 c 0.081,0 0.162,0 0.2421,0 0,0.081 0,0.1616 0,0.2427 -0.08,0 -0.1611,0 -0.2421,0 0,-0.081 0,-0.1621 0,-0.2427 z" /><path
                   id="path168"
                   style="fill:#891c90;fill-opacity:1;fill-rule:nonzero;stroke:none"
                   d="m 8197.0466,8186.2885 c 0.1611,0 0.3222,0 0.4842,0 0,0.081 0,0.1611 0,0.2416 -0.162,0 -0.3231,0 -0.4842,0 0,-0.081 0,-0.161 0,-0.2416 z" /><path
                   id="path170"
                   style="fill:#a51783;fill-opacity:1;fill-rule:nonzero;stroke:none"
                   d="m 8197.0466,8186.5301 c 0.1611,0 0.3222,0 0.4842,0 0,0.081 0,0.1616 0,0.2427 -0.162,0 -0.3231,0 -0.4842,0 0,-0.081 0,-0.1621 0,-0.2427 z" /><path
                   id="path172"
                   style="fill:#a71482;fill-opacity:1;fill-rule:nonzero;stroke:none"
                   d="m 8197.5308,8186.2885 c 0.1611,0 0.3232,0 0.4843,0 0,0.081 0,0.1611 0,0.2416 -0.1611,0 -0.3232,0 -0.4843,0 0,-0.081 0,-0.161 0,-0.2416 z" /><path
                   id="path174"
                   style="fill:#bd166c;fill-opacity:1;fill-rule:nonzero;stroke:none"
                   d="m 8197.5308,8186.5301 c 0.1611,0 0.3232,0 0.4843,0 0,0.081 0,0.1616 0,0.2427 -0.1611,0 -0.3232,0 -0.4843,0 0,-0.081 0,-0.1621 0,-0.2427 z" /><path
                   id="path176"
                   style="fill:#b61376;fill-opacity:1;fill-rule:nonzero;stroke:none"
                   d="m 8198.0151,8186.2885 c 0.1611,0 0.3212,0 0.4833,0 0,0.081 0,0.1611 0,0.2416 -0.1621,0 -0.3222,0 -0.4833,0 0,-0.081 0,-0.161 0,-0.2416 z" /><path
                   id="path178"
                   style="fill:#c91661;fill-opacity:1;fill-rule:nonzero;stroke:none"
                   d="m 8198.0151,8186.5301 c 0.1611,0 0.3212,0 0.4833,0 0,0.081 0,0.1616 0,0.2427 -0.1621,0 -0.3222,0 -0.4833,0 0,-0.081 0,-0.1621 0,-0.2427 z" /><path
                   id="path180"
                   style="fill:#bb1271;fill-opacity:1;fill-rule:nonzero;stroke:none"
                   d="m 8198.4984,8186.2885 c 0.1611,0 0.3222,0 0.4833,0 0,0.081 0,0.1611 0,0.2416 -0.1611,0 -0.3222,0 -0.4833,0 0,-0.081 0,-0.161 0,-0.2416 z" /><path
                   id="path182"
                   style="fill:#cc155e;fill-opacity:1;fill-rule:nonzero;stroke:none"
                   d="m 8198.4984,8186.5301 c 0.1611,0 0.3222,0 0.4833,0 0,0.081 0,0.1616 0,0.2427 -0.1611,0 -0.3222,0 -0.4833,0 0,-0.081 0,-0.1621 0,-0.2427 z" /><path
                   id="path184"
                   style="fill:#bb1274;fill-opacity:1;fill-rule:nonzero;stroke:none"
                   d="m 8198.9817,8186.2885 c 0.162,0 0.3231,0 0.4832,0 0,0.081 0,0.1611 0,0.2416 -0.1601,0 -0.3212,0 -0.4832,0 0,-0.081 0,-0.161 0,-0.2416 z" /><path
                   id="path186"
                   style="fill:#cb1262;fill-opacity:1;fill-rule:nonzero;stroke:none"
                   d="m 8198.9817,8186.5301 c 0.162,0 0.3231,0 0.4832,0 0,0.081 0,0.1616 0,0.2427 -0.1601,0 -0.3212,0 -0.4832,0 0,-0.081 0,-0.1621 0,-0.2427 z" /><path
                   id="path188"
                   style="fill:#b6117c;fill-opacity:1;fill-rule:nonzero;stroke:none"
                   d="m 8199.4649,8186.2885 c 0.1621,0 0.3232,0 0.4843,0 0,0.1611 0,0.3222 0,0.4843 -0.1611,0 -0.3222,0 -0.4843,0 0,-0.1621 0,-0.3232 0,-0.4843 z" /><path
                   id="path190"
                   style="fill:#b01186;fill-opacity:1;fill-rule:nonzero;stroke:none"
                   d="m 8199.9492,8186.2885 c 0.1611,0 0.3231,0 0.4842,0 0,0.1611 0,0.3222 0,0.4843 -0.1611,0 -0.3231,0 -0.4842,0 0,-0.1621 0,-0.3232 0,-0.4843 z" /><path
                   id="path192"
                   style="fill:#a4128e;fill-opacity:1;fill-rule:nonzero;stroke:none"
                   d="m 8200.4334,8186.2885 c 0.1602,0 0.3222,0 0.4833,0 0,0.1611 0,0.3222 0,0.4843 -0.1611,0 -0.3231,0 -0.4833,0 0,-0.1621 0,-0.3232 0,-0.4843 z" /><path
                   id="path194"
                   style="fill:#911d92;fill-opacity:1;fill-rule:nonzero;stroke:none"
                   d="m 8200.9167,8186.2885 c 0.1611,0 0.3222,0 0.4833,0 0,0.1611 0,0.3222 0,0.4843 -0.1611,0 -0.3222,0 -0.4833,0 0,-0.1621 0,-0.3232 0,-0.4843 z" /><path
                   id="path196"
                   style="fill:#9a1984;fill-opacity:1;fill-rule:nonzero;stroke:none"
                   d="m 8196.5633,8186.7728 c 0.08,0 0.1611,0 0.2412,0 0,0.081 0,0.1611 0,0.2421 -0.08,0 -0.1611,0 -0.2412,0 0,-0.081 0,-0.1616 0,-0.2421 z" /><path
                   id="path198"
                   style="fill:#b11c6d;fill-opacity:1;fill-rule:nonzero;stroke:none"
                   d="m 8196.5633,8187.0149 c 0.08,0 0.1611,0 0.2412,0 0,0.081 0,0.1611 0,0.2411 -0.08,0 -0.1611,0 -0.2412,0 0,-0.08 0,-0.1606 0,-0.2411 z" /><path
                   id="path200"
                   style="fill:#ae1977;fill-opacity:1;fill-rule:nonzero;stroke:none"
                   d="m 8196.8045,8186.7728 c 0.081,0 0.162,0 0.2421,0 0,0.081 0,0.1611 0,0.2421 -0.08,0 -0.1611,0 -0.2421,0 0,-0.081 0,-0.1616 0,-0.2421 z" /><path
                   id="path202"
                   style="fill:#c31e62;fill-opacity:1;fill-rule:nonzero;stroke:none"
                   d="m 8196.8045,8187.0149 c 0.081,0 0.162,0 0.2421,0 0,0.081 0,0.1611 0,0.2411 -0.08,0 -0.1611,0 -0.2421,0 0,-0.08 0,-0.1606 0,-0.2411 z" /><path
                   id="path204"
                   style="fill:#be196b;fill-opacity:1;fill-rule:nonzero;stroke:none"
                   d="m 8197.0466,8186.7728 c 0.08,0 0.1611,0 0.2421,0 0,0.081 0,0.1611 0,0.2421 -0.081,0 -0.1621,0 -0.2421,0 0,-0.081 0,-0.1616 0,-0.2421 z" /><path
                   id="path206"
                   style="fill:#d12156;fill-opacity:1;fill-rule:nonzero;stroke:none"
                   d="m 8197.0466,8187.0149 c 0.08,0 0.1611,0 0.2421,0 0,0.081 0,0.1611 0,0.2411 -0.081,0 -0.1621,0 -0.2421,0 0,-0.08 0,-0.1606 0,-0.2411 z" /><path
                   id="path208"
                   style="fill:#c91b61;fill-opacity:1;fill-rule:nonzero;stroke:none"
                   d="m 8197.2887,8186.7728 c 0.08,0 0.1611,0 0.2421,0 0,0.081 0,0.1611 0,0.2421 -0.081,0 -0.162,0 -0.2421,0 0,-0.081 0,-0.1616 0,-0.2421 z" /><path
                   id="path210"
                   style="fill:#d9244c;fill-opacity:1;fill-rule:nonzero;stroke:none"
                   d="m 8197.2887,8187.0149 c 0.08,0 0.1611,0 0.2421,0 0,0.081 0,0.1611 0,0.2411 -0.081,0 -0.162,0 -0.2421,0 0,-0.08 0,-0.1606 0,-0.2411 z" /><path
                   id="path212"
                   style="fill:#cf1d58;fill-opacity:1;fill-rule:nonzero;stroke:none"
                   d="m 8197.5308,8186.7728 c 0.1611,0 0.3232,0 0.4843,0 0,0.081 0,0.1611 0,0.2421 -0.1611,0 -0.3232,0 -0.4843,0 0,-0.081 0,-0.1616 0,-0.2421 z" /><path
                   id="path214"
                   style="fill:#df2844;fill-opacity:1;fill-rule:nonzero;stroke:none"
                   d="m 8197.5308,8187.0149 c 0.1611,0 0.3232,0 0.4843,0 0,0.081 0,0.1611 0,0.2411 -0.1611,0 -0.3232,0 -0.4843,0 0,-0.08 0,-0.1606 0,-0.2411 z" /><path
                   id="path216"
                   style="fill:#d8204d;fill-opacity:1;fill-rule:nonzero;stroke:none"
                   d="m 8198.0151,8186.7728 c 0.1611,0 0.3212,0 0.4833,0 0,0.1611 0,0.3231 0,0.4832 -0.1621,0 -0.3222,0 -0.4833,0 0,-0.1601 0,-0.3221 0,-0.4832 z" /><path
                   id="path218"
                   style="fill:#da1d4c;fill-opacity:1;fill-rule:nonzero;stroke:none"
                   d="m 8198.4984,8186.7728 c 0.1611,0 0.3222,0 0.4833,0 0,0.1611 0,0.3231 0,0.4832 -0.1611,0 -0.3222,0 -0.4833,0 0,-0.1601 0,-0.3221 0,-0.4832 z" /><path
                   id="path220"
                   style="fill:#d81851;fill-opacity:1;fill-rule:nonzero;stroke:none"
                   d="m 8198.9817,8186.7728 c 0.162,0 0.3231,0 0.4832,0 0,0.1611 0,0.3231 0,0.4832 -0.1601,0 -0.3212,0 -0.4832,0 0,-0.1601 0,-0.3221 0,-0.4832 z" /><path
                   id="path222"
                   style="fill:#d3125b;fill-opacity:1;fill-rule:nonzero;stroke:none"
                   d="m 8199.4649,8186.7728 c 0.1621,0 0.3232,0 0.4843,0 0,0.1611 0,0.3231 0,0.4832 -0.1611,0 -0.3222,0 -0.4843,0 0,-0.1601 0,-0.3221 0,-0.4832 z" /><path
                   id="path224"
                   style="fill:#cb1167;fill-opacity:1;fill-rule:nonzero;stroke:none"
                   d="m 8199.9492,8186.7728 c 0.1611,0 0.3231,0 0.4842,0 0,0.1611 0,0.3231 0,0.4832 -0.1611,0 -0.3231,0 -0.4842,0 0,-0.1601 0,-0.3221 0,-0.4832 z" /><path
                   id="path226"
                   style="fill:#c11077;fill-opacity:1;fill-rule:nonzero;stroke:none"
                   d="m 8200.4334,8186.7728 c 0.1602,0 0.3222,0 0.4833,0 0,0.1611 0,0.3231 0,0.4832 -0.1611,0 -0.3231,0 -0.4833,0 0,-0.1601 0,-0.3221 0,-0.4832 z" /><path
                   id="path228"
                   style="fill:#b41088;fill-opacity:1;fill-rule:nonzero;stroke:none"
                   d="m 8200.9167,8186.7728 c 0.1611,0 0.3222,0 0.4833,0 0,0.1611 0,0.3231 0,0.4832 -0.1611,0 -0.3222,0 -0.4833,0 0,-0.1601 0,-0.3221 0,-0.4832 z" /><path
                   id="path230"
                   style="fill:#c62258;fill-opacity:1;fill-rule:nonzero;stroke:none"
                   d="m 8196.5633,8187.256 c 0,0.1621 0,0.3222 0,0.4833 0.08,0 0.1611,0 0.2412,0 0,-0.1611 0,-0.3212 0,-0.4833 -0.08,0 -0.1611,0 -0.2412,0 z" /><path
                   id="path232"
                   style="fill:#d4284d;fill-opacity:1;fill-rule:nonzero;stroke:none"
                   d="m 8196.8045,8187.256 c 0,0.1621 0,0.3222 0,0.4833 0.081,0 0.162,0 0.2421,0 0,-0.1611 0,-0.3212 0,-0.4833 -0.08,0 -0.1611,0 -0.2421,0 z" /><path
                   id="path234"
                   style="fill:#e02c44;fill-opacity:1;fill-rule:nonzero;stroke:none"
                   d="m 8197.0466,8187.256 c 0.1611,0 0.3222,0 0.4842,0 0,0.081 0,0.1616 0,0.2422 -0.162,0 -0.3231,0 -0.4842,0 0,-0.081 0,-0.1611 0,-0.2422 z" /><path
                   id="path236"
                   style="fill:#e83536;fill-opacity:1;fill-rule:nonzero;stroke:none"
                   d="m 8197.0466,8187.4982 c 0.1611,0 0.3222,0 0.4842,0 0,0.08 0,0.1606 0,0.2411 -0.162,0 -0.3231,0 -0.4842,0 0,-0.081 0,-0.1611 0,-0.2411 z" /><path
                   id="path238"
                   style="fill:#ea3236;fill-opacity:1;fill-rule:nonzero;stroke:none"
                   d="m 8197.5308,8187.256 c 0.1611,0 0.3232,0 0.4843,0 0,0.081 0,0.1616 0,0.2422 -0.1611,0 -0.3232,0 -0.4843,0 0,-0.081 0,-0.1611 0,-0.2422 z" /><path
                   id="path240"
                   style="fill:#ee3b2e;fill-opacity:1;fill-rule:nonzero;stroke:none"
                   d="m 8197.5308,8187.4982 c 0.1611,0 0.3232,0 0.4843,0 0,0.08 0,0.1606 0,0.2411 -0.1611,0 -0.3232,0 -0.4843,0 0,-0.081 0,-0.1611 0,-0.2411 z" /><path
                   id="path242"
                   style="fill:#ec3334;fill-opacity:1;fill-rule:nonzero;stroke:none"
                   d="m 8198.0151,8187.256 c 0.1611,0 0.3212,0 0.4833,0 0,0.1621 0,0.3222 0,0.4833 -0.1621,0 -0.3222,0 -0.4833,0 0,-0.1611 0,-0.3212 0,-0.4833 z" /><path
                   id="path244"
                   style="fill:#eb3235;fill-opacity:1;fill-rule:nonzero;stroke:none"
                   d="m 8198.4984,8187.256 c 0.1611,0 0.3222,0 0.4833,0 0,0.1621 0,0.3222 0,0.4833 -0.1611,0 -0.3222,0 -0.4833,0 0,-0.1611 0,-0.3212 0,-0.4833 z" /><path
                   id="path246"
                   style="fill:#e82a3a;fill-opacity:1;fill-rule:nonzero;stroke:none"
                   d="m 8198.9817,8187.256 c 0.162,0 0.3231,0 0.4832,0 0,0.1621 0,0.3222 0,0.4833 -0.1601,0 -0.3212,0 -0.4832,0 0,-0.1611 0,-0.3212 0,-0.4833 z" /><path
                   id="path248"
                   style="fill:#e31f43;fill-opacity:1;fill-rule:nonzero;stroke:none"
                   d="m 8199.4649,8187.256 c 0.1621,0 0.3232,0 0.4843,0 0,0.1621 0,0.3222 0,0.4833 -0.1611,0 -0.3222,0 -0.4843,0 0,-0.1611 0,-0.3212 0,-0.4833 z" /><path
                   id="path250"
                   style="fill:#dd144f;fill-opacity:1;fill-rule:nonzero;stroke:none"
                   d="m 8199.9492,8187.256 c 0.1611,0 0.3231,0 0.4842,0 0,0.1621 0,0.3222 0,0.4833 -0.1611,0 -0.3231,0 -0.4842,0 0,-0.1611 0,-0.3212 0,-0.4833 z" /><path
                   id="path252"
                   style="fill:#d4115e;fill-opacity:1;fill-rule:nonzero;stroke:none"
                   d="m 8200.4334,8187.256 c 0.1602,0 0.3222,0 0.4833,0 0,0.1621 0,0.3222 0,0.4833 -0.1611,0 -0.3231,0 -0.4833,0 0,-0.1611 0,-0.3212 0,-0.4833 z" /><path
                   id="path254"
                   style="fill:#ca106f;fill-opacity:1;fill-rule:nonzero;stroke:none"
                   d="m 8200.9167,8187.256 c 0.1611,0 0.3222,0 0.4833,0 0,0.1621 0,0.3222 0,0.4833 -0.1611,0 -0.3222,0 -0.4833,0 0,-0.1611 0,-0.3212 0,-0.4833 z" /><path
                   id="path256"
                   style="fill:#de3339;fill-opacity:1;fill-rule:nonzero;stroke:none"
                   d="m 8196.5633,8187.7393 c 0,0.1621 0,0.3242 0,0.4862 0.08,0 0.1611,0 0.2412,0 0,-0.162 0,-0.3241 0,-0.4862 -0.08,0 -0.1611,0 -0.2412,0 z" /><path
                   id="path258"
                   style="fill:#e83932;fill-opacity:1;fill-rule:nonzero;stroke:none"
                   d="m 8196.8045,8187.7393 c 0,0.1621 0,0.3242 0,0.4862 0.081,0 0.162,0 0.2421,0 0,-0.162 0,-0.3241 0,-0.4862 -0.08,0 -0.1611,0 -0.2421,0 z" /><path
                   id="path260"
                   style="fill:#ee3e2d;fill-opacity:1;fill-rule:nonzero;stroke:none"
                   d="m 8197.0466,8187.7393 c 0.1611,0 0.3222,0 0.4842,0 0,0.081 0,0.1621 0,0.2431 -0.162,0 -0.3231,0 -0.4842,0 0,-0.081 0,-0.162 0,-0.2431 z" /><path
                   id="path262"
                   style="fill:#f04528;fill-opacity:1;fill-rule:nonzero;stroke:none"
                   d="m 8197.0466,8187.9824 c 0.1611,0 0.3222,0 0.4842,0 0,0.081 0,0.1621 0,0.2431 -0.162,0 -0.3231,0 -0.4842,0 0,-0.081 0,-0.162 0,-0.2431 z" /><path
                   id="path264"
                   style="fill:#f04329;fill-opacity:1;fill-rule:nonzero;stroke:none"
                   d="m 8197.5308,8187.7393 c 0.1611,0 0.3232,0 0.4843,0 0,0.1621 0,0.3242 0,0.4862 -0.1611,0 -0.3232,0 -0.4843,0 0,-0.162 0,-0.3241 0,-0.4862 z" /><path
                   id="path266"
                   style="fill:#f04329;fill-opacity:1;fill-rule:nonzero;stroke:none"
                   d="m 8198.0151,8187.7393 c 0.1611,0 0.3212,0 0.4833,0 0,0.1621 0,0.3242 0,0.4862 -0.1621,0 -0.3222,0 -0.4833,0 0,-0.162 0,-0.3241 0,-0.4862 z" /><path
                   id="path268"
                   style="fill:#ef412a;fill-opacity:1;fill-rule:nonzero;stroke:none"
                   d="m 8198.4984,8187.7393 c 0.1611,0 0.3222,0 0.4833,0 0,0.1621 0,0.3242 0,0.4862 -0.1611,0 -0.3222,0 -0.4833,0 0,-0.162 0,-0.3241 0,-0.4862 z" /><path
                   id="path270"
                   style="fill:#ef3b2e;fill-opacity:1;fill-rule:nonzero;stroke:none"
                   d="m 8198.9817,8187.7393 c 0.162,0 0.3231,0 0.4832,0 0,0.1621 0,0.3242 0,0.4862 -0.1601,0 -0.3212,0 -0.4832,0 0,-0.162 0,-0.3241 0,-0.4862 z" /><path
                   id="path272"
                   style="fill:#ed3134;fill-opacity:1;fill-rule:nonzero;stroke:none"
                   d="m 8199.4649,8187.7393 c 0.1621,0 0.3232,0 0.4843,0 0,0.1621 0,0.3242 0,0.4862 -0.1611,0 -0.3222,0 -0.4843,0 0,-0.162 0,-0.3241 0,-0.4862 z" /><path
                   id="path274"
                   style="fill:#e7223e;fill-opacity:1;fill-rule:nonzero;stroke:none"
                   d="m 8199.9492,8187.7393 c 0.1611,0 0.3231,0 0.4842,0 0,0.1621 0,0.3242 0,0.4862 -0.1611,0 -0.3231,0 -0.4842,0 0,-0.162 0,-0.3241 0,-0.4862 z" /><path
                   id="path276"
                   style="fill:#e0154c;fill-opacity:1;fill-rule:nonzero;stroke:none"
                   d="m 8200.4334,8187.7393 c 0.1602,0 0.3222,0 0.4833,0 0,0.1621 0,0.3242 0,0.4862 -0.1611,0 -0.3231,0 -0.4833,0 0,-0.162 0,-0.3241 0,-0.4862 z" /><path
                   id="path278"
                   style="fill:#d9115c;fill-opacity:1;fill-rule:nonzero;stroke:none"
                   d="m 8200.9167,8187.7393 c 0.1611,0 0.3222,0 0.4833,0 0,0.1621 0,0.3242 0,0.4862 -0.1611,0 -0.3222,0 -0.4833,0 0,-0.162 0,-0.3241 0,-0.4862 z" /><path
                   id="path280"
                   style="fill:#e84427;fill-opacity:1;fill-rule:nonzero;stroke:none"
                   d="m 8196.5633,8188.2255 c 0,0.1592 0,0.3212 0,0.4823 0.08,0 0.1611,0 0.2412,0 0,-0.1611 0,-0.3231 0,-0.4823 -0.08,0 -0.1611,0 -0.2412,0 z" /><path
                   id="path282"
                   style="fill:#ee4926;fill-opacity:1;fill-rule:nonzero;stroke:none"
                   d="m 8196.8045,8188.2255 c 0,0.1592 0,0.3212 0,0.4823 0.081,0 0.162,0 0.2421,0 0,-0.1611 0,-0.3231 0,-0.4823 -0.08,0 -0.1611,0 -0.2421,0 z" /><path
                   id="path284"
                   style="fill:#f04d27;fill-opacity:1;fill-rule:nonzero;stroke:none"
                   d="m 8197.0466,8188.2255 c 0.1611,0 0.3222,0 0.4842,0 0,0.1592 0,0.3212 0,0.4823 -0.162,0 -0.3231,0 -0.4842,0 0,-0.1611 0,-0.3231 0,-0.4823 z" /><path
                   id="path286"
                   style="fill:#f05428;fill-opacity:1;fill-rule:nonzero;stroke:none"
                   d="m 8197.5308,8188.2255 c 0.1611,0 0.3232,0 0.4843,0 0,0.1592 0,0.3212 0,0.4823 -0.1611,0 -0.3232,0 -0.4843,0 0,-0.1611 0,-0.3231 0,-0.4823 z" /><path
                   id="path288"
                   style="fill:#f05627;fill-opacity:1;fill-rule:nonzero;stroke:none"
                   d="m 8198.0151,8188.2255 c 0.1611,0 0.3212,0 0.4833,0 0,0.08 0,0.1601 0,0.2407 -0.1621,0 -0.3222,0 -0.4833,0 0,-0.081 0,-0.1611 0,-0.2407 z" /><path
                   id="path290"
                   style="fill:#f06824;fill-opacity:1;fill-rule:nonzero;stroke:none"
                   d="m 8198.0151,8188.4662 c 0.1611,0 0.3212,0 0.4833,0 0,0.081 0,0.1611 0,0.2416 -0.1621,0 -0.3222,0 -0.4833,0 0,-0.081 0,-0.1611 0,-0.2416 z" /><path
                   id="path292"
                   style="fill:#f05026;fill-opacity:1;fill-rule:nonzero;stroke:none"
                   d="m 8198.4984,8188.2255 c 0.1611,0 0.3222,0 0.4833,0 0,0.1592 0,0.3212 0,0.4823 -0.1611,0 -0.3222,0 -0.4833,0 0,-0.1611 0,-0.3231 0,-0.4823 z" /><path
                   id="path294"
                   style="fill:#ef4728;fill-opacity:1;fill-rule:nonzero;stroke:none"
                   d="m 8198.9817,8188.2255 c 0.162,0 0.3231,0 0.4832,0 0,0.1592 0,0.3212 0,0.4823 -0.1601,0 -0.3212,0 -0.4832,0 0,-0.1611 0,-0.3231 0,-0.4823 z" /><path
                   id="path296"
                   style="fill:#ef3f2b;fill-opacity:1;fill-rule:nonzero;stroke:none"
                   d="m 8199.4649,8188.2255 c 0.1621,0 0.3232,0 0.4843,0 0,0.1592 0,0.3212 0,0.4823 -0.1611,0 -0.3222,0 -0.4843,0 0,-0.1611 0,-0.3231 0,-0.4823 z" /><path
                   id="path298"
                   style="fill:#ee3333;fill-opacity:1;fill-rule:nonzero;stroke:none"
                   d="m 8199.9492,8188.2255 c 0.1611,0 0.3231,0 0.4842,0 0,0.1592 0,0.3212 0,0.4823 -0.1611,0 -0.3231,0 -0.4842,0 0,-0.1611 0,-0.3231 0,-0.4823 z" /><path
                   id="path300"
                   style="fill:#e81f3f;fill-opacity:1;fill-rule:nonzero;stroke:none"
                   d="m 8200.4334,8188.2255 c 0,0.1592 0,0.3212 0,0.4823 0.08,0 0.1611,0 0.2412,0 0,-0.1611 0,-0.3231 0,-0.4823 -0.08,0 -0.1611,0 -0.2412,0 z" /><path
                   id="path302"
                   style="fill:#e51846;fill-opacity:1;fill-rule:nonzero;stroke:none"
                   d="m 8200.6746,8188.2255 c 0,0.1592 0,0.3212 0,0.4823 0.081,0 0.1621,0 0.2421,0 0,-0.1611 0,-0.3231 0,-0.4823 -0.08,0 -0.1611,0 -0.2421,0 z" /><path
                   id="path304"
                   style="fill:#e2134d;fill-opacity:1;fill-rule:nonzero;stroke:none"
                   d="m 8200.9167,8188.2255 c 0.1611,0 0.3222,0 0.4833,0 0,0.1592 0,0.3212 0,0.4823 -0.1611,0 -0.3222,0 -0.4833,0 0,-0.1611 0,-0.3231 0,-0.4823 z" /><path
                   id="path306"
                   style="fill:#ea5623;fill-opacity:1;fill-rule:nonzero;stroke:none"
                   d="m 8196.5633,8188.7078 c 0.1601,0 0.3222,0 0.4833,0 0,0.1611 0,0.3232 0,0.4843 -0.1611,0 -0.3232,0 -0.4833,0 0,-0.1611 0,-0.3232 0,-0.4843 z" /><path
                   id="path308"
                   style="fill:#f06a25;fill-opacity:1;fill-rule:nonzero;stroke:none"
                   d="m 8197.0466,8188.7078 c 0.1611,0 0.3222,0 0.4842,0 0,0.1611 0,0.3232 0,0.4843 -0.162,0 -0.3231,0 -0.4842,0 0,-0.1611 0,-0.3232 0,-0.4843 z" /><path
                   id="path310"
                   style="fill:#f27a25;fill-opacity:1;fill-rule:nonzero;stroke:none"
                   d="m 8197.5308,8188.7078 c 0.1611,0 0.3232,0 0.4843,0 0,0.1611 0,0.3232 0,0.4843 -0.1611,0 -0.3232,0 -0.4843,0 0,-0.1611 0,-0.3232 0,-0.4843 z" /><path
                   id="path312"
                   style="fill:#f27d25;fill-opacity:1;fill-rule:nonzero;stroke:none"
                   d="m 8198.0151,8188.7078 c 0,0.1611 0,0.3232 0,0.4843 0.08,0 0.1601,0 0.2411,0 0,-0.1611 0,-0.3232 0,-0.4843 -0.081,0 -0.161,0 -0.2411,0 z" /><path
                   id="path314"
                   style="fill:#f17924;fill-opacity:1;fill-rule:nonzero;stroke:none"
                   d="m 8198.2562,8188.7078 c 0,0.1611 0,0.3232 0,0.4843 0.081,0 0.1611,0 0.2422,0 0,-0.1611 0,-0.3232 0,-0.4843 -0.081,0 -0.1611,0 -0.2422,0 z" /><path
                   id="path316"
                   style="fill:#f27225;fill-opacity:1;fill-rule:nonzero;stroke:none"
                   d="m 8198.4984,8188.7078 c 0.1611,0 0.3222,0 0.4833,0 0,0.1611 0,0.3232 0,0.4843 -0.1611,0 -0.3222,0 -0.4833,0 0,-0.1611 0,-0.3232 0,-0.4843 z" /><path
                   id="path318"
                   style="fill:#f15d27;fill-opacity:1;fill-rule:nonzero;stroke:none"
                   d="m 8198.9817,8188.7078 c 0.162,0 0.3231,0 0.4832,0 0,0.1611 0,0.3232 0,0.4843 -0.1601,0 -0.3212,0 -0.4832,0 0,-0.1611 0,-0.3232 0,-0.4843 z" /><path
                   id="path320"
                   style="fill:#ef4a26;fill-opacity:1;fill-rule:nonzero;stroke:none"
                   d="m 8199.4649,8188.7078 c 0.1621,0 0.3232,0 0.4843,0 0,0.1611 0,0.3232 0,0.4843 -0.1611,0 -0.3222,0 -0.4843,0 0,-0.1611 0,-0.3232 0,-0.4843 z" /><path
                   id="path322"
                   style="fill:#ef3e2b;fill-opacity:1;fill-rule:nonzero;stroke:none"
                   d="m 8199.9492,8188.7078 c 0.1611,0 0.3231,0 0.4842,0 0,0.1611 0,0.3232 0,0.4843 -0.1611,0 -0.3231,0 -0.4842,0 0,-0.1611 0,-0.3232 0,-0.4843 z" /><path
                   id="path324"
                   style="fill:#ec2c35;fill-opacity:1;fill-rule:nonzero;stroke:none"
                   d="m 8200.4334,8188.7078 c 0.1602,0 0.3222,0 0.4833,0 0,0.1611 0,0.3232 0,0.4843 -0.1611,0 -0.3231,0 -0.4833,0 0,-0.1611 0,-0.3232 0,-0.4843 z" /><path
                   id="path326"
                   style="fill:#e71942;fill-opacity:1;fill-rule:nonzero;stroke:none"
                   d="m 8200.9167,8188.7078 c 0.1611,0 0.3222,0 0.4833,0 0,0.1611 0,0.3232 0,0.4843 -0.1611,0 -0.3222,0 -0.4833,0 0,-0.1611 0,-0.3232 0,-0.4843 z" /><path
                   id="path328"
                   style="fill:#eb7624;fill-opacity:1;fill-rule:nonzero;stroke:none"
                   d="m 8196.5633,8189.1921 c 0.1601,0 0.3222,0 0.4833,0 0,0.1621 0,0.3222 0,0.4833 -0.1611,0 -0.3232,0 -0.4833,0 0,-0.1611 0,-0.3212 0,-0.4833 z" /><path
                   id="path330"
                   style="fill:#f39529;fill-opacity:1;fill-rule:nonzero;stroke:none"
                   d="m 8197.0466,8189.1921 c 0.1611,0 0.3222,0 0.4842,0 0,0.1621 0,0.3222 0,0.4833 -0.162,0 -0.3221,0 -0.4842,0 0,-0.1611 0,-0.3212 0,-0.4833 z" /><path
                   id="path332"
                   style="fill:#f3a42e;fill-opacity:1;fill-rule:nonzero;stroke:none"
                   d="m 8197.5308,8189.1921 c 0.1611,0 0.3232,0 0.4843,0 0,0.1621 0,0.3222 0,0.4833 -0.1611,0 -0.3232,0 -0.4843,0 0,-0.1611 0,-0.3212 0,-0.4833 z" /><path
                   id="path334"
                   style="fill:#f3a72d;fill-opacity:1;fill-rule:nonzero;stroke:none"
                   d="m 8198.0151,8189.1921 c 0,0.1621 0,0.3222 0,0.4833 0.08,0 0.1601,0 0.2411,0 0,-0.1611 0,-0.3212 0,-0.4833 -0.081,0 -0.161,0 -0.2411,0 z" /><path
                   id="path336"
                   style="fill:#f3a42c;fill-opacity:1;fill-rule:nonzero;stroke:none"
                   d="m 8198.2562,8189.1921 c 0,0.1621 0,0.3222 0,0.4833 0.081,0 0.1611,0 0.2422,0 0,-0.1611 0,-0.3212 0,-0.4833 -0.081,0 -0.1611,0 -0.2422,0 z" /><path
                   id="path338"
                   style="fill:#f39d29;fill-opacity:1;fill-rule:nonzero;stroke:none"
                   d="m 8198.4984,8189.1921 c 0.1611,0 0.3222,0 0.4833,0 0,0.1621 0,0.3222 0,0.4833 -0.1611,0 -0.3222,0 -0.4833,0 0,-0.1611 0,-0.3212 0,-0.4833 z" /><path
                   id="path340"
                   style="fill:#f38127;fill-opacity:1;fill-rule:nonzero;stroke:none"
                   d="m 8198.9817,8189.1921 c 0.162,0 0.3231,0 0.4832,0 0,0.1621 0,0.3222 0,0.4833 -0.1601,0 -0.3212,0 -0.4832,0 0,-0.1611 0,-0.3212 0,-0.4833 z" /><path
                   id="path342"
                   style="fill:#f25d27;fill-opacity:1;fill-rule:nonzero;stroke:none"
                   d="m 8199.4649,8189.1921 c 0.1621,0 0.3232,0 0.4843,0 0,0.1621 0,0.3222 0,0.4833 -0.1611,0 -0.3222,0 -0.4843,0 0,-0.1611 0,-0.3212 0,-0.4833 z" /><path
                   id="path344"
                   style="fill:#f04628;fill-opacity:1;fill-rule:nonzero;stroke:none"
                   d="m 8199.9492,8189.1921 c 0,0.1621 0,0.3222 0,0.4833 0.081,0 0.1611,0 0.2421,0 0,-0.1611 0,-0.3212 0,-0.4833 -0.081,0 -0.1611,0 -0.2421,0 z" /><path
                   id="path346"
                   style="fill:#ef402a;fill-opacity:1;fill-rule:nonzero;stroke:none"
                   d="m 8200.1913,8189.1921 c 0,0.1621 0,0.3222 0,0.4833 0.081,0 0.1611,0 0.2421,0 0,-0.1611 0,-0.3212 0,-0.4833 -0.081,0 -0.1611,0 -0.2421,0 z" /><path
                   id="path348"
                   style="fill:#ef3730;fill-opacity:1;fill-rule:nonzero;stroke:none"
                   d="m 8200.4334,8189.1921 c 0.1602,0 0.3222,0 0.4833,0 0,0.1621 0,0.3222 0,0.4833 -0.1611,0 -0.3231,0 -0.4833,0 0,-0.1611 0,-0.3212 0,-0.4833 z" /><path
                   id="path350"
                   style="fill:#ea213a;fill-opacity:1;fill-rule:nonzero;stroke:none"
                   d="m 8200.9167,8189.1921 c 0.1611,0 0.3222,0 0.4833,0 0,0.1621 0,0.3222 0,0.4833 -0.1611,0 -0.3222,0 -0.4833,0 0,-0.1611 0,-0.3212 0,-0.4833 z" /><path
                   id="path352"
                   style="fill:#ec9829;fill-opacity:1;fill-rule:nonzero;stroke:none"
                   d="m 8196.5633,8189.6754 c 0.1601,0 0.3222,0 0.4833,0 0,0.162 0,0.3241 0,0.4832 -0.1611,0 -0.3232,0 -0.4833,0 0,-0.1591 0,-0.3212 0,-0.4832 z" /><path
                   id="path354"
                   style="fill:#f3b433;fill-opacity:1;fill-rule:nonzero;stroke:none"
                   d="m 8197.0466,8189.6754 c 0,0.162 0,0.3241 0,0.4832 0.08,0 0.1611,0 0.2421,0 0,-0.1591 0,-0.3212 0,-0.4832 -0.08,0 -0.1611,0 -0.2421,0 z" /><path
                   id="path356"
                   style="fill:#f4bc3a;fill-opacity:1;fill-rule:nonzero;stroke:none"
                   d="m 8197.2887,8189.6754 c 0,0.162 0,0.3241 0,0.4832 0.08,0 0.1611,0 0.2421,0 0,-0.1591 0,-0.3212 0,-0.4832 -0.081,0 -0.162,0 -0.2421,0 z" /><path
                   id="path358"
                   style="fill:#f4c03f;fill-opacity:1;fill-rule:nonzero;stroke:none"
                   d="m 8197.5308,8189.6754 c 0.1611,0 0.3232,0 0.4843,0 0,0.162 0,0.3241 0,0.4832 -0.1611,0 -0.3232,0 -0.4843,0 0,-0.1591 0,-0.3212 0,-0.4832 z" /><path
                   id="path360"
                   style="fill:#f4c342;fill-opacity:1;fill-rule:nonzero;stroke:none"
                   d="m 8198.0151,8189.6754 c 0,0.162 0,0.3241 0,0.4832 0.08,0 0.1601,0 0.2411,0 0,-0.1591 0,-0.3212 0,-0.4832 -0.081,0 -0.161,0 -0.2411,0 z" /><path
                   id="path362"
                   style="fill:#f4c03e;fill-opacity:1;fill-rule:nonzero;stroke:none"
                   d="m 8198.2562,8189.6754 c 0,0.162 0,0.3241 0,0.4832 0.081,0 0.1611,0 0.2422,0 0,-0.1591 0,-0.3212 0,-0.4832 -0.081,0 -0.1611,0 -0.2422,0 z" /><path
                   id="path364"
                   style="fill:#f3ba39;fill-opacity:1;fill-rule:nonzero;stroke:none"
                   d="m 8198.4984,8189.6754 c 0.1611,0 0.3222,0 0.4833,0 0,0.162 0,0.3241 0,0.4832 -0.1611,0 -0.3222,0 -0.4833,0 0,-0.1591 0,-0.3212 0,-0.4832 z" /><path
                   id="path366"
                   style="fill:#f3a42d;fill-opacity:1;fill-rule:nonzero;stroke:none"
                   d="m 8198.9817,8189.6754 c 0.162,0 0.3231,0 0.4832,0 0,0.162 0,0.3241 0,0.4832 -0.1601,0 -0.3212,0 -0.4832,0 0,-0.1591 0,-0.3212 0,-0.4832 z" /><path
                   id="path368"
                   style="fill:#f27a24;fill-opacity:1;fill-rule:nonzero;stroke:none"
                   d="m 8199.4649,8189.6754 c 0,0.162 0,0.3241 0,0.4832 0.081,0 0.1621,0 0.2431,0 0,-0.1591 0,-0.3212 0,-0.4832 -0.081,0 -0.162,0 -0.2431,0 z" /><path
                   id="path370"
                   style="fill:#f16424;fill-opacity:1;fill-rule:nonzero;stroke:none"
                   d="m 8199.708,8189.6754 c 0,0.162 0,0.3241 0,0.4832 0.08,0 0.1602,0 0.2412,0 0,-0.1591 0,-0.3212 0,-0.4832 -0.081,0 -0.1611,0 -0.2412,0 z" /><path
                   id="path372"
                   style="fill:#f05126;fill-opacity:1;fill-rule:nonzero;stroke:none"
                   d="m 8199.9492,8189.6754 c 0,0.162 0,0.3241 0,0.4832 0.081,0 0.1611,0 0.2421,0 0,-0.1591 0,-0.3212 0,-0.4832 -0.081,0 -0.1611,0 -0.2421,0 z" /><path
                   id="path374"
                   style="fill:#f04728;fill-opacity:1;fill-rule:nonzero;stroke:none"
                   d="m 8200.1913,8189.6754 c 0,0.162 0,0.3241 0,0.4832 0.081,0 0.1611,0 0.2421,0 0,-0.1591 0,-0.3212 0,-0.4832 -0.081,0 -0.1611,0 -0.2421,0 z" /><path
                   id="path376"
                   style="fill:#ef3f2a;fill-opacity:1;fill-rule:nonzero;stroke:none"
                   d="m 8200.4334,8189.6754 c 0.1602,0 0.3222,0 0.4833,0 0,0.162 0,0.3241 0,0.4832 -0.1611,0 -0.3231,0 -0.4833,0 0,-0.1591 0,-0.3212 0,-0.4832 z" /><path
                   id="path378"
                   style="fill:#ec2b35;fill-opacity:1;fill-rule:nonzero;stroke:none"
                   d="m 8200.9167,8189.6754 c 0,0.162 0,0.3241 0,0.4832 0.08,0 0.1611,0 0.2421,0 0,-0.1591 0,-0.3212 0,-0.4832 -0.081,0 -0.162,0 -0.2421,0 z" /><path
                   id="path380"
                   style="fill:#e72139;fill-opacity:1;fill-rule:nonzero;stroke:none"
                   d="m 8201.1588,8189.6754 c 0,0.162 0,0.3241 0,0.4832 0.08,0 0.1602,0 0.2412,0 0,-0.1591 0,-0.3212 0,-0.4832 -0.081,0 -0.1611,0 -0.2412,0 z" /></g></g></g></g></g><g
         transform="matrix(2.5957536,0,0,2.5957536,-46.638452,-51.6563)"
         id="g1387"><path
           d="m 71.1328,53.3398 c 0,-10.9765 -8.4336,-20 -19.1406,-20.8593 -0.5899,-0.1094 -1.1914,-0.1094 -1.7813,-0.1094 -1.5664,0 -3.0859,0.1562 -4.5429,0.4805 -9.4063,2.1211 -16.4414,10.5 -16.4414,20.4882 0,11.5704 9.4179,20.9297 20.9843,20.9297 11.5704,0 20.9219,-9.3593 20.9219,-20.9297"
           style="fill:#f4591e;fill-opacity:1;fill-rule:nonzero;stroke:none"
           id="path384" /><path
           d="m 52.5898,57.7266 c 0.3204,0.3789 0.9688,0.6523 1.8907,0.6523 0.8633,0 1.8906,-0.1172 2.8633,-0.3906 l 0.8164,4.3945 c -1.6758,0.586 -3.4024,0.7539 -5.1914,0.7539 -1.7891,0 -3.1915,-0.2773 -4.3243,-0.9179 C 47.5039,61.5703 46.7461,60.8594 46.3203,59.8242 45.8828,58.9141 45.668,57.3438 45.668,55.3984 V 53.6719 H 42.2031 V 48.6445 H 45.668 V 32.8516 c 1.457,-0.3243 2.9765,-0.4805 4.5429,-0.4805 0.5899,0 1.1914,0 1.7813,0.1094 v 16.164 h 4.5937 v 5.0274 h -4.5937 v 1.6211 c 0,1.2383 0.1641,2.0039 0.5976,2.4336"
           style="fill:#ffffff;fill-opacity:1;fill-rule:nonzero;stroke:none"
           id="path386" /></g><g
         transform="matrix(2.5136165,0,0,2.5136165,-270.75421,-112.26781)"
         id="g1391"><path
           d="m 220.781,53.2031 c 0,-11.5703 -9.375,-20.957 -20.957,-20.957 -11.562,0 -20.945,9.3867 -20.945,20.957 0,11.5703 9.383,20.9688 20.945,20.9688 11.582,0 20.957,-9.3985 20.957,-20.9688"
           style="fill:#f4591e;fill-opacity:1;fill-rule:nonzero;stroke:none"
           id="path398" /><path
           d="m 208.574,45.8203 c -0.019,-1.0547 -0.293,-1.3555 -1.347,-1.3555 -2.469,0 -4.942,0 -7.414,0 -2.45,0 -4.918,0 -7.391,0 -1.035,0 -1.328,0.3008 -1.328,1.3555 0,2.7149 0.011,5.4883 -0.039,8.2422 0,0.7813 0.215,0.957 0.937,0.9258 1.035,-0.0664 1.055,-0.0274 0.938,-1.0352 -0.403,-3.5039 2.019,-6.8906 5.468,-7.5664 3.555,-0.6836 7.11,1.4453 8.086,4.8516 0.293,1.0664 0.379,2.1992 0.157,3.2539 -0.078,0.3906 0.019,0.4687 0.371,0.4687 1.562,0.1172 1.562,0.1446 1.562,-1.4765 0,-2.5274 0,-5.1055 0,-7.6641 z m -8.73,11.7774 c 2.363,0 4.394,-2.0391 4.355,-4.3946 -0.019,-2.414 -2.031,-4.414 -4.433,-4.375 -2.383,0.0586 -4.395,2.0625 -4.336,4.4336 0.058,2.375 2.05,4.336 4.414,4.336 z m 6.484,4.3671 c 2.246,0 2.246,0 2.246,-2.246 0,-2.1993 0,-2.1993 -2.207,-2.1993 -2.226,0 -2.226,0 -2.226,2.2266 0,2.2187 0,2.2187 2.187,2.2187 z m 1.836,2.5469 c -5.547,0 -11.113,0 -16.66,0 -1.984,0 -3.008,-1.0351 -3.008,-3.0273 0,-2.7461 0,-5.5 0,-8.2813 0,-2.7539 0,-5.5586 0,-8.3398 0,-1.9141 1.055,-2.9688 2.91,-2.9688 5.606,0 11.172,0 16.758,0 1.934,0 2.996,1.0547 2.996,3 0,5.5547 0,11.0899 0,16.6602 0,1.9219 -1.062,2.957 -2.996,2.957"
           style="fill:#ffffff;fill-opacity:1;fill-rule:evenodd;stroke:none"
           id="path400" /></g></g></g></svg>
