<?xml version="1.0" encoding="UTF-8" standalone="no"?>
<!-- Generator: Adobe Illustrator 16.0.0, SVG Export Plug-In . SVG Version: 6.00 Build 0)  -->

<svg
   xmlns:dc="http://purl.org/dc/elements/1.1/"
   xmlns:cc="http://creativecommons.org/ns#"
   xmlns:rdf="http://www.w3.org/1999/02/22-rdf-syntax-ns#"
   xmlns:svg="http://www.w3.org/2000/svg"
   xmlns="http://www.w3.org/2000/svg"
   xmlns:sodipodi="http://sodipodi.sourceforge.net/DTD/sodipodi-0.dtd"
   xmlns:inkscape="http://www.inkscape.org/namespaces/inkscape"
   version="1.1"
   id="Capa_1"
   x="0px"
   y="0px"
   width="487.33499"
   height="439.064"
   viewBox="0 0 487.33499 439.064"
   xml:space="preserve"
   sodipodi:docname="headphones_white.svg"
   inkscape:version="0.92.4 (f8dce91, 2019-08-02)"><metadata
   id="metadata96"><rdf:RDF><cc:Work
       rdf:about=""><dc:format>image/svg+xml</dc:format><dc:type
         rdf:resource="http://purl.org/dc/dcmitype/StillImage" /><dc:title></dc:title></cc:Work></rdf:RDF></metadata><defs
   id="defs94" /><sodipodi:namedview
   pagecolor="#ffffff"
   bordercolor="#666666"
   borderopacity="1"
   objecttolerance="10"
   gridtolerance="10"
   guidetolerance="10"
   inkscape:pageopacity="0"
   inkscape:pageshadow="2"
   inkscape:window-width="1366"
   inkscape:window-height="713"
   id="namedview92"
   showgrid="false"
   inkscape:zoom="0.48426648"
   inkscape:cx="243.668"
   inkscape:cy="219.5325"
   inkscape:window-x="0"
   inkscape:window-y="27"
   inkscape:window-maximized="1"
   inkscape:current-layer="Capa_1" />
<g
   id="g59"
   style="fill:#ffffff"
   transform="translate(0,-24.136)">
	<g
   id="g57"
   style="fill:#ffffff">
		<path
   d="M 243.573,24.136 C 109.269,24.76 0,134.531 0,268.832 c 0,40.784 10.226,80.992 29.563,116.62 V 320.76 c 0,-11.925 4.243,-22.984 11.683,-32.471 -0.616,-6.453 -0.933,-12.946 -0.933,-19.457 0,-112.177 91.265,-203.861 203.261,-204.382 112.183,0.519 203.447,92.205 203.447,204.382 0,7.21 -0.4,14.396 -1.156,21.533 6.467,9.01 10.116,19.33 10.116,30.395 v 67.975 c 20.508,-36.43 31.354,-77.864 31.354,-119.902 C 487.336,134.531 378.067,24.76 243.573,24.136 Z"
   id="path51"
   style="fill:#ffffff"
   inkscape:connector-curvature="0" />
		<path
   d="M 44.578,310.312 C 43.548,313.685 43,317.179 43,320.761 v 62.352 29.023 c 0,28.199 33.586,51.063 75.019,51.063 h 31.586 V 269.7 h -31.586 c -36.171,-10e-4 -66.354,17.421 -73.441,40.612 z"
   id="path53"
   style="fill:#ffffff"
   inkscape:connector-curvature="0" />
		<path
   d="m 442.543,412.136 v -30.037 -61.338 c 0,-2.201 -0.229,-4.367 -0.626,-6.496 -4.69,-25.133 -36.196,-44.565 -74.394,-44.565 h -31.586 v 193.5 h 31.587 c 41.434,-10e-4 75.019,-22.865 75.019,-51.064 z"
   id="path55"
   style="fill:#ffffff"
   inkscape:connector-curvature="0" />
	</g>
</g>
<g
   id="g61"
   transform="translate(0,-24.136)">
</g>
<g
   id="g63"
   transform="translate(0,-24.136)">
</g>
<g
   id="g65"
   transform="translate(0,-24.136)">
</g>
<g
   id="g67"
   transform="translate(0,-24.136)">
</g>
<g
   id="g69"
   transform="translate(0,-24.136)">
</g>
<g
   id="g71"
   transform="translate(0,-24.136)">
</g>
<g
   id="g73"
   transform="translate(0,-24.136)">
</g>
<g
   id="g75"
   transform="translate(0,-24.136)">
</g>
<g
   id="g77"
   transform="translate(0,-24.136)">
</g>
<g
   id="g79"
   transform="translate(0,-24.136)">
</g>
<g
   id="g81"
   transform="translate(0,-24.136)">
</g>
<g
   id="g83"
   transform="translate(0,-24.136)">
</g>
<g
   id="g85"
   transform="translate(0,-24.136)">
</g>
<g
   id="g87"
   transform="translate(0,-24.136)">
</g>
<g
   id="g89"
   transform="translate(0,-24.136)">
</g>
</svg>